/* XPM */
static char *colscheme[]={
"32 32 2 1",
". c None",
"# c #008000",
"................................",
"................................",
"................................",
"............#######.............",
"..........##...######...........",
"........##.....########.........",
".......#.......#########........",
"......#........##########.......",
".....#.........###########......",
".....#.........###########......",
"....#..........############.....",
"....#..........############.....",
"...#...........#############....",
"...#...........#############....",
"...#...........#############....",
"...#...........#############....",
"...#...........#############....",
"...#...........#############....",
"...#...........#############....",
"....#..........############.....",
"....#..........############.....",
".....#.........###########......",
".....#.........###########......",
"......#........##########.......",
".......#.......#########........",
"........##.....########.........",
"..........##...######...........",
"............#######.............",
"................................",
"................................",
"................................",
"................................"};
