/* XPM */
static const char *colscheme[] = {
/* columns rows colors chars-per-pixel */
"32 32 174 2",
"   c #040403",
".  c #0C0A05",
"X  c #0C0D0D",
"o  c #110D02",
"O  c #120E09",
"+  c #151205",
"@  c #1A1605",
"#  c #0F1010",
"$  c #1A1714",
"%  c #171817",
"&  c #1A1A17",
"*  c #1D1C1C",
"=  c #2E1E0D",
"-  c #301E0C",
";  c #221C15",
":  c #221F1D",
">  c #1F201F",
",  c #30200F",
"<  c #3F260F",
"1  c #2B2114",
"2  c #23211C",
"3  c #28241D",
"4  c #2D291B",
"5  c #342212",
"6  c #3A2512",
"7  c #3D2B17",
"8  c #302B19",
"9  c #3D2C1A",
"0  c #242424",
"q  c #282622",
"w  c #2C2A23",
"e  c #272828",
"r  c #2B2B2B",
"t  c #363225",
"y  c #3A3522",
"u  c #31302E",
"i  c #39362C",
"p  c #3C382B",
"a  c #333333",
"s  c #3E3E3E",
"d  c #442C14",
"f  c #4A3111",
"g  c #47321D",
"h  c #433918",
"j  c #483D19",
"k  c #543C12",
"l  c #6C3E0E",
"z  c #703E0C",
"x  c #443D20",
"c  c #413C29",
"v  c #4D4017",
"b  c #554115",
"n  c #554816",
"m  c #5F511D",
"M  c #7D450B",
"N  c #6A4E11",
"B  c #645317",
"V  c #61521A",
"C  c #705C15",
"Z  c #7A5F18",
"A  c #7D6917",
"S  c #7B641A",
"D  c #4F4524",
"F  c #534926",
"G  c #5A4E23",
"H  c #5F5226",
"J  c #745F20",
"K  c #736425",
"L  c #7F6D21",
"P  c #444444",
"I  c #4C4C4C",
"U  c #545454",
"Y  c #5C5C5C",
"T  c #626262",
"R  c #696969",
"E  c #747474",
"W  c #7B7B7B",
"Q  c #83490D",
"!  c #905712",
"~  c #AA5C09",
"^  c #B25F08",
"/  c #816B17",
"(  c #896813",
")  c #806B1E",
"_  c #8C7517",
"`  c #897118",
"'  c #91771B",
"]  c #93791D",
"[  c #987B1D",
"{  c #BF6806",
"}  c #B97211",
"|  c #B77B1C",
" . c #806E23",
".. c #86742A",
"X. c #8C772A",
"o. c #907620",
"O. c #917A20",
"+. c #C66705",
"@. c #C86805",
"#. c #CB7005",
"$. c #C3730D",
"%. c #D17005",
"&. c #DC7203",
"*. c #D67A03",
"=. c #F57E01",
"-. c #A4841A",
";. c #C98217",
":. c #FF8600",
">. c #FF8C00",
",. c #EF9201",
"<. c #FF9300",
"1. c #FF9C01",
"2. c #FF9709",
"3. c #FF9A0A",
"4. c #FFA500",
"5. c #FFAA01",
"6. c #FFA40B",
"7. c #FFA90C",
"8. c #FFB300",
"9. c #FFBB00",
"0. c #FFB30B",
"q. c #FFB80B",
"w. c #FFAE14",
"e. c #FFA419",
"r. c #FFAC1A",
"t. c #FFBD14",
"y. c #FFB71C",
"u. c #DA9B26",
"i. c #FFB722",
"p. c #FFBB27",
"a. c #FFC100",
"s. c #FFC20B",
"d. c #FFCB0B",
"f. c #FFC31E",
"g. c #FFCB27",
"h. c #FFC62B",
"j. c #FFCB2C",
"k. c #FFD32E",
"l. c #FFDA2C",
"z. c #FFC937",
"x. c #FFD530",
"c. c #FFE430",
"v. c #FFE63E",
"b. c #FFEC3C",
"n. c #FFC947",
"m. c #FFD64C",
"M. c #FFDA4C",
"N. c #FFE544",
"B. c #FFEA43",
"V. c #FFE24D",
"C. c #FFEE59",
"Z. c #FFF050",
"A. c #FFF15E",
"S. c #FEE66F",
"D. c #FFEE6D",
"F. c #FFE570",
"G. c #838383",
"H. c #8E8E8E",
"J. c #939393",
"K. c gray63",
"L. c #ACACAC",
"P. c #B2B2B2",
"I. c #BCBCBC",
"U. c #C5C5C5",
"Y. c #CBCBCB",
"T. c #D3D3D3",
"R. c #DEDEDE",
"E. c #E5E5E5",
"W. c #EDEDEC",
"Q. c #F0EFEC",
"!. c #F0F0ED",
"~. c #EFF0F0",
"^. c #F3F3F3",
"/. c #FBFBFB",
/* pixels */
"E.E.E.E.R.U.R.E.E.E.Y.T.E.E.R.R.E.E.E.E.R.U.E.E.E.R.T.E.E.E.E.E.",
"E.E.E.W r R P I.T.a Y s T E.P.R E.E.E.G.r T r I.E.a T I W E.E.E.",
"E.E.I.a E.E.E.E.Y J.E.E.P L.P.R E.E.U.r E.E.P.s E.s E.E.e W.E.E.",
"E.E.H.E E.E.E.E.e R.E.E.G.W P.R E.E.J.R E.E.E.& E.a H.R Y E.E.E.",
"E.E.J.T E.E.E.E.a U.E.E.E G.P.R E.E.K.U E.E.R.% E.a K.E R E.E.E.",
"E.E.Y.e U.E.Y.T.G.T R.Y.r U.P.R E.E.R.e I.E.W T E.a E.E.I U.E.E.",
"E.E.E.I.P P Y Y.E.E s s L.R.I.P U I L.I.P s R R.E.T R.E.P.G.E.E.",
"E.T.U.U.U.U.U.U.U.U.U.U.U.U.U.U.U.U.U.U.U.U.U.U.U.U.U.U.U.Y.T.E.",
"E.P.W.E.E.W.W.~.~.~.~.^.~.~.^.^.^.^.^.~.^.^.^.~.^.^.^.~.^.^.P.R.",
"R.L.W.F.S.S.F.F.S.S.S.S.F.S.F.F.F.F.F.F.F.F.F.F.F.F.F.F.F.^.L.R.",
"R.L.W.V.V.V.V.V.V.V.M.M.M.M.m.m.m.M.m.M.m.m.m.m.m.m.m.m.m.^.L.R.",
"R.L.W.l.l.l.l.k.k.x.x.k.k.j.k.j.j.j.j.j.j.j.j.g.j.j.j.j.j./.L.R.",
"R.L.Q.d.d.s.s.t.t.f.p.y.w.7.6.6.6.6.6.6.6.6.7.7.0.7.0.0.q./.L.R.",
"R.L.W.9.8.5.5.7.i.h.j.p.r.3.<.>.>.<.>.>.>.<.<.<.<.1.4.4.5.^.L.R.",
"R.L.!.a.9.9.q.g.c.b.B.B.k.w.3.<.<.<.<.<.<.1.1.1.4.4.4.5.4./.L.R.",
"R.L.!.9.8.5.0.g.b.Z.A.C.N.i.2.>.>.<.>.>.>.>.<.<.<.1.1.1.4./.L.R.",
"R.L.Q.8.5.4.7.g.v.C.S.D.V.p.2.>.>.>.:.>.:.:.:.>.>.>.<.<.1./.L.R.",
"R.L.!.,.*.#.~ $.} u.n.m.z.e.>.>.:.:.:.:.=.&.+.+.@.+.%.&.{ /.L.R.",
"R.L.W.M M M M M M M ! | ;.$.%.%.^ Q l l z l z z M M M M z /.L.R.",
"R.L.W.5 ; 1 < = = - , 5 * 3 ; $ % % % % % % * % % % ; $ O /.L.R.",
"R.L.W.        . + @ @ o . . X # # # .     X # # .         /.L.R.",
"R.L.!.- 5 7 b S [ -.-.( N k f d g g d d 6 9 9 9 9 9 7 9 6 /.L.R.",
"R.L.^.* & 4 b S ] [ _ C v 8 2 > 0 > * % * 0 > > 0 e 0 * % /.L.R.",
"R.L.~.* 0 t G ) ] ] / B j 8 2 2 > : * 0 0 r r a a u 0 * % /.L.R.",
"R.L.^.0 e t G L o.] A V h 4 2 0 > > > > e e r a a u r 0 * /.L.R.",
"R.L.^.e r i H  .] ` C n h 8 3 3 e e e e r u a a u u r e 0 /.L.R.",
"R.L.^.e r p H L O.' L m x q : 0 e e e e e r a a a a a r e /.L.R.",
"R.L.^.u u a D J o.' Z V j y q q e a a r e e e u a a s u u /.L.R.",
"R.L.^.a u u c F J X...K G t w r u a a e 0 r u a a a u u r /.L.R.",
"R.L./.^./.^./././././././././././.^.^.~.W.W.E.E.E.E.E.W.~.^.P.R.",
"E.U.P.L.L.L.L.L.L.L.L.L.L.L.L.L.L.L.L.L.L.L.L.L.L.L.L.L.L.P.U.E.",
"E.E.R.R.R.R.R.R.R.R.R.R.R.R.R.R.R.R.R.R.R.R.R.R.R.R.R.R.R.R.R.E."
};
