/* XPM */
static const char *colscheme[] = {
/* columns rows colors chars-per-pixel */
"32 32 175 2",
"   c #040403",
".  c #0C0A05",
"X  c #0C0D0D",
"o  c #110D02",
"O  c #120E09",
"+  c #151205",
"@  c #1A1605",
"#  c #0F1010",
"$  c #1A1714",
"%  c #171817",
"&  c #1C1C1C",
"*  c #2E1E0D",
"=  c #301E0C",
"-  c #221C15",
";  c #221F1D",
":  c #1F201F",
">  c #3F260F",
",  c #2B2114",
"<  c #23211C",
"1  c #28241D",
"2  c #2D291B",
"3  c #342212",
"4  c #3A2512",
"5  c #3D2B17",
"6  c #302B19",
"7  c #3D2C1A",
"8  c #242424",
"9  c #282622",
"0  c #2C2A23",
"q  c #272828",
"w  c #2B2B2B",
"e  c #363225",
"r  c #3A3522",
"t  c #31302E",
"y  c #39362C",
"u  c #3C382B",
"i  c #333333",
"p  c #3D3D3D",
"a  c #442C14",
"s  c #4A3111",
"d  c #47321D",
"f  c #433918",
"g  c #483D19",
"h  c #543C12",
"j  c #6C3E0E",
"k  c #703E0C",
"l  c #413C29",
"z  c #4D4017",
"x  c #4F4318",
"c  c #554115",
"v  c #554816",
"b  c #5A4E1F",
"n  c #5F511D",
"m  c #73410D",
"M  c #7D450B",
"N  c #6A4E11",
"B  c #645317",
"V  c #61521A",
"C  c #705C15",
"Z  c #7A5F18",
"A  c #7D6917",
"S  c #7B641A",
"D  c #4F4524",
"F  c #534926",
"G  c #5A4E23",
"H  c #5F5226",
"J  c #745F20",
"K  c #736425",
"L  c #7F6D21",
"P  c #434343",
"I  c #4B4B4B",
"U  c #555555",
"Y  c #5D5D5D",
"T  c #646464",
"R  c #6B6B6B",
"E  c gray45",
"W  c #7B7B7B",
"Q  c #83490D",
"!  c #905712",
"~  c #AA5C09",
"^  c #B25F08",
"/  c #816B17",
"(  c #896813",
")  c #806B1E",
"_  c #8C7517",
"`  c #897118",
"'  c #91771B",
"]  c #93791D",
"[  c #987B1D",
"{  c #BF6806",
"}  c #B97211",
"|  c #B77B1C",
" . c #806E23",
".. c #86742A",
"X. c #8C772A",
"o. c #907620",
"O. c #917A20",
"+. c #C66705",
"@. c #C86805",
"#. c #CB7005",
"$. c #C3730D",
"%. c #D17005",
"&. c #DC7203",
"*. c #D67A03",
"=. c #F57E01",
"-. c #A4841A",
";. c #A98820",
":. c #C98217",
">. c #FF8600",
",. c #FF8C00",
"<. c #EF9201",
"1. c #FF9300",
"2. c #FF9C01",
"3. c #FF9709",
"4. c #FFA500",
"5. c #FFAA01",
"6. c #FFA40B",
"7. c #FFA90C",
"8. c #FFB300",
"9. c #FFBB00",
"0. c #FFB30B",
"q. c #FFB80B",
"w. c #FFAE14",
"e. c #FFA419",
"r. c #FFAC1A",
"t. c #FFBD14",
"y. c #FFB71C",
"u. c #DA9B26",
"i. c #FFB722",
"p. c #FFBB27",
"a. c #FFC100",
"s. c #FFC20B",
"d. c #FFCB0B",
"f. c #FFC31E",
"g. c #FFC020",
"h. c #FFCB27",
"j. c #FFC62B",
"k. c #FFCB2C",
"l. c #FFD32E",
"z. c #FFDA2C",
"x. c #FFC937",
"c. c #FFD530",
"v. c #FFE430",
"b. c #FFEC3C",
"n. c #FFC947",
"m. c #FFD64C",
"M. c #FFDA4C",
"N. c #FFE544",
"B. c #FFEA43",
"V. c #FFE24D",
"C. c #FFEE59",
"Z. c #FFF050",
"A. c #FFF15E",
"S. c #FEE66F",
"D. c #FFEE6D",
"F. c #FFE570",
"G. c #828282",
"H. c #8C8C8C",
"J. c gray57",
"K. c gray61",
"L. c #A7A7A7",
"P. c #ABABAB",
"I. c #B4B4B4",
"U. c #BEBEBE",
"Y. c #C3C3C3",
"T. c #CCCCCC",
"R. c #D7D7D7",
"E. c #DEDEDE",
"W. c #E5E6E6",
"Q. c #EDEDEC",
"!. c #F0EFEC",
"~. c #F0F0ED",
"^. c #EFF0F0",
"/. c #F3F3F3",
"(. c #FBFBFB",
/* pixels */
"E.W.E.E.R.U.R.E.E.E.Y.R.E.E.E.R.E.E.E.E.R.Y.E.W.E.T.T.E.E.E.E.E.",
"E.E.E.W q R P I.T.i U p Y E.P.T E.E.E.G.w Y w I.W.i Y I E W.E.E.",
"E.E.I.i E.E.W.R.Y J.E.E.P L.P.T E.E.U.w E.E.P.p E.i E.W.8 E.W.E.",
"E.E.G.E E.E.E.W.w T.E.E.G.E P.T W.E.J.T E.E.E.% E.i H.T Y E.E.E.",
"E.E.H.Y E.E.E.E.i U.E.E.R G.P.T E.E.K.U E.E.R.% W.i K.R R W.E.E.",
"W.E.T.8 U.E.T.T.W Y R.T.w Y.P.T E.E.R.q I.E.W Y E.i E.E.I I.E.E.",
"E.E.E.I.P I U Y.E.E p p L.E.I.P I I L.I.P p T R.E.Y R.E.I.W E.E.",
"R.T.U.U.U.U.U.U.U.U.U.U.U.U.U.U.U.U.U.U.U.Y.U.U.U.U.U.U.U.Y.T.E.",
"R.P./.Q.Q.Q.Q.Q.Q.^.^.^./.^././.^./.^./././././././././././.P.R.",
"R.P.W.S.S.S.S.S.F.F.S.S.S.S.S.S.F.F.F.F.S.F.S.S.F.F.F.F.S./.L.R.",
"R.L.Q.V.V.V.V.V.V.M.M.V.M.M.M.M.M.m.M.M.m.m.m.m.m.m.m.m.M./.L.R.",
"R.L.Q.z.z.z.z.l.l.c.c.c.l.k.k.k.k.k.k.k.j.k.k.k.k.k.k.k.x./.L.R.",
"R.L.Q.d.d.s.s.t.t.g.f.y.w.7.6.6.7.6.6.6.6.7.7.7.7.0.q.q.q.(.L.R.",
"R.L.Q.9.8.5.5.7.i.j.k.p.r.3.,.,.,.,.,.,.,.1.1.1.2.2.2.4.5./.L.R.",
"R.L.~.a.9.9.q.h.v.b.B.B.l.r.3.1.1.1.1.1.1.2.2.2.2.4.4.4.4.(.L.R.",
"R.L.!.9.8.5.0.h.b.Z.A.A.N.i.3.1.,.,.,.,.,.,.1.1.1.2.2.4.2.(.L.R.",
"R.L.!.8.5.5.7.h.N.C.D.D.V.p.3.,.,.>.,.>.>.>.,.,.,.,.1.1.2.(.L.R.",
"R.L.~.<.*.@.~ $.} u.n.m.x.e.,.,.,.>.>.>.=.&.+.+.@.+.%.&.{ (.L.R.",
"R.L.!.M M M M M M M ! | :.$.#.%.^ Q j m k j k k M M M M k (.L.R.",
"R.L.Q.3 - , > * * = 3 3 - - < % % % % % % % & % % % - $ O (.L.R.",
"R.L.Q.        . + @ @ o . . X # # # X     X # # .         (.L.R.",
"R.L.~.= 3 5 c Z [ ;.-.( N h s a d d a > 4 7 7 7 7 7 5 7 4 (.L.R.",
"R.L./.% & 2 x S ] [ _ C z 6 < : 8 ; & % & 8 ; : 8 q 8 & % (.L.R.",
"R.L./.& 8 e b ) ' ' / B g 6 < 8 : : & 8 8 w t t i t 8 & % (.L.R.",
"R.L.^.q q e G L O.' A V f 2 < : : : : : q q w i i t w 8 & (.L.R.",
"R.L./.w w y H  .o.` C v f 6 1 1 8 q w q w w i i t i w q 8 (.L.R.",
"R.L./.q w u G  .[ '  .n f 1 < 8 q w 8 8 q w i i i i i i q (.L.R.",
"R.L./.t i y D J o.' Z n D e 9 9 q i i t w q q t i i i i t (.L.R.",
"R.L./.i t i l F J X...K G r 0 w w i i w 8 w i i i i t w w /.P.R.",
"R.P.(./././.(.(.(.(.(.(.(.(.(.(.(./.^.^.Q.Q.W.W.W.W.W.Q.^./.P.R.",
"E.Y.P.L.L.L.L.L.L.L.L.L.L.L.L.L.L.L.L.L.L.L.L.L.L.L.L.L.L.P.Y.E.",
"E.E.R.R.R.R.R.R.R.R.R.R.R.R.R.R.R.R.R.R.R.R.R.R.R.R.R.R.R.R.E.E."
};
