/* XPM */
static char *current[]={
"32 32 16 1",
". c None",
"c c #c0c0c0",
"h c #d9bcb5",
"l c #debaaf",
"d c #e2b8a9",
"f c #e6b6a3",
"a c #e9b49c",
"m c #ecb195",
"b c #eeaf8e",
"n c #f1ac86",
"e c #f5a674",
"i c #f7a369",
"j c #f99f5d",
"k c #fb9a4e",
"g c #fd933a",
"# c #ff8000",
"................................",
"................................",
".................#########......",
"................###########.....",
".................##########.....",
"......................####......",
".....................####.......",
"....................####........",
"..........a########bc#..........",
"........d###########d...........",
".......a############e...........",
"......a#######fg#####...........",
".....h#######d.a#####...........",
".....i######j...k###j...........",
"....l#######m...l###l...........",
"....n#######d...............##..",
"....i#######...............####.",
"....########.....k#n......#####.",
"....########....b##g.....######.",
"....########...h####....#######.",
"....i#######f..i###k...####.###.",
"....a#######gle####b..####..###.",
".....i#############..####...###.",
"....#cj##########gl.####....###.",
"...###.a#######b...####......#..",
"..####............####..........",
".####............####...........",
"..#.............####............",
"...............####.............",
"..............####..............",
"...............#................",
"................................"};
