/* XPM */
static const char *current[] = {
/* columns rows colors chars-per-pixel */
"32 32 247 2",
"   c black",
".  c #020202",
"X  c gray1",
"o  c gray2",
"O  c #060606",
"+  c #070707",
"@  c #0E0E0E",
"#  c #101010",
"$  c gray7",
"%  c #1B1B1B",
"&  c #1D1D1D",
"*  c #202020",
"=  c gray13",
"-  c gray14",
";  c #272727",
":  c #2F2F2F",
">  c gray21",
",  c gray22",
"<  c #3C3C3C",
"1  c gray24",
"2  c #414141",
"3  c gray26",
"4  c #434343",
"5  c gray27",
"6  c #464646",
"7  c gray28",
"8  c #535353",
"9  c gray33",
"0  c gray34",
"q  c #585858",
"w  c #5D5D5D",
"e  c #606060",
"r  c gray40",
"t  c #6C6C6C",
"y  c gray45",
"u  c #747474",
"i  c #7E7E7E",
"p  c #E7921A",
"a  c #EA9E32",
"s  c #E89F38",
"d  c #EAA139",
"f  c #E8A13C",
"g  c #E9A23E",
"h  c #ECA43F",
"j  c #FFAB33",
"k  c #FDAA34",
"l  c #FEAB36",
"z  c #FDAC38",
"x  c #FEAC38",
"c  c #FDAC3A",
"v  c #FEAD3A",
"b  c #FBAC3D",
"n  c #FEAF3D",
"m  c #FEB03F",
"M  c #EAA644",
"N  c #ECA744",
"B  c #E7A74C",
"V  c #E8A74A",
"C  c #E7A84F",
"Z  c #EEAA4A",
"A  c #E8A84D",
"S  c #F2AD49",
"D  c #F1AE4F",
"F  c #FEB142",
"G  c #FEB143",
"H  c #FEB245",
"J  c #FEB447",
"K  c #FDB34A",
"L  c #FDB44B",
"P  c #FDB44D",
"I  c #FDB54F",
"U  c #E9AA50",
"Y  c #E5AC58",
"T  c #E7AC58",
"R  c #EBAE58",
"E  c #FDB752",
"W  c #FDB753",
"Q  c #FAB655",
"!  c #FAB657",
"~  c #FAB757",
"^  c #FBB856",
"/  c #FDB854",
"(  c #FDB957",
")  c #FAB758",
"_  c #FAB759",
"`  c #F9B85B",
"'  c #FDBB59",
"]  c #FDBA5B",
"[  c #FDBB5C",
"{  c #FDBC5E",
"}  c #FDBC5F",
"|  c #DEB375",
" . c #DDB47B",
".. c #E5B064",
"X. c #EBB363",
"o. c #EEB666",
"O. c #ECB568",
"+. c #FCBC60",
"@. c #FCBD62",
"#. c #FCBE63",
"$. c #F9BC65",
"%. c #FABE65",
"&. c #FCBE66",
"*. c #FCBF67",
"=. c #F7BE6A",
"-. c #FCBF68",
";. c #FCBF69",
":. c #E6B876",
">. c #EDBD76",
",. c #E0B67B",
"<. c #E2B97D",
"1. c #E1B87F",
"2. c #E8BC7E",
"3. c #FCC06C",
"4. c #FCC26D",
"5. c #FCC16E",
"6. c #FCC26F",
"7. c #FCC270",
"8. c #FCC373",
"9. c #FCC374",
"0. c #FBC477",
"q. c #FCC475",
"w. c #FCC476",
"e. c #FAC479",
"r. c #FBC579",
"t. c #FBC67A",
"y. c #FBC67B",
"u. c #FBC67C",
"i. c #FBC77D",
"p. c #FBC77E",
"a. c #FBC87F",
"s. c #888888",
"d. c #898989",
"f. c gray57",
"g. c #A0A0A0",
"h. c #A2A2A2",
"j. c #A4A4A4",
"k. c gray66",
"l. c gray69",
"z. c #B1B1B1",
"x. c #B4B4B4",
"c. c #B9B9B9",
"v. c #BBBBBB",
"b. c #DFB984",
"n. c #E3BB81",
"m. c #E7BF86",
"M. c #E1BE89",
"N. c #E6BF88",
"B. c #EEC180",
"V. c #EDC183",
"C. c #EAC38B",
"Z. c #E9C38D",
"A. c #FBC880",
"S. c #FBC982",
"D. c #FBC983",
"F. c #FBCB86",
"G. c #FBCB87",
"H. c #F9CA89",
"J. c #FBCB88",
"K. c #FACC8B",
"L. c #F8CC8C",
"P. c #FACC8C",
"I. c #FACD8E",
"U. c #FACE8F",
"Y. c #E6C390",
"T. c #E3C395",
"R. c #E9C490",
"E. c #E9C694",
"W. c #ECCB9B",
"Q. c #EFCD9D",
"!. c #F1CC96",
"~. c #FACE90",
"^. c #FACF92",
"/. c #F0CE9D",
"(. c #FAD094",
"). c #FAD095",
"_. c #FAD29A",
"`. c #FAD29B",
"'. c #FAD49A",
"]. c #F9D29D",
"[. c #FAD59E",
"{. c #E6CAA2",
"}. c #EFCFA1",
"|. c #E6CDA9",
" X c #EFD1A7",
".X c #E7D0AF",
"XX c #EFD3AA",
"oX c #EED3AD",
"OX c #F0D1A4",
"+X c #FAD6A2",
"@X c #FAD6A3",
"#X c #FAD8A3",
"$X c #FBD8A5",
"%X c #F0D4AE",
"&X c #FADAAC",
"*X c #EFD6B1",
"=X c #E9D5B7",
"-X c #EDD5B4",
";X c #EED8B7",
":X c #EAD7BB",
">X c #E8D6BD",
",X c #F0D7B4",
"<X c #F7DCB4",
"1X c #FADDB4",
"2X c #FADEB5",
"3X c #FBDEB5",
"4X c #FADFB8",
"5X c #FBE1BC",
"6X c gray77",
"7X c #C5C5C5",
"8X c #CECECE",
"9X c gray81",
"0X c gray84",
"qX c #D8D8D8",
"wX c #DADADA",
"eX c gray86",
"rX c #DDDDDD",
"tX c #DFDFDF",
"yX c #EFDCC3",
"uX c #E6DDCF",
"iX c #E6DFD4",
"pX c #E7DFD5",
"aX c #FBE4C3",
"sX c #F9E3C4",
"dX c #FBE6C7",
"fX c #FBE6C9",
"gX c #FBE8CC",
"hX c #E6E2DD",
"jX c #E7E3DD",
"kX c #E7E3DE",
"lX c #E7E4DF",
"zX c #FBE9D1",
"xX c #FBEAD2",
"cX c #FBEDD7",
"vX c #FCEDD6",
"bX c #FCEDDC",
"nX c #FCEFDF",
"mX c #E1E1E1",
"MX c gray89",
"NX c #E6E4E0",
"BX c #E7E5E3",
"VX c gray90",
"CX c #E6E6E6",
"ZX c #FCF0E1",
"AX c #FDF2E4",
"SX c #FDF6ED",
"DX c #FDF7EE",
/* pixels */
"CXCXCXCXCXCXCXCXCXCXCXCXCXCXCXCXCXCXCXCXCXCXCXCXCXCXCXCXCXCXCXCX",
"CXCXCXCXCXCXCXCXCXCXCXCXCXCXCXCXCXCXCXCXCXCXCXCXCXCXCXCXCXCXCXCX",
"CXCX6XCXCXCXCXCXCXCXCXCXCXCXCXCXCXk.r 1 ; 7 y 8XCXCXCXCXCXCXCXCX",
"CX0Xh.0XCXCXCXCXCXCXCXCXCXCXCXqX0   @ , 8 : + o f.CXCXCXCXCXCXCX",
"CXx.h.x.CXCXCXCXCXCXCXCXCXCXCX6   w rXCXCXCXwXw u CXCXCXCXCXCXCX",
"CXCXh.CXCXCXCXCXCXCXCXCXCXCXj.  6 CXCXCXCXCXCXCXeXCXCXCXCXCXCXCX",
"CXCXh.CXCXCXCXCXCXCXCXCXCXCX3   c.CXCXCXCXCXCXCXCXCXCXCXCXCXCXCX",
"CXCXh.CXCXCXCXCXCXCXCXCXCXCX& O VXCXCXCXCXCXCXCXCXCXCXCXCXCXCXCX",
"CXCXh.CXCXCXCXCXCXCXCXCXCXtX. - CXCXCXCXCXCXCXCXCXCXCXCXCXCXCXCX",
"CXh.s.CXCXCXCXCXCXCXCXCXCXmXX * CXCXCXCXCXCXCXCXCXCXCXCXCXCXCXCX",
"CXCXh.CXCXCXCXCXCXCXCXCXCXCX= o MXCXCXCXCXCXCXCXCXCXCXCXCXCXCXCX",
"CXCXh.CXCXCXCXCXCXCXCXCXCXCX7   z.CXCXCXCXCXCXCXCXCXCXCXCXCXCXCX",
"CXCXh.CXCXCXCXCXCXCXCXCXCXCXl.  < CXCXCXCXCXCXCX9XCXCXCXCXCXCXCX",
"CXCXh.CXCXCXCXCXCXCXCXCXCXCXCX9   5 9XCXCXCX7X2 y CXCXCXCXCXCXCX",
"CXh.s.CXCXCXCXCXCXCXCXCXCXCXCXmXt X   % > $   # g.CXCXCXCXCXCXCX",
"CXCXh.CX..iXCXCXCXCXCXCXCXCXCXCXCXv.i q 4 e d.eXCXCXCXCXCXCXCXCX",
"CXCXh.CXs |.CXCXCXCXCXCXCXCXCXCX.X| Y :.pXCXCXCXCXCXCXCXCXCXCXCX",
"CXCXh.CXU N.CXCXCXCXCXCXCXCXCXb.B !.sXY.R >XCXCXCXCXCXCXCXCXCXCX",
"CXCXh.CXo.C CXCXCXCXCXCXCXCX .A <XxXZXDXyXX.jXCXCXCXCXCXCXCXCXCX",
"CXh.s.CX=.p hXCXCXCXCXCXCX,.V ].1XdXcXAXSXM.R.CXCXCXCXCXCXCXCXCX",
"CXCXh.CX$.f {.CXCXCXCXCXZ.Z L._.#X4XfXvXnXbXO.lXCXCXCXCXCXCXCXCX",
"CXCXh.CX` D T CXCXCXCXE.N e.G.I.).$X3XaXgXzX<.=XCXCXCXCXCXCXCXCX",
"CXCXh.CXQ z g m.NXuX2.h %.9.y.S.J.~.[.&X2X5XT.C.CXCXCXCXCXCXCXCX",
"CXCXh.CXQ j b M a d S ^ } *.5.w.i.D.K.^.'.+X@X>.jXCXCXCXCXCXCXCX",
"CXh.s.CX~ j j j k c G L W ] @.;.7.r.a.F.P.(.`.n.:XCXCXCXCXCXCXCX",
"CXCXh.CX) j j j j j l n H P / [ #.3.8.t.A.J.U.1.W.CXCXCXCXCXCXCX",
"CXCXh.CX! j j j j j j j x m J I ( { &.4.q.u.S.H.V.CXCXCXCXCXCXCX",
"CXCXh.CX_ j j j j j j j j j v F K E ' +.-.6.0.p.B.kXCXCXCXCXCXCX",
"CXCXh.CXoX/./././././././././.Q.}.OX XXX%X*X,X;X-XBXCXx.0XCXCXCX",
"CXCXh.h.h.h.h.h.s.h.h.h.h.s.h.h.h.h.s.h.h.h.h.s.h.h.h.h.h.6XCXCX",
"CXCXCXCXCXCXCXCXh.CXCXCXCXh.CXCXCXCXh.CXCXCXCXh.CXCXCXx.0XCXCXCX",
"CXCXCXCXCXCXCXCXCXCXCXCXCXCXCXCXCXCXCXCXCXCXCXCXCXCXCXCXCXCXCXCX"
};
