/* XPM */
static const char *exitt[] = {
/* columns rows colors chars-per-pixel */
"32 32 139 2",
"   c #301A14",
".  c #3F1C18",
"X  c #440D0D",
"o  c #4C0E0E",
"O  c #530F0F",
"+  c #451D19",
"@  c #581111",
"#  c #551D1B",
"$  c #581D1C",
"%  c #660F0F",
"&  c #611313",
"*  c #6E1616",
"=  c #671E1C",
"-  c #6B1C1A",
";  c #7D1313",
":  c #791F1D",
">  c #860B0A",
",  c #9C170E",
"<  c #9C180E",
"1  c #8C1313",
"2  c #841915",
"3  c #851B18",
"4  c #8E1B1B",
"5  c #9C1717",
"6  c #941B13",
"7  c #981C12",
"8  c #931A1A",
"9  c #9B1919",
"0  c #AB0805",
"q  c #B00000",
"w  c #B90000",
"e  c #A0170D",
"r  c #AA150C",
"t  c #A3190F",
"y  c #AA1D12",
"u  c #A41B1B",
"i  c #AE1B1B",
"p  c #B21815",
"a  c #B21C1C",
"s  c #BA1D1D",
"d  c #882016",
"f  c #83241C",
"g  c #A62016",
"h  c #AE241A",
"j  c #B6281E",
"k  c #8C2929",
"l  c #932726",
"z  c #912E2E",
"x  c #8D352D",
"c  c #993636",
"v  c #963937",
"b  c #913E39",
"n  c #9A3A38",
"m  c #BA2B21",
"M  c #B52B28",
"N  c #A33432",
"B  c #B93636",
"V  c #BF3F3F",
"C  c #C20000",
"Z  c #CC0000",
"A  c #D40000",
"S  c #DE0000",
"D  c #E70000",
"F  c #EF0000",
"G  c #F30101",
"H  c #F50908",
"J  c #C52E2E",
"K  c #C53A3A",
"L  c #C83A3A",
"P  c #BD4832",
"I  c #C34426",
"U  c #CB452A",
"Y  c #D1482F",
"T  c #C04037",
"R  c #C54C3C",
"E  c #D44B33",
"W  c #DA4C38",
"Q  c #D1543D",
"!  c #974742",
"~  c #9E4343",
"^  c #A14646",
"/  c #A44C4C",
"(  c #B64343",
")  c #BF4949",
"_  c #AD514F",
"`  c #C64646",
"'  c #CB4444",
"]  c #CF4E4E",
"[  c #CE5145",
"{  c #CF5248",
"}  c #DC5142",
"|  c #D35943",
" . c #D7544B",
".. c #DC554D",
"X. c #D25E48",
"o. c #C05151",
"O. c #CB5151",
"+. c #D05050",
"@. c #DF5750",
"#. c #D65B5B",
"$. c #E3594E",
"%. c #E35B55",
"&. c #D66250",
"*. c #D86656",
"=. c #DC6C5B",
"-. c #DB6E65",
";. c #D56768",
":. c #D46A6A",
">. c #DB7269",
",. c #DB7E6F",
"<. c #DF7E70",
"1. c #DA7A7B",
"2. c #E16767",
"3. c #EB6E68",
"4. c #EB7272",
"5. c #EE7B7B",
"6. c #F67E7E",
"7. c #D98071",
"8. c #DF887B",
"9. c #E68674",
"0. c #E38F83",
"q. c #F78585",
"w. c #E09386",
"e. c #EA9486",
"r. c #E3948A",
"t. c #EB978F",
"y. c #E99C93",
"u. c #F09A93",
"i. c #EFA99E",
"p. c #F3A19C",
"a. c #CDB8B8",
"s. c #F2ADA5",
"d. c #F6AFAB",
"f. c #D5C4C4",
"g. c #DAC6C6",
"h. c #DCC9C9",
"j. c #DBD4D2",
"k. c #E2DBDB",
"l. c #E6E6E6",
/* pixels */
"l.l.l.l.l.l.l.l.l.l.l.l.l.l.l.l.l.l.l.l.l.l.l.l.l.l.l.l.l.l.l.l.",
"l.l.l.l.l.l.l.l.l.l.l.l.l.l.l.l.l.l.l.l.l.l.l.l.l.l.l.l.l.l.l.l.",
"l.l.l.l.l.l.l.l.l.l.l.l.l.l.l.l.l.l.l.l.l.l.l.l.l.l.l.l.l.l.l.l.",
"l.l.l.l.l.l.l.l.l.l.l.l.l.l.l.l.l.l.l.l.l.l.l.l.l.l.l.l.l.l.l.l.",
"l.l.l.l.l.l.l.k.) ) h.l.l.l.l.l.l.l.l.l.l.h.P o.k.l.l.l.l.l.l.l.",
"l.l.l.l.l.l.k.B p ` a h.l.l.l.l.l.l.l.l.h.s T M B k.l.l.l.l.l.l.",
"l.l.l.l.l.k.B 0 e.d.j a h.l.l.l.l.l.l.h.a m p.s.0 B k.l.l.l.l.l.",
"l.l.l.l.k.B 0 9.6.6.s.j i h.l.l.l.l.h.a j u.6.q.s.0 B k.l.l.l.l.",
"l.l.l.l.( 0 -.4.4.4.4.i.h 5 g.l.l.f.u j t.4.4.4.5.p.0 ( l.l.l.l.",
"l.l.l.l.M r =.2.2.2.2.2.y.l ; a.a.1 h r.2.2.2.2.-.d.r M l.l.l.l.",
"l.l.l.l.h.u y *.#.#.#.#.*.r.f % ; u 0.#.#.#.#.#.y.h u h.l.l.l.l.",
"l.l.l.l.l.h.u y &.+.+.+.O.O.8.d 7 8.+.+.+.+. .<.i u h.l.l.l.l.l.",
"l.l.l.l.l.l.h.u y X.' ' ' ' ` 7.,.' ' ' ' ' =.g 9 h.l.l.l.l.l.l.",
"l.l.l.l.l.l.l.h.9 t | L L L K K K L L #.1.w.u 9 h.l.l.l.l.l.l.l.",
"l.l.l.l.l.l.l.l.h.5 t Q J J J ] ;.:.;.V I e 5 h.l.l.l.l.l.l.l.l.",
"l.l.l.l.l.l.l.l.l.g.9 , X.K K s q q q I , 8 h.l.l.l.l.l.l.l.l.l.",
"l.l.l.l.l.l.l.l.l.f.9 , U w w w w w w U 7 8 h.l.l.l.l.l.l.l.l.l.",
"l.l.l.l.l.l.l.l.h.8 < U C C C C w C C C U < 8 g.l.l.l.l.l.l.l.l.",
"l.l.l.l.l.l.l.h.4 6 Y Z Z Z Z C C Z Z Z Z E 6 8 g.l.l.l.l.l.l.l.",
"l.l.l.l.l.l.h.4 6 E A A A A Z P P A A A A A E 6 4 g.l.l.l.l.l.l.",
"l.l.l.l.l.g.4 6 W D S S S S R     R S S S S S } 8 4 h.l.l.l.l.l.",
"l.l.l.l.f.4 8 } D D D D D [ . o X + { D D D D D ..8 l h.l.l.l.l.",
"l.l.l.l.x x $.G G G F F  .+ O f.f.o +  .F G F G F %._ ^ l.l.l.l.",
"l.l.l.l.! f -.H G G G ..# O f.l.l.f.O $ @.G G G H >.l / l.l.l.l.",
"l.l.l.l.j.n > >.H G %.= @ f.l.l.l.l.f.@ - %.H H -.> c k.l.l.l.l.",
"l.l.l.l.l.j.v f >.%.: & f.l.l.l.l.l.l.f.- c 3.>.> c k.l.l.l.l.l.",
"l.l.l.l.l.l.j.b 2 3 * g.l.l.l.l.l.l.l.l.f.z N 1 c k.l.l.l.l.l.l.",
"l.l.l.l.l.l.l.j.~ k g.l.l.l.l.l.l.l.l.l.l.f.z ~ k.l.l.l.l.l.l.l.",
"l.l.l.l.l.l.l.l.l.l.l.l.l.l.l.l.l.l.l.l.l.l.l.l.l.l.l.l.l.l.l.l.",
"l.l.l.l.l.l.l.l.l.l.l.l.l.l.l.l.l.l.l.l.l.l.l.l.l.l.l.l.l.l.l.l.",
"l.l.l.l.l.l.l.l.l.l.l.l.l.l.l.l.l.l.l.l.l.l.l.l.l.l.l.l.l.l.l.l.",
"l.l.l.l.l.l.l.l.l.l.l.l.l.l.l.l.l.l.l.l.l.l.l.l.l.l.l.l.l.l.l.l."
};
