/* XPM */
static const char *follow[] = {
/* columns rows colors chars-per-pixel */
"32 32 153 2",
"   c #054B05",
".  c #015C01",
"X  c #066106",
"o  c #026E02",
"O  c #0A690A",
"+  c #017201",
"@  c #007C00",
"#  c #097709",
"$  c #0A7E0A",
"%  c #146B15",
"&  c #337E33",
"*  c #397639",
"=  c #406C43",
"-  c #437646",
";  c #4F7852",
":  c #517E54",
">  c #028402",
",  c #008C00",
"<  c #088808",
"1  c #019301",
"2  c #009E00",
"3  c #0A920A",
"4  c #19851A",
"5  c #19981A",
"6  c #00A300",
"7  c #02AC02",
"8  c #0AA50A",
"9  c #0AAD0A",
"0  c #02B202",
"q  c #01BB01",
"w  c #0CB30C",
"e  c #0BBC0B",
"r  c #2DA61C",
"t  c #2F872F",
"y  c #26882A",
"u  c #2F8B2F",
"i  c #249C23",
"p  c #2D942D",
"a  c #2B9C2C",
"s  c #328032",
"d  c #338D33",
"f  c #3A863A",
"g  c #369036",
"h  c #3C9E3C",
"j  c #23A222",
"k  c #28A327",
"l  c #2AA92F",
"z  c #3BA23B",
"x  c #459331",
"c  c #4DA639",
"v  c #03C003",
"b  c #04CF04",
"n  c #0BC20B",
"m  c #02D202",
"M  c #0ED50E",
"N  c #3E9F48",
"B  c #3EA748",
"V  c #3FAA48",
"C  c #4C8E4C",
"Z  c #479447",
"A  c #449B45",
"S  c #4C994C",
"D  c #55875C",
"F  c #5A855C",
"G  c #5B8E5E",
"H  c #5A905E",
"J  c #5C9D5C",
"K  c #609D5F",
"L  c #43A143",
"P  c #44A549",
"I  c #45AF4C",
"U  c #51AD47",
"Y  c #45B84D",
"T  c #59B24E",
"R  c #4FA652",
"E  c #46AD50",
"W  c #54A554",
"Q  c #57A957",
"!  c #5CA45D",
"~  c #52A85D",
"^  c #5BA95B",
"/  c #45BA50",
"(  c #56B45F",
")  c #5DB258",
"_  c #61A746",
"`  c #549D63",
"'  c #659C64",
"]  c #6A9B67",
"[  c #659269",
"{  c #69936C",
"}  c #709F6D",
"|  c #6F9771",
" . c #709D72",
".. c #709B78",
"X. c #56A260",
"o. c #58A265",
"O. c #58AD62",
"+. c #5DAC6A",
"@. c #5DB269",
"#. c #68A666",
"$. c #67AE67",
"%. c #6AA768",
"&. c #61AA6B",
"*. c #6CA96D",
"=. c #71A56E",
"-. c #61B26C",
";. c #6CB26C",
":. c #64A374",
">. c #76A472",
",. c #79A475",
"<. c #74A974",
"1. c #73A07B",
"2. c #7DA47C",
"3. c #71B571",
"4. c #76BE74",
"5. c #7FA388",
"6. c #83A483",
"7. c #86A987",
"8. c #8DAC8D",
"9. c #86A990",
"0. c #90AE90",
"q. c #8FB299",
"w. c #95B194",
"e. c #96B29F",
"r. c #9BB59B",
"t. c #9CB6A7",
"y. c #9BB4A8",
"u. c #A4BBA4",
"i. c #ACBFAC",
"p. c #A6BEB1",
"a. c #83C183",
"s. c #AEC0AE",
"d. c #B7CCAB",
"f. c #B0D1AF",
"g. c #ADC1B4",
"h. c #B2C4B4",
"j. c #B6C6B8",
"k. c #B8C7B8",
"l. c #B7C8BA",
"z. c #BBC9BC",
"x. c #BECBC8",
"c. c #C1CDC3",
"v. c #C5D0C6",
"b. c #C6D0CB",
"n. c #CAD3CA",
"m. c #CED6D5",
"M. c #D1D7D1",
"N. c #D3D9D3",
"B. c #D7DAD8",
"V. c #DBDEDC",
"C. c #DEE1DE",
"Z. c #DFE1E1",
"A. c #E6E6E6",
/* pixels */
"A.A.A.A.A.A.A.A.A.A.A.A.A.A.A.A.A.A.A.A.A.A.A.A.A.A.A.A.A.A.A.A.",
"A.A.A.A.A.A.A.A.A.A.A.A.A.A.A.A.A.A.A.A.A.A.A.A.A.A.A.A.A.A.A.A.",
"A.A.A.A.A.A.A.A.A.V.M.M.M.M.M.M.M.M.N.M.M.N.B.A.A.A.A.A.A.A.A.A.",
"A.A.A.A.A.A.A.A.A.z.2.=.=.=.%.$.O.O.( ( O.` p.A.A.A.A.A.A.A.A.A.",
"A.A.A.A.A.A.A.A.A.n.,.a.;.Q z k 6 q b m e o.z.A.A.A.A.A.A.A.A.A.",
"A.A.A.A.A.A.A.A.A.A.z.=.3.Q z k 2 7 q e B g.A.A.A.A.A.A.A.A.A.A.",
"A.A.A.A.A.A.A.A.A.A.Z.s.#.^ L a 1 6 7 l t.A.A.A.A.A.A.A.A.A.A.A.",
"A.A.A.A.A.A.A.A.A.A.A.C.r.! A p > , 5 9.V.A.A.A.A.A.A.A.A.A.A.A.",
"A.V.z.v.A.A.A.A.A.A.A.A.B.7.S d + $ ..M.A.A.A.A.A.A.A.A.A.A.A.A.",
"A.N.0.6.k.C.A.A.A.A.A.A.A.n. .f X H v.A.A.A.A.A.A.A.A.V.s.A.A.A.",
"A.M.8.] >.i.V.A.A.A.A.A.A.A.k.G - j.A.A.A.A.A.A.A.A.N.,.} C.A.A.",
"A.M.8.' a.=.r.M.A.A.A.A.A.A.C.l.k.C.A.A.A.A.A.A.A.c.} a.] C.A.A.",
"A.N.8.' ;.3.#.8.v.A.A.A.A.A.A.A.A.A.A.A.A.A.A.A.u.' ;.;.K C.A.A.",
"A.N.8.' R Q ^ ! 2.k.C.A.A.A.A.A.A.A.A.A.A.A.C.8.J ! W W J C.A.A.",
"A.N.0.' z z B A S { l.A.A.A.f.) 4.f.A.A.A.M.| C Z A h h W C.A.A.",
"A.N.8.` r j a p g x { B.A.A.T 3.3.U A.A.c.F * & t p i i W C.A.A.",
"A.N.8.J 6 6 1 < # X F V.A.A.c 3 r T A.A.c.:   . o @ 1 2 P C.A.A.",
"A.N.0.~ q 0 8 3 $ 1.V.A.A.A.d.x _ d.A.A.A.n.{ % + > 2 7 I C.A.A.",
"A.N.0.~ b n 9 5 q.Z.A.A.A.A.A.A.A.A.A.A.A.A.V.5.y , 6 q Y C.A.A.",
"A.N.0.O.M n l s.A.A.A.A.A.A.A.A.A.A.A.A.A.A.A.A.e.N 6 q / C.A.A.",
"A.N.w.+.e V x.A.A.A.A.A.A.A.Z.h.h.A.A.A.A.A.A.A.A.g.X.9 E C.A.A.",
"A.C.x.:.` m.A.A.A.A.A.A.A.A.l.; = h.A.A.A.A.A.A.A.A.b.:.o.C.A.A.",
"A.A.A.x.Z.A.A.A.A.A.A.A.A.v.[ *   D v.A.A.A.A.A.A.A.A.C.y.A.A.A.",
"A.A.A.A.A.A.A.A.A.A.A.A.N.5.C s . O ..N.A.A.A.A.A.A.A.A.A.A.A.A.",
"A.A.A.A.A.A.A.A.A.A.A.C.w.J Z u o @ 4 9.C.A.A.A.A.A.A.A.A.A.A.A.",
"A.A.A.A.A.A.A.A.A.A.A.u.#.^ x p > , 3 a t.A.A.A.A.A.A.A.A.A.A.A.",
"A.A.A.A.A.A.A.A.A.A.k.=.;.W h i 1 6 7 7 B g.Z.A.A.A.A.A.A.A.A.A.",
"A.A.A.A.A.A.A.A.A.n.,.a.;.W h j 2 0 v q w ` x.A.A.A.A.A.A.A.A.A.",
"A.A.A.A.A.A.A.A.A.k.2.>.<.<.<.*.&.-.-.@.+.:.g.A.A.A.A.A.A.A.A.A.",
"A.A.A.A.A.A.A.A.A.C.B.N.N.N.N.B.N.M.N.N.B.V.C.A.A.A.A.A.A.A.A.A.",
"A.A.A.A.A.A.A.A.A.A.A.A.A.A.A.A.A.A.A.A.A.A.A.A.A.A.A.A.A.A.A.A.",
"A.A.A.A.A.A.A.A.A.A.A.A.A.A.A.A.A.A.A.A.A.A.A.A.A.A.A.A.A.A.A.A."
};
