/* XPM */
static const char *follow[] = {
/* columns rows colors chars-per-pixel */
"32 32 150 2",
"   c #014C01",
".  c #015301",
"X  c #005B00",
"o  c #085009",
"O  c #0F5A0F",
"+  c #135B13",
"@  c #1B5C1B",
"#  c #006300",
"$  c #016B01",
"%  c #0B640C",
"&  c #007500",
"*  c #017B01",
"=  c #087209",
"-  c #0A7B0C",
";  c #146714",
":  c #156C16",
">  c #1D631D",
",  c #1C6D1C",
"<  c #107612",
"1  c #1C771C",
"2  c #245B24",
"3  c #216321",
"4  c #2D6F2D",
"5  c #257025",
"6  c #357335",
"7  c #347D34",
"8  c #3D743D",
"9  c #3D7B3D",
"0  c #427942",
"q  c #487F48",
"w  c #028302",
"e  c #028C03",
"r  c #0A830B",
"t  c #078F0C",
"y  c #0D880F",
"u  c #019302",
"i  c #009B00",
"p  c #059609",
"a  c #09910C",
"s  c #07980B",
"d  c #0A9A0D",
"f  c #0D8E11",
"g  c #128515",
"h  c #1A851A",
"j  c #1C8B1C",
"k  c #0D9411",
"l  c #149316",
"z  c #139C14",
"x  c #149318",
"c  c #1C941C",
"v  c #1A9C1B",
"b  c #259B1F",
"n  c #00A400",
"m  c #00AB00",
"M  c #0BA40D",
"N  c #0AA90B",
"B  c #00B300",
"V  c #01BB01",
"C  c #0AB50B",
"Z  c #15A415",
"A  c #16A816",
"S  c #1CA31B",
"D  c #25A21F",
"F  c #1D9721",
"G  c #268626",
"H  c #268826",
"J  c #288D28",
"K  c #209220",
"L  c #229B22",
"P  c #2C922C",
"I  c #2C9A2C",
"U  c #328532",
"Y  c #318B31",
"T  c #39863B",
"R  c #3E8D3E",
"E  c #2D9A30",
"W  c #369336",
"Q  c #349C34",
"!  c #3B923B",
"~  c #369839",
"^  c #3A9C3A",
"/  c #25A125",
"(  c #2CA32C",
")  c #34A234",
"_  c #35A339",
"`  c #3BA23B",
"'  c #00C400",
"]  c #03CB03",
"[  c #08C008",
"{  c #05D305",
"}  c #448644",
"|  c #438C43",
" . c #4B824B",
".. c #4E8E4E",
"X. c #409240",
"o. c #449C44",
"O. c #4A944A",
"+. c #4E9B4E",
"@. c #598F59",
"#. c #519451",
"$. c #549F54",
"%. c #5A9C5A",
"&. c #43A443",
"*. c #4BA44B",
"=. c #53A353",
"-. c #53A953",
";. c #5EA65E",
":. c #57AA59",
">. c #5BAA5B",
",. c #648E64",
"<. c #669F66",
"1. c #689D68",
"2. c #6F9D70",
"3. c #7E9F7E",
"4. c #65A465",
"5. c #63AD63",
"6. c #68A768",
"7. c #69AB69",
"8. c #6CB36C",
"9. c #71AB71",
"0. c #77A578",
"q. c #78AE78",
"w. c #75B674",
"e. c #75B975",
"r. c #7CB47D",
"t. c #7ABD7A",
"y. c #85BC7F",
"u. c #7FAF80",
"i. c #84A985",
"p. c #88A688",
"a. c #81B681",
"s. c #8CBD8C",
"d. c #91AC91",
"f. c #A5BEA6",
"g. c #A9BBA9",
"h. c #83C383",
"j. c #8DCA8D",
"k. c #93CE93",
"l. c #9DD39D",
"z. c #A2C2A4",
"x. c #B1C1B1",
"c. c #C1CBBE",
"v. c #C1CCC1",
"b. c #C1D0C1",
"n. c #C9D3C1",
"m. c #CED4CE",
"M. c #D0D5D0",
"N. c #D6D9D6",
"B. c #D8DAD3",
"V. c #DFDFDF",
/* pixels */
"V.V.V.V.V.V.V.V.V.V.V.V.V.V.V.V.V.V.V.V.V.V.V.V.V.V.V.V.V.V.V.V.",
"V.V.V.V.V.V.V.V.V.V.V.V.V.V.V.V.V.V.V.V.V.V.V.V.V.V.V.V.V.V.V.V.",
"V.V.V.V.V.V.V.V.V.V.V.V.V.V.V.N.m.N.V.V.V.V.V.V.V.V.V.V.V.V.V.V.",
"V.V.V.V.V.V.V.V.V.V.V.V.V.V.N.2.T 0.N.V.V.V.V.V.V.V.V.V.V.V.V.V.",
"V.V.V.V.V.V.V.V.V.V.V.V.V.V.p.: 8 1 i.V.V.V.V.V.V.V.V.V.V.V.V.V.",
"V.V.V.V.V.V.V.V.V.V.V.V.V.g.% 4 2 o < z.V.V.V.V.V.V.V.V.V.V.V.V.",
"V.V.V.V.V.V.V.V.V.V.V.V.v.5 5 8 @   % 5 b.V.V.V.V.V.V.V.V.V.V.V.",
"V.V.V.V.V.V.V.V.V.V.V.M.9 , } 7 > . . = W M.V.V.V.V.V.V.V.V.V.V.",
"V.V.V.V.V.V.V.V.V.V.N.,.; O.| U 1 X X $ - %.N.V.V.V.V.V.V.V.V.V.",
"V.V.V.V.V.V.V.V.V.V.p.O #.O.R U 1 # $ $ = - q.V.V.V.V.V.V.V.V.V.",
"V.V.V.V.V.V.V.V.V.g.O #.$.O.! Y 1 & & & - r g f.V.V.V.V.V.V.V.V.",
"V.V.V.V.V.V.V.V.v.3 ..5.$.o.! P h & * w w w y F n.V.V.V.V.V.V.V.",
"V.V.V.V.V.V.V.m.8 9 8.;.=.o.~ P j w w e e u a y ~ M.V.V.V.V.V.V.",
"V.V.V.V.V.V.N.,.4 e.7.>.*.&.Q I c e e i i i i s f :.N.V.V.V.V.V.",
"V.V.V.V.V.V.p.+ r.w.5.:.*.^ Q L x u i n n n n n d f u.V.V.V.V.V.",
"V.V.V.V.V.x.+ q.t.8.5.-.*.` ) / v i n m m B B m m z F z.V.V.V.V.",
"V.V.V.V.b.3 1.h.t.8.>.-.&.` ( / Z n m B V V V B B N z c b.V.V.V.",
"V.V.V.m.0  .k.h.t.8.>.-.&._ ( / A n m V ' ' ' ' B m M x _ m.V.V.",
"V.V.V.3.q l.j.h.e.8.>.-.&._ ( S A m B V ] { { ] [ C N S b e.V.V.",
"V.V.N.d. .>     . # X.*.&.) L S A m B V ] { C k a a t l b a.N.V.",
"V.V.V.N.m.v.v.x.6 7 :.*.&.E / Z Z m B V ' { { M I x.v.c.n.N.V.V.",
"V.V.V.V.V.V.V.,., 5.=.*.^ E b S Z n m B V ' ' C d :.V.V.V.V.V.V.",
"V.V.V.V.V.V.p.+ 6.;.+.o.^ I K L i i n B B B V B N k r.V.V.V.V.V.",
"V.V.V.V.V.g.O <.7.;.+.o.~ P c L e i i n m m m m n d z z.V.V.V.V.",
"V.V.V.V.c.2 @.9.4.%.+.X.W J j c e u u i n i i i i a l v v.V.V.V.",
"V.V.V.m.8 0 i.9.<.%.O.R Y G h j w w e i u u i i e w r x _ m.V.V.",
"V.V.V.y.0 s.r.9.4.%.#.| T U G H & w w r r u t r r w - h v e.V.V.",
"V.V.N.d. .> . . # # $ & * w w e e e p u p p k d s d d z D y.V.V.",
"V.V.V.N.m.v.v.v.v.v.v.v.v.v.v.v.v.v.v.v.n.v.v.v.x.v.v.c.n.B.V.V.",
"V.V.V.V.V.V.V.V.V.V.V.V.V.V.V.V.V.V.V.V.V.V.V.V.V.V.V.V.V.V.V.V.",
"V.V.V.V.V.V.V.V.V.V.V.V.V.V.V.V.V.V.V.V.V.V.V.V.V.V.V.V.V.V.V.V.",
"V.V.V.V.V.V.V.V.V.V.V.V.V.V.V.V.V.V.V.V.V.V.V.V.V.V.V.V.V.V.V.V."
};
