/* XPM */
static char *follow[]={
"32 32 4 1",
". c None",
"a c #00ff00",
"b c #303030",
"# c #ffffff",
"..............#.................",
"..............#aa...............",
"..............#aab..............",
"..............#aab..............",
"..............#aab..............",
"..............#aab..............",
"..............#aab..............",
"..............#aab..............",
"..............#aab..............",
"..............#aab..............",
"..............#aab..............",
"..............#aab..............",
"..............#aab..............",
"..............#aab..............",
"###############aab############..",
".aaaaaaaaaaaaaaaaaaaaaaaaaaaaaa.",
".aaaaaaaaaaaaaaaaaaaaaaaaaaaaaa.",
"..bbbbbbbbbbbbbaabbbbbbbbbbbbbbb",
"..............#aab..............",
"..............#aab..............",
"..............#aab..............",
"..............#aab..............",
"..............#aab..............",
"..............#aab..............",
"..............#aab..............",
"..............#aab..............",
"..............#aab..............",
"..............#aab..............",
"..............#aab..............",
"..............#aab..............",
"...............aab..............",
".................b.............."};
