/* XPM */
static char *gpx_import[]={
"32 32 2 1",
". c None",
"# c #000000",
"................................",
"................................",
"................................",
"................................",
".....####...#####..##.....##....",
"....######..######..##...##.....",
"...##...##..##..##...##.##......",
"...##.......##..##....###.......",
"...##..###..######...#####......",
"...##...##..#####....##.##......",
"....######..##......##...##.....",
".....####...##.....##.....##....",
"................................",
"................................",
"................................",
"................................",
"................................",
"..........##..##...##...........",
"..........##..###..##...........",
"..........##..###..##...........",
"..........##..####.##...........",
"..........##..##.####...........",
"..........##..##..###...........",
"..........##..##..###...........",
"..........##..##...##...........",
"................................",
"................................",
"................................",
"................................",
"................................",
"................................",
"................................"};
