/* XPM */
static const char *gpx_export[] = {
/* columns rows colors chars-per-pixel */
"32 32 207 2",
"   c #171818",
".  c #191919",
"X  c #1D1D1D",
"o  c #202121",
"O  c #2D2D2D",
"+  c gray19",
"@  c #313131",
"#  c #323232",
"$  c gray21",
"%  c #373737",
"&  c gray22",
"*  c #3A3A3A",
"=  c #3B3C3C",
"-  c #3C3D3D",
";  c gray24",
":  c #3E3E3E",
">  c #3F3F3F",
",  c #444444",
"<  c gray27",
"1  c #464646",
"2  c #474848",
"3  c gray29",
"4  c #4B4B4B",
"5  c #4C4C4C",
"6  c #4E4E4E",
"7  c #505151",
"8  c #515151",
"9  c #515252",
"0  c gray33",
"q  c gray34",
"w  c #5D5D5D",
"e  c #606060",
"r  c #606161",
"t  c gray38",
"y  c #646464",
"u  c #666767",
"i  c #686868",
"p  c #696A6A",
"a  c gray44",
"s  c #727272",
"d  c gray45",
"f  c #737474",
"g  c #747474",
"h  c gray46",
"j  c #767676",
"k  c #777777",
"l  c gray48",
"z  c #7C7C7C",
"x  c #808181",
"c  c #808584",
"v  c #818585",
"b  c #848787",
"n  c #868686",
"m  c gray53",
"M  c #858887",
"N  c #898989",
"B  c #8B8E8E",
"V  c gray55",
"C  c #8C8F8F",
"Z  c #8E8E8E",
"A  c #8E8F8F",
"S  c gray56",
"D  c #909090",
"F  c #929593",
"G  c #919494",
"H  c gray58",
"J  c #9B9B9B",
"K  c gray61",
"L  c gray62",
"P  c #A0A0A0",
"I  c gray63",
"U  c #A2A2A2",
"Y  c #A2A2A3",
"T  c gray64",
"R  c #A4A4A4",
"E  c #A5A5A5",
"W  c #A5A5A6",
"Q  c #A7A7A7",
"!  c #A6A7A8",
"~  c #A9A9A9",
"^  c #AAAAAA",
"/  c gray67",
"(  c #ABACAC",
")  c gray68",
"_  c #AEAEAE",
"`  c #AFAFAF",
"'  c #AFB0B0",
"]  c gray69",
"[  c #B0B1B1",
"{  c #B1B1B1",
"}  c #B1B2B2",
"|  c gray70",
" . c #B4B4B4",
".. c gray71",
"X. c #B6B6B6",
"o. c #B7B7B7",
"O. c gray72",
"+. c #B8B9B9",
"@. c #B9B9B9",
"#. c #B9BABA",
"$. c gray73",
"%. c #BBBBBB",
"&. c #BCBCBC",
"*. c gray74",
"=. c gray",
"-. c gray75",
";. c #C0C0C0",
":. c #C1C1C1",
">. c #C1C1C2",
",. c gray76",
"<. c #C2C2C3",
"1. c #C3C3C3",
"2. c #C3C4C4",
"3. c #C3C4C5",
"4. c gray77",
"5. c #C5C5C5",
"6. c #C5C6C6",
"7. c #C6C6C6",
"8. c gray78",
"9. c #C8C8C8",
"0. c #CACACA",
"q. c gray80",
"w. c #CDCECE",
"e. c #CECECE",
"r. c #CECFCF",
"t. c gray81",
"y. c #D0D0D0",
"u. c #D1D2D2",
"i. c #D2D2D2",
"p. c LightGray",
"a. c #D2D5D6",
"s. c #D4D5D5",
"d. c gray84",
"f. c #D7D7D7",
"g. c #D6DADC",
"h. c #D8D8D8",
"j. c #D8D8D9",
"k. c gray85",
"l. c #DADADA",
"z. c #DADADB",
"x. c gray86",
"c. c gainsboro",
"v. c #DCDCDD",
"b. c #DDDDDD",
"n. c #DEDEDF",
"m. c #DEDFDF",
"M. c #DFDFDF",
"N. c #DFE0E0",
"B. c gray88",
"V. c #E1E1E1",
"C. c #E2E2E2",
"Z. c #E2E3E3",
"A. c gray89",
"S. c #E4E4E4",
"D. c gray90",
"F. c #E5E6E7",
"G. c #E6E6E6",
"H. c #E6E7E8",
"J. c #E7E8E8",
"K. c #E7E8E9",
"L. c gray91",
"P. c #E8E9E9",
"I. c #E9E9E9",
"U. c #E8E9EA",
"Y. c #E9EAEA",
"T. c #E9EAEB",
"R. c #EAEAEA",
"E. c #EAEBEB",
"W. c gray92",
"Q. c #EBEBEC",
"!. c #EBECEC",
"~. c #EBECED",
"^. c #ECECEC",
"/. c #ECEDED",
"(. c gray93",
"). c #EDEEEE",
"_. c #EEEEEE",
"`. c #EEEFEF",
"'. c #EFEFEF",
"]. c #EFF0F0",
"[. c gray94",
"{. c #F0F1F1",
"}. c #F1F1F1",
"|. c #F0F1F2",
" X c #F1F2F2",
".X c gray95",
"XX c #F2F3F3",
"oX c #F3F3F3",
"OX c #F3F4F4",
"+X c #F4F4F4",
"@X c #F4F5F5",
"#X c gray96",
"$X c #F5F6F6",
"%X c #F6F6F6",
"&X c #F6F7F7",
"*X c gray97",
"=X c #F7F8F8",
"-X c #F8F8F8",
";X c #F9F9F9",
":X c #FAFAF9",
">X c gray98",
",X c #FBFBFB",
"<X c #FBFBFC",
"1X c gray99",
"2X c #FDFDFD",
"3X c #FEFEFE",
"4X c gray100",
/* pixels */
"7.K K K K K K K K K K K K K K K K K K K K K K K K 7.G.G.G.G.G.G.",
"K {.W.!./.)._.`.].{.{.}.}. X XXXXXXXoXOXOXOXOXOX&XK G.G.G.G.G.G.",
"K Q.F.H.K.U.T.!.!./.(.)._.`.'.].].[.{.{.{.{.}.}.+XK G.G.G.G.G.G.",
"K ~.J.k.q * 3 j /.n 1 9 A ].i w.}.V ( .X.XW.{ ` _.K G.G.G.G.G.G.",
"K ).P.9 H E./.2._.d ' '.> d.s., r.5 oXoX/.] S.B.^ J G.G.G.G.G.G.",
"K _.P.. J./.m.N.'.f [ x.# C.XXZ o f.+X@X+.C.4X4Xk.V A.G.G.G.G.G.",
"K `.J.X !.Y.r   P.g - u | OX+Xp O p.$X%X@.W.4X4X4Xo.E S.G.G.G.G.",
"K {./.; #.`.].= Y.h } OX+X#X%.w f.2 %X*X^.) ;X4X4X3X,.Q D.G.G.G.",
"K }.(.q.% 3 y 7 ].h | @X#X(.: L.*XS D -X;XB.{ 3X4X4X3XO.~ G.G.G.",
"K }.).`.].Z.Y.XXOX+X#X%X%X*X-X-X;X;X;X>X>X>Xe.,.4X4X4X3X) _ G.G.",
"K  X`.].{. XXXOX@X#X%X*X=X-Xx.-.&.o.| _ ^ E P J h.4X4X4X2XE  .G.",
"K XX].{. XXXOX@X$X%X*X-X;X;X>X,X,X1X2X3X3X4X4X4X4X4X4X4X4X1XL %.",
"K OX{. XXXOX@X$X%X*X-X;X>X>X>X,X1X2X2X3X3X4X4X4X4X4X4X4X4X4XoXN ",
"K +X}..XoX+X#X%X*X-X;X>X>X>X,X1X1X2X3X3X3X4X4X4X4X4X4X4X4X1XL %.",
"K +X.XoX+X#X%X*X-X;X>X>X>X,Xc.;.&.O. .` ^ E I K k.4X4X4X2XE  .G.",
"K @XXXOX#X%X*X-X;X>X>X,X,X,X1X1X1X1X2X2X2X2Xy.,.4X4X4X3X) _ G.G.",
"K #XoXU ; < g oX*X8 ,X,XX.K y 6 + 6 6 .X2XS.| 3X4X4X3XO.~ G.G.G.",
"K $X9.& L.#Xa n %X# ,X,X~ N 1X2X% 2X3X3X.X] >X4X4X3X,.Q D.G.G.G.",
"K %Xx m *X-Xt.; %X# ,X1X~ N 2X2X% 3X3X3X&.(.4X4X4Xo.E S.G.G.G.G.",
"K &Xl H *X;Xb.$ -X@ 1X1XQ V 2X3X% 3X3X1X%.S.4X4Xk.V A.G.G.G.G.G.",
"K *Xo.3 -X;XD s ,X> -X1Xk 1.3X3X% 1X>X#XR._ C.b.W E G.G.G.G.G.G.",
"K *X%Xz # 4 3 W.,X/ 0 e t 2X3X3X$ ;X}.I.z.0.Y ! F f.G.G.G.G.G.G.",
"K *X%X*X+X^.>X,X,X1X1XoX2X3X3X2X>X[.c.<.0.n.M.C t.G.G.G.G.G.G.G.",
"K *X%X-X;X>X>X,X,X1X1X2X3X3X3X,XoXS.>.2X:XV.M 8.G.G.G.G.G.G.G.G.",
"K *X*X-X;X>X>X,X1X1X2X2X3X3X2X-X(.u.6.:XV.v -.D.G.G.G.G.G.G.G.G.",
"K =X*X-X;X>X,X,X1X1X2X2X3X3X1X+XS.3.x.V.c X.S.G.G.G.G.G.G.G.G.G.",
"K =X*X-X>X>X,X,X1X1X2X2X3X3X,X.Xv.>.n.b -.S.G.G.G.G.G.G.G.G.G.G.",
"K =X*X-X>X>X,X,X1X1X2X2X3X4X,X}.j.a.B 8.D.G.G.G.G.G.G.G.G.G.G.G.",
"T .X;X>X,X,X1X1X2X2X2X2X3X3X<X|.g.G t.G.G.G.G.G.G.G.G.G.G.G.G.G.",
"p.T K K K K K K K K K K K K K K Q f.G.G.G.G.G.G.G.G.G.G.G.G.G.G.",
"G.G.G.S.B.x.h.p.t.q.9.7.1.:.-.=.=.=.-.:.1.7.9.q.t.p.h.x.B.S.G.G.",
"G.D.A.B.l.f.i.e.9.4.*.O.| _ ~ R R Q ^ ] ..$.-.5.0.t.p.h.b.V.S.G."
};
