/* XPM */
static const char *gpx_import[] = {
/* columns rows colors chars-per-pixel */
"32 32 207 2",
"   c gray6",
".  c gray10",
"X  c #232323",
"o  c #252525",
"O  c #282828",
"+  c #2D2D2D",
"@  c gray20",
"#  c #343434",
"$  c gray21",
"%  c #383939",
"&  c #3C3C3C",
"*  c gray27",
"=  c #464646",
"-  c gray28",
";  c #4B4B4B",
":  c #4C4C4C",
">  c gray30",
",  c gray31",
"<  c #505050",
"1  c gray32",
"2  c #555555",
"3  c #565656",
"4  c #5A5A5A",
"5  c #5B5B5B",
"6  c #676767",
"7  c #676868",
"8  c #686868",
"9  c DimGray",
"0  c #696A6A",
"q  c #6A6A6A",
"w  c #6D6D6D",
"e  c #6F6F6F",
"r  c #727373",
"t  c gray46",
"y  c #7E7E7E",
"u  c #818181",
"i  c gray51",
"p  c #808584",
"a  c #818585",
"s  c #848787",
"d  c #868686",
"f  c gray53",
"g  c #858887",
"h  c #878888",
"j  c #888989",
"k  c #898989",
"l  c #898A8A",
"z  c #8B8E8E",
"x  c #8C8F8F",
"c  c #8E8E8E",
"v  c #8F9090",
"b  c #939393",
"n  c #919494",
"m  c #929594",
"M  c gray58",
"N  c #979797",
"B  c #9A9A9A",
"V  c #9B9B9B",
"C  c gray61",
"Z  c #9C9D9D",
"A  c #9F9F9F",
"S  c #A0A0A0",
"D  c gray63",
"F  c #A2A2A2",
"G  c gray64",
"H  c #A4A4A4",
"J  c gray65",
"K  c #A7A7A7",
"L  c gray66",
"P  c #A9A9A9",
"I  c #AAAAAA",
"U  c gray67",
"Y  c gray68",
"T  c #AEAEAE",
"R  c #AFAFAF",
"E  c gray69",
"W  c #B1B1B1",
"Q  c #B2B2B2",
"!  c gray70",
"~  c #B4B4B4",
"^  c gray71",
"/  c #B6B6B6",
"(  c #B6B7B7",
")  c gray72",
"_  c #B9B9B9",
"`  c gray73",
"'  c #BBBBBB",
"]  c gray74",
"[  c gray",
"{  c #BEBFBF",
"}  c gray75",
"|  c #C0C0C0",
" . c #C0C1C1",
".. c #C1C1C1",
"X. c #C1C1C2",
"o. c gray76",
"O. c #C2C2C3",
"+. c #C3C3C3",
"@. c #C3C4C5",
"#. c gray77",
"$. c #C5C5C5",
"%. c #C5C6C6",
"&. c #C6C6C6",
"*. c gray78",
"=. c #C8C8C8",
"-. c #C9CACA",
";. c #CACACA",
":. c gray80",
">. c #CDCDCD",
",. c #CDCDCE",
"<. c #CECECE",
"1. c gray81",
"2. c #CFD0D0",
"3. c gray82",
"4. c #D1D2D2",
"5. c #D2D2D2",
"6. c #D2D3D3",
"7. c LightGray",
"8. c #D2D5D6",
"9. c gray83",
"0. c #D5D5D5",
"q. c #D6D7D7",
"w. c #D7D7D7",
"e. c #D6DADC",
"r. c #D8D8D8",
"t. c #D8D8D9",
"y. c gray85",
"u. c #DADADA",
"i. c #DADADB",
"p. c #DADBDB",
"a. c gray86",
"s. c #D8DBDC",
"d. c #DBDCDC",
"f. c gainsboro",
"g. c #DCDCDD",
"h. c #DDDDDD",
"j. c #DDDEDE",
"k. c gray87",
"l. c #DEDEDF",
"z. c #DEDFDF",
"x. c #DFDFDF",
"c. c gray88",
"v. c #E1E1E1",
"b. c #E2E2E2",
"n. c gray89",
"m. c #E3E4E4",
"M. c #E4E4E4",
"N. c #E4E5E5",
"B. c gray90",
"V. c #E5E6E6",
"C. c #E5E6E7",
"Z. c #E6E6E6",
"A. c #E6E7E7",
"S. c #E7E7E7",
"D. c #E4E7E8",
"F. c #E6E7E8",
"G. c #E7E8E8",
"H. c #E7E8E9",
"J. c gray91",
"K. c #E8E9E9",
"L. c #E9E9E9",
"P. c #E8E9EA",
"I. c #E9EAEA",
"U. c #E9EAEB",
"Y. c #EAEBEB",
"T. c gray92",
"R. c #EBEBEC",
"E. c #EBECEC",
"W. c #EBECED",
"Q. c #ECECEC",
"!. c #ECEDED",
"~. c gray93",
"^. c #EDEEEE",
"/. c #EEEEEE",
"(. c #EEEFEF",
"). c #EFEFEF",
"_. c #EFF0F0",
"`. c gray94",
"'. c #F0F1F1",
"]. c #F1F1F1",
"[. c #F0F1F2",
"{. c #F1F2F2",
"}. c gray95",
"|. c #F2F3F3",
" X c #F3F3F3",
".X c #F3F4F4",
"XX c #F4F4F4",
"oX c #F4F5F5",
"OX c gray96",
"+X c #F5F6F6",
"@X c #F6F6F6",
"#X c #F6F7F7",
"$X c gray97",
"%X c #F7F8F8",
"&X c #F8F8F8",
"*X c #F9F9F9",
"=X c #FAFAF9",
"-X c #F9FAFA",
";X c gray98",
":X c #FAFBFB",
">X c #FBFBFB",
",X c #FBFBFC",
"<X c #FBFCFC",
"1X c gray99",
"2X c #FDFDFD",
"3X c #FEFEFE",
"4X c gray100",
/* pixels */
"Z.Z.Z.Z.Z.Z.&.C C C C C C C C C C C C C C C C C C C C C C C C &.",
"Z.Z.Z.Z.Z.Z.C '.T.E.!.^./.(._.'.'.].].{.{.|.|.|. X.X.X.X.X.X#XC ",
"Z.Z.Z.Z.Z.Z.C R.C.F.H.P.U.E.E.!.~.^./.(.)._._.`.'.'.'.'.].].XXC ",
"Z.Z.Z.Z.Z.Z.C W.G.K.I.Y.E.!.i @ > 2 j.%.% 1 w N.H b }.;.e }.OXC ",
"Z.Z.Z.Z.Z.Z.C ^.K.I.Y.E.!.Z 3 V._.r.z.} 6 }.f v }.= 4.* d..X#XC ",
"Z.Z.Z.Z.Z.Z.C /.I.E.E.!.^.1 E _.A.b.!.| 7 Q.8 S XX5.. V OXOX$XC ",
"Z.Z.Z.Z.Z.Z.C (.m.R ( K.(.; { ].l $ D  .X 4 N ).+X~ o b @X@X&XC ",
"Z.Z.Z.Z.Z.Z.C G.J b.k._ !.j r }.|.h F o.9 @X@X#XT.& J.- p.%X*XC ",
"Z.Z.Z.Z.Z.Z.C L v.4X2Xy. .Y.5 # q : =.+.0 $X$X&X8 / *X9.> *X;XC ",
"Z.Z.Z.Z.Z.Z.C L Y.4X2X<X0.=.|./.B.@X@X$X&X&X*X*X*X;X;X;X;X;X>XC ",
"Z.Z.Z.Z.Z.Z.C m.G $X2X1X;X6.2.OX@X$X%X&X*X*X;X;X;X;X;X;X;X;X>XC ",
"Z.Z.Z.Z.Z.Z.C |.q.W >X1X>X*X3.b.$X&X*X*X;X;X;X;X>X>X>X>X>X>X1XC ",
"Z.Z.Z.Z.Z.Z.C .X'.-.$.<X>X:X&Xx.$X*X;X;X;X;X>X>X>X>X>X>X>X>X1XC ",
"V y y y u f d M B S J u.>X>X;X&X$X;X;X;X>X>X>X>X1X1X1X1X1X1X2XC ",
"y 4X4X4X4X4X4X4X4X4X3X2X1X>X>X>X>X;X;X>X>X>X1X1X1X1X1X1X2X2X2XC ",
"y 4X4X4X4X4X4X4X4X4X3X2X1X1X>X>X>XV / S.O 7.1XA ' 2X2X2X2X2X2XC ",
"y 4X4X4X4X4X4X4X4X4X3X2X2X1X1X>X1Xk P M.+ 3 2Xc R 2X2X3X3X3X3XC ",
"V y y y u f d M B D K u.2X2X1X;X*Xk I M., 8 =.c R 3X3X3X3X3X3XC ",
"Z.Z.Z.Z.Z.Z.C @XoX:.*.2X2X2X;Xb.;Xk I M., n.> c R 3X3X2X2X2X2XC ",
"Z.Z.Z.Z.Z.Z.C #Xu.Q 1X3X2X1X7.Z.1Xk I B., 3Xt : R 1X;X;X&X&X-XC ",
"Z.Z.Z.Z.Z.Z.C L.H *X3X3X2X0.7.>X1Xk U B.< 3XQ.  Y OX]./.Q.T.D.K ",
"Z.Z.Z.Z.Z.Z.C P ~.4X3X3Xy.>.;X1X1X2X2X3X3X3X1X*X].L.i.1.,.s.m w.",
"Z.Z.Z.Z.Z.Z.C P M.4X3Xh.$.*X>X1X1X2X2X3X3X2X;X`.f.O.;.l.x.x 1.Z.",
"Z.Z.Z.Z.Z.Z.C /.P B.b.[ $X>X>X1X1X2X3X3X3X>X XM.X.2X=Xv.g *.Z.Z.",
"Z.Z.Z.Z.Z.Z.C $X/.~ ' OX;X>X1X1X2X2X3X3X2X&X~.4.%.=Xv.a } B.Z.Z.",
"Z.Z.Z.Z.Z.Z.C %X$X&X*X;X>X>X1X1X2X2X3X3X1XXXM.@.a.v.p / M.Z.Z.Z.",
"Z.Z.Z.Z.Z.Z.C %X$X&X;X;X>X>X1X1X2X2X3X3X>X}.g.X.l.s } M.Z.Z.Z.Z.",
"Z.Z.Z.Z.Z.Z.C %X$X&X;X;X>X>X1X1X2X2X3X4X>X].t.8.z *.B.Z.Z.Z.Z.Z.",
"Z.Z.Z.Z.Z.Z.G }.*X;X>X>X1X1X2X2X2X2X3X3X,X[.e.n 1.Z.Z.Z.Z.Z.Z.Z.",
"Z.Z.Z.Z.Z.Z.7.G C C C C C C C C C C C C C C K w.Z.Z.Z.Z.Z.Z.Z.Z.",
"Z.Z.Z.M.c.a.r.7.1.:.=.&.+...} [ [ [ } ..+.&.=.:.1.7.r.a.c.M.Z.Z.",
"Z.B.n.c.u.w.5.<.=.#.] ) ! T P H H K I E ^ ` } $.;.1.7.r.h.v.M.Z."
};
