/* XPM */
static const char *help[] = {
/* columns rows colors chars-per-pixel */
"32 32 99 2",
"   c #030303",
".  c #0B0B0B",
"X  c #131313",
"o  c #1B1B1B",
"O  c #232323",
"+  c #2B2B2B",
"@  c #343434",
"#  c #3C3C3C",
"$  c #424242",
"%  c #555555",
"&  c #5C5C5C",
"*  c #366199",
"=  c #3A659C",
"-  c #3E69A2",
";  c #3E74BA",
":  c #42699E",
">  c #56769D",
",  c #426BA2",
"<  c #4770A7",
"1  c #4A74AA",
"2  c #4F79AC",
"3  c #5275A3",
"4  c #4475B6",
"5  c #4B77B4",
"6  c #4379BE",
"7  c #4B7BBC",
"8  c #527CB1",
"9  c #477CC1",
"0  c #4A7EC0",
"q  c #71849D",
"w  c #5680B4",
"e  c #5B82B4",
"r  c #6681A2",
"t  c #6C85A3",
"y  c #7287A2",
"u  c #658AB7",
"i  c #6289B8",
"p  c #6D92BF",
"a  c #4787D9",
"s  c #4887D9",
"d  c #4C8BDC",
"f  c #508EDF",
"g  c #5792DF",
"h  c #5C93DB",
"j  c #6499DE",
"k  c #689CDD",
"l  c #6FA0DD",
"z  c #73A1DE",
"x  c #518FE0",
"c  c #5592E2",
"v  c #5A96E5",
"b  c #5E98E7",
"n  c #5D97E8",
"m  c #5E99E9",
"M  c #639AE4",
"N  c #699EE4",
"B  c #639CEB",
"V  c #6EA1E5",
"C  c #6AA1EC",
"Z  c #75A5E6",
"A  c #72A5EB",
"S  c #76A8ED",
"D  c #7DACEC",
"F  c #9D9D9D",
"G  c #92A2B5",
"H  c #9DA8B6",
"J  c #A4A4A4",
"K  c #ACACAC",
"L  c #B3B3B3",
"P  c #BCBCBC",
"I  c #A7BBD6",
"U  c #81ACE3",
"Y  c #85AFE9",
"T  c #8CB2E6",
"R  c #86B0E8",
"E  c #8CB3E9",
"W  c #94BAED",
"Q  c #99BDEC",
"!  c #A3C5EF",
"~  c #AECBEF",
"^  c #AAC9F3",
"/  c #B5D0F5",
"(  c #BBD3F4",
")  c #C3C3C3",
"_  c #CCCCCC",
"`  c #D3D3D3",
"'  c #DADADA",
"]  c #C6DAF5",
"[  c #C9DBF6",
"{  c #DDE0E6",
"}  c #CFE0F7",
"|  c #D2E2F6",
" . c #D6E5F8",
".. c #DAE7F8",
"X. c #DEEAFA",
"o. c #E6E6E6",
"O. c #E6EEFA",
"+. c #E7F0FB",
"@. c #E9F1FB",
/* pixels */
"o.o.o.o.o.o.o.o.o.o.o.o.o.o.o.o.o.o.o.o.o.o.o.o.o.o.o.o.o.o.o.o.",
"o.o.o.o.$ & & & & q y y y y y y t t t t t r r r r r > G o.o.o.o.",
"o.o.o.) % ) ) ) ) ) _ ) _ _ _ _ ` ` ` ` ` ' ' ' ' ' H i o.o.o.o.",
"o.o.o.P   @ @ @ # > u p e i e e w w w w 8 8 8 2 2 2 1 3 o.o.o.o.",
"o.o.o.P     .     = z l h a a a a a a k d s a d d d d d { o.o.o.",
"o.o.o.P   . .     * g k U s s a a d a g j d d d d d d d { o.o.o.",
"o.o.o.P   X .     = a h z k s d d a d d j f d d d d d f o.o.o.o.",
"o.o.o.P   X X   . = d d k z d Z Q ~ ~ Q U j d f f f f f o.o.o.o.",
"o.o.o.)   o X . . = d d d z [ @.] R Z ! ..| Z f f f f x o.o.o.o.",
"o.o.o.)   O X   . - d d g } @.Q f f f f V ..O.V f f x c o.o.o.o.",
"o.o.o.)   O o   X - x f R @.@.T f f f x f ! @.( x c c c o.o.o.o.",
"o.o.o._   + o   X - f f Q +.@./ b x f c x E +.| c c c v o.o.o.o.",
"o.o.o._   + o   o - f x N O.@.W V h c c c ^ +./ c c v h o.o.o.o.",
"o.o.o.) . + O   o , c c c N C c j b b c C X.+.D v v v b o.o.o.o.",
"o.o.o._ . @ O . o , c c c c c c c V b b ( @.W v b v v M o.o.o.o.",
"o.o.o._ . @ O . o , c c c v v c c g C Q @.Q v v b m m V o.o.o.o.",
"o.o.o._ . @ + . O - v c c v c v v v A X.^ m m v m m m V o.o.o.o.",
"o.o.o._ X # + . O = v v n v n n v v / ] m B m m m m m Z o.o.o.o.",
"o.o.o._ X # + X O : v v n n n n m v X.C B B B B m m m S o.o.o.o.",
"o.o.o._ X # + X + : n v m n m m m C ..m B B B B m C B S o.o.o.o.",
"o.o.o._ X # + X + : m m n m m m m S ( B B B B B C B B D o.o.o.o.",
"o.o.o.` o $ + X + , m B B B B B m A D B B B C C B B B Y o.o.o.o.",
"o.o.o._ o $ + X + < m m m m n B C m B B B C B C C C C E o.o.o.o.",
"o.o.o.` o $ + o @ 1 m m n n B n C ^ ^ C B B B C C B C E o.o.o.o.",
"o.o.o._ O $ + o @ 5 v v v v n n / @.@.( m m m B B B B E o.o.o.o.",
"o.o.o.` O $ + o @ 7 v v v v v v ( @.@.[ m m m m m m B E o.o.o.o.",
"o.o.o.` + $ @ O @ 0 c c x v v v S }  .D v v v n n n n E o.o.o.o.",
"o.o.o._ O # + o @ 7 x x x x x x c c v c c c v c v v v E o.o.o.o.",
"o.o.o.' o @ o o + 4 d f f x d f x x x x c x c c c c c E o.o.o.o.",
"o.o.o.o.+ + o X O 4 d s d d d d d d d d d d d x f f x R o.o.o.o.",
"o.o.o.o.& o X X o - ; ; ; ; ; ; 6 ; 9 6 6 9 9 9 9 9 0 I ' { o.o.",
"o.o.o.' ` ) ) P P L K K J J F F F F J J K K L L P P ) _ ` ' o.o."
};
