/* XPM */
static char *help[]={
"32 32 44 1",
". c None",
"j c #0000ff",
"n c #0101ff",
"d c #0202ff",
"x c #0303ff",
"i c #0404ff",
"M c #0505ff",
"e c #0909ff",
"s c #0a0aff",
"c c #1010ff",
"O c #1111ff",
"N c #1616ff",
"z c #1717ff",
"r c #1818ff",
"f c #2121ff",
"k c #2828ff",
"p c #2a2aff",
"q c #2d2dff",
"L c #2e2eff",
"b c #3737ff",
"K c #4040ff",
"g c #5252ff",
"D c #5959ff",
"v c #5b5bff",
"o c #6666ff",
"G c #6868ff",
"F c #6969ff",
"E c #6a6aff",
"C c #6b6bff",
"A c #6c6cff",
"u c #7070ff",
"a c #7a7aff",
"# c #7d7dff",
"m c #8686fe",
"P c #8e8efe",
"h c #a0a0fe",
"J c #a3a3fe",
"I c #a9a9fe",
"w c #b7b7fe",
"l c #b8b8fe",
"t c #bcbcfe",
"B c #bebefe",
"H c #bfbffe",
"y c #c8c8fe",
"................................",
"................................",
"................................",
"................................",
"................................",
"................................",
"................................",
"................................",
"...........#abcdefgh............",
"..........#ijjjjjjjjkl..........",
".........mjjnolllpjjnq..........",
".........rjjn....ljjjjl.........",
".........sjjd.....jjjjt.........",
".........ujjv....wjjnx#.........",
"..........##....yzjjnA..........",
"...............BenjjC...........",
"...............qjjDl............",
"...............xnE..............",
"...............FGH..............",
"...............IJ...............",
"..............KnnL..............",
".............ljjjjl.............",
".............lMnjjl.............",
"..............hNOP..............",
"................................",
"................................",
"................................",
"................................",
"................................",
"................................",
"................................",
"................................"};
