/* XPM */
static char *kelp[]={
"16 16 2 1",
". c None",
"# c #007f00",
"................",
"......#.........",
".....##.........",
"...########.....",
".......##.......",
"........#.......",
"..........#.....",
".........##.....",
"......########..",
"...........##...",
"............#...",
"....#...#.......",
"...##..#........",
".#######........",
".....##.........",
"......#........."};
