/* XPM */
static const char *mob[] = {
/* columns rows colors chars-per-pixel */
"32 32 233 2",
"   c #181818",
".  c #242424",
"X  c #2C2C2C",
"o  c #313131",
"O  c #3A3736",
"+  c #3D3D3D",
"@  c gray26",
"#  c #4B4A4A",
"$  c #545454",
"%  c #5C5C5D",
"&  c #745E56",
"*  c #656565",
"=  c gray42",
"-  c #737373",
";  c #7C7C7C",
":  c #BE500E",
">  c #AC551B",
",  c #93543B",
"<  c #A65726",
"1  c #B45823",
"2  c #BF572C",
"3  c #B35D30",
"4  c #BB5E38",
"5  c #C55B0C",
"6  c #D9540E",
"7  c #D25B0F",
"8  c #DE590C",
"9  c #CE4A14",
"0  c #D14C16",
"q  c #CD5B15",
"w  c #D4531A",
"e  c #DA5A1F",
"r  c #DD660C",
"t  c #D96215",
"y  c #ED6B06",
"u  c #E4620A",
"i  c #E86508",
"p  c #F16F05",
"a  c #F57303",
"s  c #F87602",
"d  c #FD7C02",
"f  c #F07008",
"g  c #E26910",
"h  c #E6751B",
"j  c #C35925",
"k  c #CB5C23",
"l  c #C85728",
"z  c #C5592D",
"x  c #C85C2A",
"c  c #DA5D22",
"v  c #C55D34",
"b  c #DE6124",
"n  c #DE6529",
"m  c #D46828",
"M  c #DF692D",
"N  c #C36537",
"B  c #CA6A3B",
"V  c #D36934",
"C  c #D96831",
"Z  c #E26527",
"A  c #E36628",
"S  c #E4692B",
"D  c #E86D2D",
"F  c #EA702F",
"G  c #E26D30",
"H  c #EA7333",
"J  c #ED7937",
"K  c #E37738",
"L  c #ED7A39",
"P  c #8E5841",
"I  c #8E6656",
"U  c #946B59",
"Y  c #B06847",
"T  c #BE6C4B",
"R  c #A86A5A",
"E  c #AC7459",
"W  c #B9795D",
"Q  c #856F65",
"!  c #877066",
"~  c #977364",
"^  c #95776F",
"/  c #956F71",
"(  c #897E79",
")  c #9C7672",
"_  c #AD7C64",
"`  c #A57F6E",
"'  c #C37C5D",
"]  c #FF840D",
"[  c #E7801F",
"{  c #FF8815",
"}  c #FF8E20",
"|  c #FF942C",
" . c #EE803E",
".. c #FF9630",
"X. c #F3973C",
"o. c #FE9C3C",
"O. c #97867E",
"+. c #99867C",
"@. c #98887E",
"#. c #AB826D",
"$. c #B98C77",
"%. c #C5865C",
"&. c #DF8D57",
"*. c #ED8141",
"=. c #EB8648",
"-. c #F08847",
";. c #F28C4B",
":. c #FF9E40",
">. c #E0905C",
",. c #E59F5F",
"<. c #F49454",
"1. c #F69D5D",
"2. c #FFA34A",
"3. c #FFA650",
"4. c #FFA954",
"5. c #C78367",
"6. c #CA8B71",
"7. c #C5937C",
"8. c #CB9E7A",
"9. c #EA9E78",
"0. c #CEA27B",
"q. c #E9A160",
"w. c #F8A565",
"e. c #FAAC6C",
"r. c #FFB266",
"t. c #FDB46B",
"y. c #FBAF70",
"u. c #FCB474",
"i. c #FFB873",
"p. c #FEBC7D",
"a. c #4181CF",
"s. c #5883C2",
"d. c #4A86D2",
"f. c #5990D7",
"g. c #7CA0D2",
"h. c #76A6E3",
"j. c #7DAAE6",
"k. c #868686",
"l. c #898989",
"z. c #958780",
"x. c #948290",
"c. c #949493",
"v. c #999391",
"b. c #9B9B9B",
"n. c #AC8E80",
"m. c #A59387",
"M. c #B39183",
"N. c #B49C8C",
"B. c #A49A94",
"V. c #AB9E93",
"C. c #B79C97",
"Z. c #ACA197",
"A. c #A7A19F",
"S. c #B8A397",
"D. c #899DBF",
"F. c #A3A3A3",
"G. c #AEA4A0",
"H. c #ACACAC",
"J. c #B0A7A0",
"K. c #B6ABA3",
"L. c #BBACA2",
"P. c #B1ABAB",
"I. c #A7ACBB",
"U. c #BDAFB3",
"Y. c #A8B1BC",
"T. c #B5B5B5",
"R. c #B9B7B8",
"E. c #BBBBBB",
"W. c #CD9884",
"Q. c #C5998B",
"!. c #CBA08F",
"~. c #DFAB80",
"^. c #D2A08C",
"/. c #D4AC9D",
"(. c #C7B29E",
"). c #E3B186",
"_. c #E0B088",
"`. c #F4BB83",
"'. c #E6AB90",
"]. c #ECB196",
"[. c #ECB69B",
"{. c #E4BC9C",
"}. c #CFB8AF",
"|. c #D4B9AE",
" X c #DABAAA",
".X c #C3B1B3",
"XX c #C5BBB8",
"oX c #D1BDB4",
"OX c #F5C09B",
"+X c #DFC1AB",
"@X c #F1CBA9",
"#X c #F9CBAD",
"$X c #EED0B6",
"%X c #EED4BE",
"&X c #FAD7BF",
"*X c #8B9EC0",
"=X c #99A6C1",
"-X c #9DB1CD",
";X c #89AAD9",
":X c #90AEDB",
">X c #B4B8C6",
",X c #A7B9D5",
"<X c #87B2E9",
"1X c #8AB3EB",
"2X c #95BBEF",
"3X c #BEC3CD",
"4X c #BDC1D0",
"5X c #B1CFF9",
"6X c #B4D1FA",
"7X c #BCD6FE",
"8X c #BFD9FF",
"9X c #C4C4C4",
"0X c #C9C5CB",
"qX c #CCCCCC",
"wX c #DBCBC5",
"eX c #C5C5D0",
"rX c #C6CFD9",
"tX c #D3D3D3",
"yX c #D7D6D7",
"uX c #DED8D7",
"iX c #DFDFDF",
"pX c #EDDBCF",
"aX c #F6D5C0",
"sX c #CCD7E4",
"dX c #C3DBFF",
"fX c #D5E6FF",
"gX c #D8E7FF",
"hX c #DBE9FF",
"jX c #E0EDFF",
"kX c #EEF4FE",
"lX c #F2F7FD",
"zX c #F6F9FF",
"xX c #F9FBFD",
/* pixels */
"iXiXiXiXiXiXiXiXE.R.E.E.+X4XE.rXrXR.R.R.R.E.qXiXiXiXiXiXiXiXiXiX",
"iXiXiXiXiXiXiX9XE.tXqXL.` +.I.-X,X0XM.6.}.9XR.0XiXiXiXiXiXiXiXiX",
"iXiXiXiXiXiXiXR.tX^.l 9 e '.kXlXlXlX].S c l 7.E.iXiXiXiXiXiXiXiX",
"iXiXiXiXiXiXiXA.z w n J ;.#XlXlXlXxX#X1.;.J A x  XiXiXiXiXiXiXiX",
"iXiXiXiXiXiXW.z.b  .<.t.p.%XhXhXhXhX$Xp.p.y.<.L b W.iXiXiXiXiXiX",
"iXiXiXiXiX5.9 B.;.e.p.r.:.).dX8X7X8X~.] :.r.p.e.;.S 5.iXiXiXiXiX",
"iXiXiXiXW.0 D J.p.i.:.s g %.:X*XD.;X' t f d o.i.p.<.H W.iXiXiXiX",
"iXiXiX|.9 S >.K.r.{ r j 3 ! k.F.F.k.Q 3 j t a ] r.`.<.G +XiXiXiX",
"iXiXiXv e ;.S.0.] r 1 O.9XyXiXiXiXiXyX9X( 1 q p d r.p.-.B iXiXiX",
"iXiX!.0 J V.S.{ r < F.tXiXiXiXiXiXiXiXiXyXv.< 7 f { i.e.J Q.iXiX",
"iXiX2 C B.N.o.p > T.iXiXiXiXiXiXiXiXiXiXiXqXc.< u a o.p.<.N T.tX",
"iXwXN K.8.t.d 5 O.iXiXiXiXiXiXiXiXiXiXiXiXiXH.! : y d t.e.H XXR.",
"iXM.C.&.p.2.s < 3XiXiXyXqXiXiXiX0XtXiXiXiX0XqXtX< u s 2.p.-.$.R.",
"iXH. XaXpX XC.#   yXiX= . iXqXo % o = iXF.o % + & x.S.+XpX&X!.T.",
">XP.xXlXgX7Xj.% # b.yX# o iX$ c.iXiX+ H.F.= iXF.# f.2XdXjXxXwXT.",
"sX=XxXkXfX6Xg.= c.$ b.l.o iX. tXiXiX; ; F.. # X P.s.1XdXhXxX4XeX",
"sX>XxXkXfX5Xg.- b.% @ tXo iXX 9XiXiX= k.F.= iXH.# s.1XdXhXxX0XR.",
"+X.XxXkXfX5Xh.* b.T.; iXo iX- * yX9XX 9XF.= iXR.O d.1XdXhXxXXXR.",
"Y._ 9.[.@X,.%.& H.iXiXiX% iXiX- + + H.iXT.@ # * ^ R 5.q.@X{.A.tX",
"H.W t <.p.| p N iXiXiXiXiXiXiXiXiXiXiXiXiXiXiXiX4 8 f X.(.S.#.iX",
"H.R.c =.p.4.s u oXiXiXiXiXiXiXiXiXiXiXiXiXE.H.B.E #.m.Z.8.K L.iX",
"H.qXx F w.i.] y k uXiXiXiXiXiXiXiXiXiXiXH.A.XX#.$.%.[ t.w.V iXiX",
"E.E.#.b ;.p.3.s i B uXiXiXiXiXiXiXiXiXiXb.uXv 6 i s 3.p. .#.iXiX",
"uXH.qXz D w.p...a i k |.iXiXiXiXiXiXiXyXc.j 6 u a | p.1.m tXiXiX",
"iXE.R.m.b  .y.i.} s i 8 B C.3XiXyX3XS.T @.8 i a } i.e.M n.iXiXiX",
"iXiXT.F.U c =.u.i.| s y i ) d.a.a.d./ m @.f s ..i.u.M E yXiXiXiX",
"iXiXiX0Xc., e *.t.p.4.] s 7.<Xj.j.j.$.h @.] 4.p.w.Z Y tXiXiXiXiX",
"iXiXiXiXiXqXI w F <.OXu.4.{.dX7X7X8X_.X.B.i.p.=.m U qXiXiXiXiXiX",
"iXiXiXiXiXiXtX@.2 w K 1.u.%XhXgXgXgX%X`.K.=.b x +.tXiXiXiXiXiXiX",
"iXiXiXiXiXiXiXiXT.( 1 0 e [.zXkXkXlX[.%.N.k ~ T.iXiXiXiXiXiXiXiX",
"iXiXiXiXiXtXqXqX9X+XF.( P W /..XU./.$.G.l.b.3X+X0XqXtXtXuXiXiXiX",
"iXiXiXiXtXqXqXqX3XE.R.T.F.c.l.>X>XF.F.F.H.T.Y.3X9X9XqXtXyXiXiXiX"
};
