/* XPM */
static const char *mob[] = {
/* columns rows colors chars-per-pixel */
"32 32 256 2",
"   c gray20",
".  c #49372C",
"X  c #51372A",
"o  c #5C3B2D",
"O  c #633C2C",
"+  c #6C3A26",
"@  c #7C442A",
"#  c #704A36",
"$  c #7D4E39",
"%  c #784734",
"&  c #524F4E",
"*  c #615E5C",
"=  c #7F685D",
"-  c gray43",
";  c #804000",
":  c #9F4B10",
">  c #954314",
",  c #BE500E",
"<  c #A54C16",
"1  c #A44F1A",
"2  c #BC4617",
"3  c #B64618",
"4  c #BA4618",
"5  c #BE4F1E",
"6  c #AA5013",
"7  c #B3541E",
"8  c #BE5214",
"9  c #824328",
"0  c #8B4528",
"q  c #954B29",
"w  c #9E502B",
"e  c #834932",
"r  c #834432",
"t  c #8C553D",
"y  c #915238",
"u  c #A64E27",
"i  c #A75122",
"p  c #A45028",
"a  c #B05222",
"s  c #BD5826",
"d  c #BC5429",
"f  c #A45432",
"g  c #BA5C37",
"h  c #C55A0A",
"j  c #D9540E",
"k  c #DE590C",
"l  c #D25B0F",
"z  c #C24716",
"x  c #C74C15",
"c  c #CE4914",
"v  c #D14C16",
"b  c #C25013",
"n  c #CB5311",
"m  c #C7531D",
"M  c #CD5B15",
"N  c #D4531A",
"B  c #DA5A1F",
"V  c #E35F0A",
"C  c #DD660C",
"Z  c #D96215",
"A  c #ED6B06",
"S  c #E46209",
"D  c #E86508",
"F  c #F16F05",
"G  c #F57303",
"H  c #F87602",
"J  c #FD7C02",
"K  c #F07008",
"L  c #E26910",
"P  c #E06818",
"I  c #E6751B",
"U  c #C65421",
"Y  c #C35824",
"T  c #C85924",
"R  c #DA5C22",
"E  c #CF5F32",
"W  c #C25F39",
"Q  c #D05F32",
"!  c #DF6124",
"~  c #D2642B",
"^  c #DE6429",
"/  c #D46828",
"(  c #DF682B",
")  c #CF6032",
"_  c #C56333",
"`  c #D96831",
"'  c #E26527",
"]  c #E36628",
"[  c #E46A2B",
"{  c #E86D2D",
"}  c #EA702F",
"|  c #E46E30",
" . c #EA7332",
".. c #ED7937",
"X. c #ED7A39",
"o. c #E37638",
"O. c #9F6E5A",
"+. c #A56A4C",
"@. c #B96C4D",
"#. c #A86A5A",
"$. c #A26C51",
"%. c #AF7459",
"&. c #B7755B",
"*. c #BC775A",
"=. c #956F71",
"-. c #9C7672",
";. c #AC7D69",
":. c #C37C5C",
">. c #C97E5B",
",. c #FF840D",
"<. c #E7801F",
"1. c #FF8612",
"2. c #FF8815",
"3. c #FF8E20",
"4. c #FF942C",
"5. c #EE803E",
"6. c #FF9630",
"7. c #F5983E",
"8. c #FE9C3C",
"9. c #F2953A",
"0. c #98877F",
"q. c #98887E",
"w. c #A7836B",
"e. c #A4887C",
"r. c #A38174",
"t. c #B68B74",
"y. c #BC8B7A",
"u. c #BF9C7F",
"i. c #CB875E",
"p. c #C2855C",
"a. c #DF8D57",
"s. c #ED8141",
"d. c #EB8648",
"f. c #F08847",
"g. c #F28C4B",
"h. c #F08443",
"j. c #FF9E40",
"k. c #E0905C",
"l. c #E59F5F",
"z. c #F49454",
"x. c #F69D5D",
"c. c #FFA34A",
"v. c #FFA650",
"b. c #FFA954",
"n. c #FFAB59",
"m. c #C79A7A",
"M. c #EA9E78",
"N. c #CEA27B",
"B. c #E9A160",
"V. c #F8A565",
"C. c #FAAC6C",
"Z. c #FFB266",
"A. c #FDB46B",
"S. c #FBAF70",
"D. c #FCB474",
"F. c #FFB873",
"G. c #FEBC7D",
"H. c #3F7FCE",
"J. c #4181CF",
"K. c #5883C2",
"L. c #4B87D2",
"P. c #4986D1",
"I. c #5990D7",
"U. c #799FD5",
"Y. c #7EA0D0",
"T. c #76A6E3",
"R. c #7DAAE6",
"E. c #848483",
"W. c #8F8581",
"Q. c #8B8B8B",
"!. c #948883",
"~. c #9B8D80",
"^. c #938D8B",
"/. c #948290",
"(. c #959595",
"). c #9E9E9E",
"_. c #A8938B",
"`. c #A59485",
"'. c #B49C8C",
"]. c #A49992",
"[. c #AB9E93",
"{. c #A39D9A",
"}. c #B39B97",
"|. c #ACA197",
" X c #ACA39F",
".X c #B3A096",
"XX c #B1A59D",
"oX c #BFA49B",
"OX c #BAA492",
"+X c #879BBE",
"@X c #899CBF",
"#X c #A3A3A3",
"$X c #AEA8A6",
"%X c #ACACAB",
"&X c #B1A7A0",
"*X c #B6ABA3",
"=X c #B6ACA7",
"-X c #A5ADBA",
";X c #BCAEB3",
":X c #AFB4B9",
">X c #C69885",
",X c #DFAB80",
"<X c #D0AA9B",
"1X c #D9AC9B",
"2X c #C7B29E",
"3X c #E3B186",
"4X c #E0B088",
"5X c #F4BB83",
"6X c #E6AB90",
"7X c #ECB196",
"8X c #E4BC9C",
"9X c #ECB69B",
"0X c #DBBBAA",
"qX c #C3B1B2",
"wX c #CABBB5",
"eX c #F5C09B",
"rX c #DFC1AB",
"tX c #F1CBA9",
"yX c #F9CBAD",
"uX c #EED0B6",
"iX c #EED4BE",
"pX c #F8D0B3",
"aX c #FAD7BF",
"sX c #F0D4BC",
"dX c #97A5C0",
"fX c #9DB0CD",
"gX c #8CACDA",
"hX c #B2B7C6",
"jX c #A6B9D5",
"kX c #80ADE7",
"lX c #87B2E9",
"zX c #8AB3EB",
"xX c #95BBEF",
"cX c #BCC4D3",
"vX c #BFCAD7",
"bX c #B1CFF9",
"nX c #B4D1FA",
"mX c #BCD6FE",
"MX c #BFD9FF",
"NX c #C4C5CF",
"BX c #C8C5CA",
"VX c #DEC8C0",
"CX c #C2CDDB",
"ZX c #EDDBCF",
"AX c #F6D5C0",
"SX c #C8D5E5",
"DX c #C3DBFF",
"FX c #D5E6FF",
"GX c #D8E7FF",
"HX c #DBE9FF",
"JX c #E0EDFF",
"KX c #EFF4FE",
"LX c #F2F7FD",
"PX c #F6F9FF",
"IX c #F9FBFD",
"UX c None",
/* pixels */
"UXUXUXUXUXUXUXUX#X%X%X$X%X#X$XcXvX%X%X%X%X%XUXUXUXUXUXUXUXUXUXUX",
"UXUXUXUXUXUXUX#X%XUXUX`.$.r.-XfXjXNXy.d UXUX%XUXUXUXUXUXUXUXUXUX",
"UXUXUXUXUXUXUX%XUXUXx c R 6XLXLXLXLX7X] R x @.$XUXUXUXUXUXUXUXUX",
"UXUXUXUXUXUXUX{.z v ' ..g.yXPXPXLXPXpXx.g.X.] Y UXUXUXUXUXUXUXUX",
"UXUXUXUXUXUXUXW.! X.z.D.G.sXHXGXFXGXuXG.G.S.z.X.R UXUXUXUXUXUXUX",
"UXUXUXUXUX4 v ].g.C.G.Z.j.3XDXDXmXDX,X,.j.Z.G.C.g.[ 4 UXUXUXUXUX",
"UXUXUXUXUXc { &XG.F.j.H P :.gX@X+XgX:.Z K J j.F.G.z.{ UXUXUXUXUX",
"UXUXUXUXc [ k.*XZ.1.L Y a O   e UX  o a Y k G 1.Z.G.z.[ UXUXUXUX",
"UXUXUX2 Z g.*XN.,.Z 7 . UXUXUXE UXUXUXUX. a M F ,.Z.G.f.T UXUXUX",
"UXUXUXv ..[.OX2.C < UXUXUXUXUXE UXUXUXUXUX* 1 l F 1.F.C...UXUXUX",
"UXUX4 ` ].'.8.F 6 UXUXUXUXUXUXE UXUXUXUXUXUXE.< S G 8.G.z._ %XUX",
"UXUX_ =Xm.Z.,.h X UXUXUXUXUXUXE UXUXUXUXUXUX).=., D J A.C. ._.%X",
"UXO..Xa.G.c.G < UXUXUXUXUXUXUXE UXUXUXUXUXUXUXUX> V G c.5Xg.f =X",
"UX$X0XAXZX0X}.# UXUXUXUXUXUXUXE UXUXUXUXUXUXUXUX+ /.2XrXZXaX>X%X",
"#X;XLXLXFXmXR.UXUXUXUXUXUXUXUXQ UXUXUXUXUXUXUXUXUXI.xXDXJXIXVX%X",
"SXdXPXKXFXnXY.UX) ) ) ) ) ) ) ) 1 ) ) ) ) ) ) ) UXK.zXDXHXPXcXvX",
"CXhXIXKXFXbXU.UX; ; ; ; ; ; ; s ; ; ; ; ; ; ; ; UXK.zXDXGXIXBX:X",
"UXqXIXLXFXnXT.UXUXUXUXUXUXUXUXE UXUXUXUXUXUXUXUXUXL.zXDXHXIXwX%X",
").&.M.eXtXl.p.e UXUXUXUXUXUXUXQ UXUXUXUXUXUXUXUXr #.i.B.tX8X XUX",
").u R z.G.4.F , UXUXUXUXUXUXUXE UXUXUXUXUXUXUXUX3 k A 9.2XXX+.UX",
"#XUXR h.G.b.G V UXUXUXUXUXUXUXE UXUXUXUXUX X).!.&.w.`.|.m.o.UXUX",
"#XUXU { V.F.,.A n UXUXUXUXUXUXQ UXUXUXUX).Q.UXw.t.p.<.A.V.~ UXUX",
").#X9 ' g.G.v.H D b UXUXUXUXUXQ UXUXUXUX(.UXz j D H v.5Xf.w UXUX",
"UX#XUXm } V.G.4.G S n UXUXUXUXE UXUXUXUXQ.z j S G 4.F.V.~ UXUXUX",
"UX#X%XUXR 5.C.F.3.G D k x UXUXUXUXUXUXg q.k D G 3.F.S.( @ UXUXUX",
"UXUX%X(.% R f.D.D.6.H A S -.L.J.J.J.=./ q.A H 6.F.D.[ q UXUXUXUX",
"UXUXUXUXE.y B s.S.G.b.,.H m.lXR.R.kXy.I ~.,.b.G.V.( p UXUXUXUXUX",
"UXUXUXUXUXUX$ B | n.5XF.n.8XmXmXmXMX4X9.[.F.G.d.R 9 UXUXUXUXUXUX",
"UXUXUXUXUXUXUXo 5 N o.x.D.iXGXFXFXFXiX5X*Xd.R U O UXUXUXUXUXUXUX",
"UXUXUXUXUXUXUXUXUX+ m v B 9XIXLXLXLX9Xi.'.m @ UXUXUXUXUXUXUXUXUX",
"UXUXUXUXUXUXUXUXUXUXUX& t *.1XqX;X<Xt. X* UXUXUXUXUXUXUXUXUXUXUX",
"UXUXUXUXUXUXUXUXUXUXUXUXUX- E.-XhX).(.UXUXUXUXUXUXUXUXUXUXUXUXUX"
};
