/* XPM */
static const char *mob[] = {
/* columns rows colors chars-per-pixel */
"32 32 239 2",
"   c #BE500E",
".  c #AB541D",
"X  c #93553B",
"o  c #A5562A",
"O  c #AB5E2B",
"+  c #B65824",
"@  c #B55E32",
"#  c #B66133",
"$  c #C55B0C",
"%  c #D9540E",
"&  c #D25B0F",
"*  c #DE590C",
"=  c #CE4A14",
"-  c #D14C16",
";  c #CD5B15",
":  c #D4531A",
">  c #DA5A1F",
",  c #E35F0A",
"<  c #DD660C",
"1  c #D96215",
"2  c #ED6B06",
"3  c #E4620A",
"4  c #E86508",
"5  c #F16F05",
"6  c #F57303",
"7  c #F87602",
"8  c #FD7C02",
"9  c #F07008",
"0  c #E26910",
"q  c #E06818",
"w  c #E6751B",
"e  c #C35925",
"r  c #CA5B2B",
"t  c #D05F24",
"y  c #DA5D23",
"u  c #C25B32",
"i  c #CD6029",
"p  c #DE6124",
"a  c #DB682B",
"s  c #C1623C",
"d  c #CA6639",
"f  c #D76833",
"g  c #D46E3C",
"h  c #C9703D",
"j  c #E26527",
"k  c #E36628",
"l  c #E4692B",
"z  c #E86D2D",
"x  c #EA702F",
"c  c #E36D30",
"v  c #EA7333",
"b  c #ED7937",
"n  c #E37738",
"m  c #ED7A39",
"M  c #8F5942",
"N  c #936B5B",
"B  c #9B715F",
"V  c #B56D4C",
"C  c #A77B4F",
"Z  c #A86A5A",
"A  c #AF7459",
"S  c #BE7A5E",
"D  c #877167",
"F  c #956F71",
"G  c #9C7672",
"H  c #917C70",
"J  c #A77A67",
"K  c #B27C63",
"L  c #C8734B",
"P  c #C37C5D",
"I  c #C97E5B",
"U  c #D87C57",
"Y  c #FF840D",
"T  c #E7801F",
"R  c #FF8612",
"E  c #FF8815",
"W  c #FF8E20",
"Q  c #FF942C",
"!  c #EE803E",
"~  c #FF9630",
"^  c #F3973C",
"/  c #FE9C3C",
"(  c #98887E",
")  c #AB826D",
"_  c #B68268",
"`  c #BD836B",
"'  c #A4867C",
"]  c #B38B76",
"[  c #BB8F7B",
"{  c #BF9F7F",
"}  c #C5865C",
"|  c #DF8D57",
" . c #ED8141",
".. c #EB8648",
"X. c #F08847",
"o. c #F28C4B",
"O. c #FF9E40",
"+. c #E2975E",
"@. c #F49454",
"#. c #F69D5D",
"$. c #FFA34A",
"%. c #FFA954",
"&. c #FFAB59",
"*. c #C28661",
"=. c #DB8866",
"-. c #DD8C6B",
";. c #C79A7A",
":. c #D49074",
">. c #DF9375",
",. c #D6977D",
"<. c #E59B79",
"1. c #CEA27B",
"2. c #E9A160",
"3. c #F8A565",
"4. c #FAAC6C",
"5. c #FFB266",
"6. c #FDB46B",
"7. c #FBAF70",
"8. c #FCB474",
"9. c #FFB873",
"0. c #FEBC7D",
"q. c #3F7FCE",
"w. c #5883C2",
"e. c #4A86D2",
"r. c #5990D7",
"t. c #7CA0D2",
"y. c #76A6E3",
"u. c #7DAAE6",
"i. c #8A8481",
"p. c #998D85",
"a. c #93918F",
"s. c #948290",
"d. c #949494",
"f. c #9B9694",
"g. c #9B9B9B",
"h. c #A58D82",
"j. c #A79489",
"k. c #B49C8C",
"l. c #BC9A8E",
"z. c #A59790",
"x. c #A49992",
"c. c #AB9E93",
"v. c #B39B97",
"b. c #BC9D90",
"n. c #ACA19B",
"m. c #BCA293",
"M. c #B4A49B",
"N. c #B9A298",
"B. c #ACA5A1",
"V. c #A9A9A9",
"C. c #B1A7A0",
"Z. c #B6ABA3",
"A. c #B1ACAB",
"S. c #BDAFB3",
"D. c #A9B2BE",
"F. c #B4B4B4",
"G. c #BCBCBC",
"H. c #C79786",
"J. c #D09C87",
"K. c #E29E82",
"L. c #C2A485",
"P. c #C6AA8E",
"I. c #C6AC92",
"U. c #CCAA94",
"Y. c #DDAA96",
"T. c #D5AD9D",
"R. c #CAB29B",
"E. c #E3A48A",
"W. c #E4A48B",
"Q. c #E1B087",
"!. c #F4BB83",
"~. c #E4AB94",
"^. c #E7AF98",
"/. c #ECB196",
"(. c #E9B49D",
"). c #E4BC9C",
"_. c #CAADA8",
"`. c #CAB7AE",
"'. c #DFB3A2",
"]. c #D4BEA8",
"[. c #DBBBAA",
"{. c #C4B2B3",
"}. c #C9BCB9",
"|. c #E3B5A4",
" X c #F5C09B",
".X c #DBC1AD",
"XX c #D8C6B6",
"oX c #DECDBC",
"OX c #F1CBA9",
"+X c #F9CBAD",
"@X c #EED0B6",
"#X c #EED4BE",
"$X c #8B9EC0",
"%X c #99A6C1",
"&X c #9DB1CD",
"*X c #89AAD9",
"=X c #90AFDB",
"-X c #B5B7C2",
";X c #A7B9D5",
":X c #87B2E9",
">X c #8AB3EB",
",X c #95BBEF",
"<X c #B7C0CC",
"1X c #BDC1D0",
"2X c #B1CFF9",
"3X c #B4D1FA",
"4X c #BCD6FE",
"5X c #BFD9FF",
"6X c #C3C3C3",
"7X c #C7C7CA",
"8X c #CBCBCB",
"9X c #D4CDCC",
"0X c #C2C8D4",
"qX c #D3D3D3",
"wX c #DCDCDC",
"eX c #EACEC3",
"rX c #ECD1C6",
"tX c #EBD4CA",
"yX c #EDDBCF",
"uX c #F6D5C0",
"iX c #CCD5E0",
"pX c #D7DBE6",
"aX c #D6DDE5",
"sX c #C3DBFF",
"dX c #D5E6FF",
"fX c #D8E7FF",
"gX c #DBE9FF",
"hX c #E5E5E5",
"jX c #E0E6ED",
"kX c #ECECEC",
"lX c #F5EAE6",
"zX c #FCF3EF",
"xX c #E0EDFF",
"cX c #EEF4FE",
"vX c #F4F4F3",
"bX c #FDF7F5",
"nX c #F2F7FD",
"mX c #F6F9FF",
"MX c #FFFFFF",
/* pixels */
"MXMXMXMXMXMXMXMX8XG.6X8XqX8X7XiXiX}.-X6XG.6XhXMXMXMXMXMXMXMXMXMX",
"MXMXMXMXMXMXMX8X6XkXwX`.) ' D.&X;X0XH.,.eXwXG.wXMXMXMXMXMXMXMXMX",
"MXMXMXMXMXMXMXG.vX(.r = y ~.vXvXnXnX/.k > r J.7XMXMXMXMXMXMXMXMX",
"MXMXMXMXMXMXMXB.r - j b o.+XmXmXnXnX+X#.o.b j r eXMXMXMXMXMXMXMX",
"MXMXMXMXMXMX~.i.p m @.8.0.#XgXfXfXgX@X9.0.8.@.m p ~.MXMXMXMXMXMX",
"MXMXMXMXMX:.- x.o.4.0.5.O.Q.sX5X5X5XQ.Y / 5.0.4.o.l :.MXMXMXMXMX",
"MXMXMXMXY.= z C.0.9./ 7 q I =X$X$X*XP 1 9 7 / 9.0.@.z Y.MXMXMXMX",
"MXMXMXrX= k +.Z.5.R 0 e # H g.l.V.g.H # e 1 6 Y 5.0.@.l rXMXMXMX",
"MXMXMXu > o.N.1.Y < + p.wXvXMX=.oXMXvXwXp.+ ; 2 8 5.0.X.g MXMXMX",
"MXMX|.- b n.m.E < O G.nXMXMXMX-.oXMXMXMXvXn.o & 9 E 9.4.b '.MXMX",
"MXMXu f x.k./ 9 . 8XMXMXMXMXMX-.XXMXMXMXMXhXg.. 3 6 O.0.@.d F.hX",
"MXlXs Z.;.6.8 $ x.bXMXMXMXMXMX-.XXMXMXMXMXMXF.D   4 8 6.3.b 9X6X",
"MXl.M.| 0.$.6 O vXMXMXMXMXMXMX>..XMXMXMXMXMXMXvXo , 6 $.0.o.H.G.",
"bXA.[.uXyX[.c.h.MXMXMXMXMXMXMX>.].MXMXMXMXMXMXMXp.s.I..XyXuXU.G.",
"8XA.nXnXdX4Xu.7XMXMXMXMXMXMXMX<.].MXMXMXMXMXMXMX{.r.,XsXxXMXoXG.",
"aX%XmXcXdX3Xt.(.^.^.^.^.^.^.^.U *.^.^.^.^.^.^.^.^.w.>XsXgXmX1X0X",
"jX-XmXcXdX2Xt.P.{ { { { { 1.l.L C ;.k.1.{ { { { I.w.>XsXgXmX7X-X",
"9X{.mXnXdX3Xy.wXMXMXMXMXbXMXMXK.R.MXMXMXMXMXMXMX9Xe.>XsXxXmX}.6X",
"G.` <. XOX+.} l.MXMXMXMXMXMXMXE.I.MXMXMXMXMXMXMXb.Z *.2.OX).M.kX",
"F.` p @.0.Q 5 h MXMXMXMXMXMXMXW.I.MXMXMXMXMXMXMXs * 5 ^ R.M._ MX",
"A.9Xp  .0.%.6 3 tXMXMXMXMXMXMXW.I.MXMXMXMX6XF.v.A ) j.c.l.n XXMX",
"F.hXi v 3.9.Y 2 i bXMXMXMXMXMXW.P.MXMXMXF.V.qX) ] } T 6.3.f mXMX",
"8X8X] p o.0.$.7 4 L bXMXMXMXMX~.L.MXMXMXg.zXd % 4 7 %.!.! ` MXMX",
"bXA.hXs x 3.0.Q 6 3 t rXMXMXMX^.L.MXMXkXf.r % 3 6 Q 8.&.f kXMXMX",
"MX7X6XM.y ! 7.9.W 6 4 * L T.pX|.I.aX_.V p.* 4 6 W 9.7.a m.MXMXMX",
"MXMXG.V.B y X.8.9.~ 7 2 , G e.q.q.e.F a ( 2 7 Q 9.8.c K bXMXMXMX",
"MXMXMXqXd.X >  .6.0.%.Y 7 ;.:Xu.u.u.[ w ( Y %.0.3.j V kXMXMXMXMX",
"MXMXMXMXMXhXN : x #.!.8.&.).5X4X4X5XQ.^ c.9.0...t J hXMXMXMXMXMX",
"MXMXMXMXMXMXvXz.@ : v #.8.uXfXfXdXfX#X!.Z...y r j.vXMXMXMXMXMXMX",
"MXMXMXMXMXMXMXbX8X) e : y /.mXnXnXnX(.I k.r J qXbXMXMXMXMXMXMXMX",
"MXMXMXMXvXvXkXkXjXwXF.i.M S T.{.S.T.[ B.a.F.qXaXhXkXkXvXmXMXMXMX",
"MXMXMXmXvXkXkXhXwXwXqX8XG.g.d.D.<XV.V.F.8X9XqXwXhXhXkXkXvXbXMXMX"
};
