/* XPM */
static const char *print[] = {
/* columns rows colors chars-per-pixel */
"32 32 201 2",
"   c gray3",
".  c gray4",
"X  c #0B0B0B",
"o  c #101010",
"O  c #111111",
"+  c #1D1D1E",
"@  c #1E1E1E",
"#  c gray12",
"$  c gray13",
"%  c #2D2D2D",
"&  c #2F2F2F",
"*  c gray20",
"=  c #353535",
"-  c gray21",
";  c #363637",
":  c #373737",
">  c #373739",
",  c gray24",
"<  c #3E3E3E",
"1  c gray28",
"2  c gray32",
"3  c #535353",
"4  c gray33",
"5  c #555555",
"6  c #565656",
"7  c gray34",
"8  c #5D5D5D",
"9  c gray37",
"0  c #606060",
"q  c gray38",
"w  c #616163",
"e  c #646465",
"r  c #6C6C6C",
"t  c #6F6F6F",
"y  c #717171",
"u  c gray45",
"i  c gray46",
"p  c #767676",
"a  c #777777",
"s  c #797979",
"d  c gray48",
"f  c #7B7B7B",
"g  c #7C7C7C",
"h  c gray49",
"j  c #808080",
"k  c #818181",
"l  c gray51",
"z  c gray52",
"x  c gray53",
"c  c #888888",
"v  c gray54",
"b  c gray56",
"n  c #909090",
"m  c #929292",
"M  c gray58",
"N  c #959595",
"B  c #959597",
"V  c #979797",
"C  c #98989A",
"Z  c #9A9A9A",
"A  c #9B9B9B",
"S  c gray61",
"D  c #9D9D9D",
"F  c gray62",
"G  c #9F9F9F",
"H  c #A5A5A5",
"J  c #A7A7A7",
"K  c #A1A1A8",
"L  c #A3A3A9",
"P  c gray66",
"I  c #A9A9A9",
"U  c #A8A8AD",
"Y  c #A9A9AE",
"T  c #ACACAC",
"R  c #AEAEAE",
"E  c #ACACB2",
"W  c #AEAEB4",
"Q  c gray69",
"!  c #B1B1B1",
"~  c gray70",
"^  c #B0B0B6",
"/  c gray71",
"(  c #B6B6B6",
")  c #B4B4B9",
"_  c #B5B5BA",
"`  c #B6B6BA",
"'  c gray72",
"]  c gray73",
"[  c #BBBBBB",
"{  c #B8B8BC",
"}  c #BABABE",
"|  c gray74",
" . c #BCBCBF",
".. c gray",
"X. c gray75",
"o. c #BCBCC1",
"O. c #BEBEC2",
"+. c #BEBEC3",
"@. c #C1C1C1",
"#. c gray76",
"$. c #C3C3C3",
"%. c #C3C3C4",
"&. c #C2C2C6",
"*. c gray77",
"=. c #C4C4C8",
"-. c #C5C5C9",
";. c #C6C6CA",
":. c #C8C8C8",
">. c #C8C8CC",
",. c #CACACE",
"<. c #CDCDCD",
"1. c #CDCDCF",
"2. c #CECECE",
"3. c gray81",
"4. c #CFCFD3",
"5. c #D0D0D0",
"6. c #D2D2D2",
"7. c #D2D2D3",
"8. c LightGray",
"9. c #D0D0D4",
"0. c #D1D1D5",
"q. c #D3D3D6",
"w. c gray83",
"e. c #D5D5D5",
"r. c gray84",
"t. c #D7D7D7",
"y. c #D6D8D4",
"u. c #D5D5D8",
"i. c #D6D6D9",
"p. c #D7D7DA",
"a. c #D8D8D8",
"s. c gray85",
"d. c #D8D8DB",
"f. c #DADADA",
"g. c gray86",
"h. c #DCDDDA",
"j. c #D9D9DC",
"k. c #DBDBDE",
"l. c gainsboro",
"z. c #DDDDDD",
"x. c #DCDCDF",
"c. c #DDDDDF",
"v. c gray87",
"b. c #DFDFDF",
"n. c #DDDDE0",
"m. c #DEDEE0",
"M. c gray88",
"N. c #E1E1E0",
"B. c #E1E1E1",
"V. c #E0E0E3",
"C. c #E1E1E3",
"Z. c #E2E2E2",
"A. c gray89",
"S. c #E1E1E4",
"D. c #E2E2E4",
"F. c #E3E3E6",
"G. c #E4E4E4",
"H. c #E4E5E4",
"J. c gray90",
"K. c #E5E5E7",
"L. c #E6E6E6",
"P. c #E6E6E7",
"I. c #E7E7E7",
"U. c #E6E6E8",
"Y. c #E7E7E9",
"T. c #E9E9E9",
"R. c #E8E8EA",
"E. c #E9E9EB",
"W. c #EAEAEA",
"Q. c #EAEAEC",
"!. c #ECECEC",
"~. c #ECECEE",
"^. c #EDEDEE",
"/. c #EEEEEE",
"(. c #EEEEEF",
"). c #EFEFEF",
"_. c #EFEFF0",
"`. c #EFEFF1",
"'. c #F0F0F1",
"]. c #F1F1F2",
"[. c gray95",
"{. c #F2F2F3",
"}. c #F3F3F4",
"|. c #F4F4F4",
" X c #F4F4F5",
".X c gray96",
"XX c #F5F5F6",
"oX c #F6F6F6",
"OX c gray97",
"+X c #F7F7F8",
"@X c #F8F8F8",
"#X c #F8F8F9",
"$X c #F9F9F9",
"%X c #F9F9FA",
"&X c gray98",
"*X c #FAFAFB",
"=X c #FBFBFB",
"-X c #FCFCFD",
";X c #FDFDFD",
":X c #FEFEFE",
">X c gray100",
/* pixels */
"L.L.L.L.L.L.L.L.L.L.L.L.L.L.L.L.L.L.L.L.L.L.L.L.L.L.L.L.L.L.L.L.",
"L.L.L.L.L.L.L.#.S S S S S S S S S S S S S S S S #.L.L.L.L.L.L.L.",
"L.L.L.L.L.L.L.A >X>X>X>X>X>X>X>X>X>X>X>X>X>X>X>XA L.L.L.L.L.L.L.",
"L.L.L.L.L.L.L.A ;X>X>X>X>X>X>X>X>X>X>X>X>X>X>X>XA L.L.L.L.L.L.L.",
"L.L.L.L.L.L.L.A $X:X>X>X>X>X>X>X>X>X>X>X>X>X>X:XA L.L.L.L.L.L.L.",
"L.L.L.L.L.L.L.A  X&X:X>X>X>X>X>X>X>X>X>X>X>X:X%XA L.L.L.L.L.L.L.",
"L.L.L.L.L.L.L.A ^. X%X;X>X>X>X>X>X>X>X>X>X;X%X XA L.L.L.L.L.L.L.",
"L.L.L.L.L.L.M.r K.~.}.+X=X;X>X>X>X>X>X;X*X+X}.~.r M.L.L.L.L.L.L.",
"L.L.L.L.L.L.z.q n.F.Q.`. XOX#X%X&X%X#XOX X`.Q.F.q z.L.L.L.L.L.L.",
"L.L.L.L.L.L.v.8 q.k.C.U.Q.(.'.{.{.{.'.(.Q.U.C.k.8 v.L.L.L.L.L.L.",
"L.L.L.L.L.L.v.6 >.4.p.x.V.F.U.Y.R.Y.U.F.V.x.p.4.6 v.L.L.L.L.L.L.",
"L.z.c v M F V 2 o.=.,.9.u.j.k.c.n.c.k.j.u.9.,.=.2 D P F M v z.L.",
"L.<.c m D J G % U W _ } O.&.=.;.;.;.=.&.O.} _ W % J ! J D m <.L.",
"L.[ b Z H Q P 1 : : - - = = * * * * = = - - : : 1 R ] Q H Z ..L.",
"L.R A J ! [ [ , , , , , , , , , , , , , , , , , , | @.[ ! J / L.",
"L.y.).).).).B.!././././././././././././././././.!.B.).).).).y.L.",
"L.h.[.[.[.[.v.7 5 5 5 5 5 5 5 5 5 5 5 5 5 5 5 5 7 v.[.[.[.[.h.L.",
"L.N.oXoXoXoXv.4 3 3 3 3 3 a d d d d a 3 3 3 3 3 4 v.oXoXoXoXN.L.",
"L.H.&X&X&X&Xg.< , , , , 1 u u u u u u 1 , , , , < g.&X&X&X&XH.L.",
"L.$.I I I I I I I I I I I I I I I I I I I I I I I I I I I I $.L.",
"L.P.|.|.|.|.|.|.|.|.|.|.|.|.|.|.|.|.|.|.|.|.|.|.|.|.|.|.( I.P.L.",
"L.m.W.W.W.W.a.l.g.g.f.s.a.t.r.e.e.r.t.t.a.s.f.g.l.a.W.W...Z.m.L.",
"L.1.M.M.M.b.9 O O O o o o o o o o o o o o o o O O 9 b.M.G 5.1.L.",
"L. .8.8.8.X.:XX .                             . X :XX.8.$.w. .L.",
"L.Y *.*.*.T OX# + K U E ^ ) ` { { { ` ) ^ E U @ # OXT *.*.*.Y L.",
"L.L H H H n T.$ ; +.-.,.4.q.i.p.d.p.i.q.4.,.-.> $ T.n H H H L L.",
"L.L.L.L.L.L.z.& w 0.d.n.D.K.Y.E.E.E.Y.K.D.n.d.e & z.L.L.L.L.L.L.",
"L.L.L.L.L.L.G u B S.Y.^.].XXOX@X#X@XOXXX].^.Y.C u G L.L.L.L.L.L.",
"L.L.L.L.L.L.k ' %._.XX%X-X>X>X>X>X>X>X>X-X%XXX:.' k L.L.L.L.L.L.",
"L.L.L.L.L.L.d 0 2.%X:X>X>X>X>X>X>X>X>X>X>X>X:X7.0 d L.L.L.L.L.L.",
"L.L.L.G.M.g.a.N [.>X>X>X>X>X>X>X>X>X>X>X>X>X>X.XM 8.a.g.M.G.L.L.",
"L.J.A.M.f.t.6.~ x z j g s i u t t y u p f h l z ! 3.8.a.z.B.G.L."
};
