/* XPM */
static char *route[]={
"32 32 5 1",
". c None",
"b c #000000",
"# c #000080",
"a c #00ff00",
"c c #808080",
"................................",
"....................##..........",
"................#####a#.........",
"................#aaaaaa#........",
"....#############aaaaaaa#####...",
"....#...........#aaaaaa#........",
"....#...........#####a#.........",
"....#...............##..........",
"...#a#..........................",
"..#aaa#.........................",
".#aaaaa#........................",
".##aaa##........................",
"..#aaa#.........................",
"..#aaa#.........................",
"..#aaa#.........................",
"..####..........................",
"....#...........................",
"....#...........................",
"....#...........................",
".......bbb.bbc.bbb.cbcbbbbbb....",
".......b.b.b.b.b...b.b.b.b......",
".......b...bbc.bb..bbb.b.bb.....",
".......b.b.b.b.b...b.b.b.b......",
".......bbb.b.b.bbb.b.b.b.bbb....",
"................................",
".b.b.bbb.b.b..bbc.bbb.b.bbbbbbb.",
".bcb.b...b.b..b.b.b.b.b.b.b.b...",
".bbb.bb..bbb..bbc.b.b.b.b.b.bb..",
".bcb.b...bcb..b.b.b.b.b.b.b.b...",
".b.b.bbb.b.b..b.b.bbb.bbb.b.bbb.",
"................................",
"................................"};
