/* XPM */
static const char *route[] = {
/* columns rows colors chars-per-pixel */
"32 32 132 2",
"   c #055504",
".  c #0A5506",
"X  c #0D5A06",
"o  c #0E5C0A",
"O  c #145D00",
"+  c #026500",
"@  c #096206",
"#  c #026B01",
"$  c #0A6B06",
"%  c #0E640C",
"&  c #0D6C0A",
"*  c #176000",
"=  c #196100",
"-  c #19630F",
";  c #126D0A",
":  c #007300",
">  c #0C7300",
",  c #007B00",
"<  c #0B7408",
"1  c #127700",
"2  c #157A00",
"3  c #1B7D00",
"4  c #13740C",
"5  c #127B0A",
"6  c #1E6512",
"7  c #166F12",
"8  c #177210",
"9  c #1B7412",
"0  c #137F13",
"q  c #1B761A",
"w  c #216714",
"e  c #2A6D16",
"r  c #257716",
"t  c #237B14",
"y  c #297B16",
"u  c #227F1F",
"i  c #297E29",
"p  c #3A732A",
"a  c #407A27",
"s  c #008300",
"d  c #008B00",
"f  c #12830A",
"g  c #1A830F",
"h  c #128B0A",
"j  c #009400",
"k  c #009B00",
"l  c #12920A",
"z  c #129A0A",
"x  c #1C8C1C",
"c  c #169916",
"v  c #238200",
"b  c #298316",
"n  c #298B16",
"m  c #2E861D",
"M  c #299217",
"N  c #299A16",
"B  c #00A300",
"V  c #00AB00",
"C  c #12A60A",
"Z  c #12AB0A",
"A  c #00B400",
"S  c #00BB00",
"D  c #12B20A",
"F  c #29A316",
"G  c #29AC16",
"H  c #29B216",
"J  c #238121",
"K  c #3D8227",
"L  c #378E21",
"P  c #35892E",
"I  c #3B8B29",
"U  c #209420",
"Y  c #249C24",
"T  c #338433",
"R  c #3E8A3E",
"E  c #26A226",
"W  c #50843C",
"Q  c #00C000",
"!  c #469446",
"~  c #479D47",
"^  c #4E944E",
"/  c #4D9D4D",
"(  c #519550",
")  c #569A56",
"_  c #5D9D5D",
"`  c #609D5F",
"'  c #47A547",
"]  c #47A947",
"[  c #4EA44E",
"{  c #55A455",
"}  c #54AD54",
"|  c #5EA35E",
" . c #66A366",
".. c #67A967",
"X. c #6EA76E",
"o. c #76AC76",
"O. c #7DB07D",
"+. c #61D861",
"@. c #85B585",
"#. c #89B686",
"$. c #88B688",
"%. c #8DBA8D",
"&. c #90BC8F",
"*. c #94BF94",
"=. c #91C18E",
"-. c #95C095",
";. c #98C297",
":. c #9DC49D",
">. c #A4C7A4",
",. c #A6C9A6",
"<. c #ACCDAC",
"1. c #BAC8B6",
"2. c #BCC9B8",
"3. c #B1D0B0",
"4. c #BED7BE",
"5. c #C4DBC4",
"6. c #CAD6C8",
"7. c #CDD8CB",
"8. c #DDDFDC",
"9. c #DAEAD7",
"0. c #DEE0DC",
"q. c #DDEDDD",
"w. c #DEF3DE",
"e. c #E0E0D7",
"r. c #E1E2DD",
"t. c #E5E5E5",
"y. c #E7E8E6",
"u. c #EBEBE9",
"i. c #E6F2E6",
"p. c #E9F2E9",
"a. c #F2F7F2",
"s. c #FCFDFC",
/* pixels */
"t.t.t.t.t.t.t.t.t.t.t.t.t.t.t.t.t.t.t.t.t.t.t.t.t.t.t.t.y.t.t.y.",
"y.t.t.t.t.t.r.t.t.t.t.t.0.t.t.t.t.r.t.t.t.t.t.t.t.t.u.u.u.t.y.y.",
"y.t.7.#.u : $ > 1 2 3 3 3 v v v v v v v 3 3 3 1 > > P @.#.6.t.t.",
"y.t.@.9.,.3.3.3.3.3.3.3.3.3.3.3.3.3.3.<.3.<.3.3.<.3.3.3.X.( t.t.",
"t.t.b ;.:.:.:.:.<.<.:.:.:.:.:.:.:.:.:.:.:.:.:.:.:.:.:.:.,.& t.t.",
"t.t.# -.*.*.*.3.s.i.*.*.*.*.*.*.*.-.*.*.*.*.*.*.*.*.*.*.<.& t.t.",
"t.t.# &.%.%.3.s.s.<.%.%.%.%.%.%.&.%.%.%.%.%.%.%.%.%.%.%.>.& r.t.",
"t.8.+ @.@.,.s.s.,.@.@.@.@.$.@.$.@.@.@.@.@.@.$.@.@.@.@.@.:.% t.t.",
"t.8.+ O.3.s.s.5.<.3.<.<.<.<.<.<.$.O.O.O.O.O.O.O.O.O.O.O.:.% t.t.",
"y.t.+ o.a.s.s.s.s.s.s.s.s.s.s.s.q.o.o.o.o.o.o.o.o.o.o.o.*.% r.t.",
"t.r.+ X.>.s.s.4.>.>.>.>.>.>.>.a.p.X.X.X.X.X.X.X.X.X.X.X.*.% r.y.",
"t.0.X  . .%.s.s.*. . . . . ...p.p. . . . . . . . . . . .%.% 8.t.",
"t.r.X ` | _ %.s.s.$.` ` | | | p.p.| | | | | _ _ _ _ _ _ $.% r.t.",
"t.0.X ) ) ) ) @.s.9.) ) { { } p.p.{ } { { _ ) ) ) ) ) _ %.o r.t.",
"t.8.% ( ^ ^ ^ ^  .../ [ [ [ [ p.i.} } [ [ [ / / _  ._ ^ q   r.t.",
"y.0.o u i T R ! ! ~ ~ ' ] ] ] p.i.] } } } [ / / J + + $ &   8.t.",
"t.0.- # + + # < 0 x x U Y Y Y i.i.E c d s s s , : # # # 7   8.y.",
"t.0.o @ + + # : , s s d d j k w.q.k k j j d s s , : # $ ;   8.y.",
"t.r.- $ + # # , , s d j k k k w.w.B k k j j d s s : : & 7   8.t.",
"t.0.6 $ + # , , s d d k k k V w.w.V B B k j j d s , : < 8 . 8.t.",
"t.0.6 & + # , , s d j k B B V w.w.V V V B k j d d , , < q . 0.y.",
"y.e.w & # # , , s j k k B V A w.w.S A A B k j d s , , < 9 . 8.y.",
"t.e.w ; # : , s d j k k B A S w.s.w.w.w.w.w.w.q.w.q.q.-.r . 8.y.",
"y.e.w ; # # , s s d k B V A S +.w.w.w.w.w.w.w.w.w.q.q.=.t . 8.t.",
"t.e.e ; + : , s d j j k V V A S Q S A A B B j j d , , 4 t X 8.y.",
"t.e.e ; # # , , s j j B V V A A S A A V B B j d s s , 5 t X 8.y.",
"y.e.a r < 4 5 f h l l C C Z Z D D D Z Z C C z l h f g m 9   8.t.",
"t.r.W K y b b n M N N F G G H H H H H G F F N N M n L I 7 . r.t.",
"t.r.! e ; ; 4 5 0 f h h l l l z z z z l h h h f 5 5 9 7 O p 8.y.",
"t.t.1.p = = = = * O * O * * O O O O O O O O O O O O O X p 2.t.t.",
"t.t.t.t.8.8.e.r.8.8.8.8.8.8.8.8.8.8.0.8.8.8.8.8.8.8.8.8.t.t.t.t.",
"t.t.t.t.t.t.y.t.y.y.y.t.y.t.t.t.y.t.y.t.t.t.t.y.y.y.t.t.t.u.t.t."
};
