/* XPM */
static const char *scin[] = {
/* columns rows colors chars-per-pixel */
"32 32 172 2",
"   c #14232C",
".  c #192E3D",
"X  c #1B3139",
"o  c #25313C",
"O  c #122441",
"+  c #152A46",
"@  c #192B43",
"#  c #162E4E",
"$  c #1B314C",
"%  c #1F3B4E",
"&  c #183353",
"*  c #16325A",
"=  c #18335B",
"-  c #253343",
";  c #25364F",
":  c #253D55",
">  c #2C3F52",
",  c #173B67",
"<  c #183F77",
"1  c #183F79",
"2  c #223E64",
"3  c #203E69",
"4  c #2B4458",
"5  c #264B5D",
"6  c #28485A",
"7  c #344350",
"8  c #3E4952",
"9  c #3E4A5C",
"0  c #1B4267",
"q  c #19407A",
"w  c #2E4B6D",
"e  c #32506E",
"r  c #214272",
"t  c #294774",
"y  c #294875",
"u  c #28497A",
"i  c #304C73",
"p  c #375274",
"a  c #33527A",
"s  c #38557B",
"d  c #3B587D",
"f  c #495560",
"g  c #415668",
"h  c #4B5A6F",
"j  c #53606E",
"k  c #43657F",
"l  c #546174",
"z  c #51627D",
"x  c #656F78",
"c  c #2E5385",
"v  c #335483",
"b  c #385780",
"n  c #3C5A80",
"m  c #365A8D",
"M  c #3B5C8C",
"N  c #2E5794",
"B  c #23539B",
"V  c #29579C",
"C  c #2B599E",
"Z  c #3B5E90",
"A  c #345F9F",
"S  c #3F6296",
"D  c #2456A1",
"F  c #2558A6",
"G  c #275BAA",
"H  c #3B69AD",
"J  c #2C61B0",
"K  c #405E87",
"L  c #456285",
"P  c #46658C",
"I  c #4C6789",
"U  c #4C6A8D",
"Y  c #536A85",
"T  c #526F8F",
"R  c #426491",
"E  c #476895",
"W  c #4C6B94",
"Q  c #42659A",
"!  c #4C6C9A",
"~  c #516F93",
"^  c #547295",
"/  c #597697",
"(  c #5C7897",
")  c #53739B",
"_  c #5C7598",
"`  c #5E7A9A",
"'  c #657383",
"]  c #6A7587",
"[  c #757F8C",
"{  c #607A98",
"}  c #697F9D",
"|  c #456BA3",
" . c #486CA1",
".. c #4371A1",
"X. c #4E73A9",
"o. c #5273A0",
"O. c #5A79A7",
"+. c #5177AD",
"@. c #547BAD",
"#. c #5B7CAB",
"$. c #567CB3",
"%. c #587FB5",
"&. c #627EA1",
"*. c #758089",
"=. c #5A84B3",
"-. c #5D83B9",
";. c #6582A0",
":. c #6E86A3",
">. c #6E8BA7",
",. c #6583AB",
"<. c #6B86AE",
"1. c #6088AD",
"2. c #7389A6",
"3. c #708DA9",
"4. c #6E8BB3",
"5. c #6085BC",
"6. c #6388BF",
"7. c #688CBB",
"8. c #718EB2",
"9. c #6893B6",
"0. c #658CC1",
"q. c #698EC4",
"w. c #6C91C6",
"e. c #699AC4",
"r. c #6D96C8",
"t. c #6E9ECC",
"y. c #7297CC",
"u. c #7499CE",
"i. c #779CD0",
"p. c #7B9FD3",
"a. c #75A3D0",
"s. c #7CA2D5",
"d. c #6BBDDC",
"f. c #848A90",
"g. c #8B939E",
"h. c #8D99A9",
"j. c #959DA6",
"k. c #839CB4",
"l. c #8B9EBB",
"z. c #87A1BC",
"x. c #A4ACB8",
"c. c #A9AFB8",
"v. c #AEB1B6",
"b. c #B2B7BD",
"n. c #8DA9C1",
"m. c #80A3D7",
"M. c #82A6D9",
"N. c #86ADDE",
"B. c #89ACDF",
"V. c #87B0DF",
"C. c #A7B3C3",
"Z. c #BABEC3",
"A. c #B0BBCB",
"S. c #ADBCD2",
"D. c #8AAEE0",
"F. c #87B7E5",
"G. c #8EB3E5",
"H. c #92B4E6",
"J. c #94B7E8",
"K. c #96B8EA",
"L. c #9DBFF0",
"P. c #C1C5CA",
"I. c #C6C9CC",
"U. c #C9CACD",
"Y. c #CACDD0",
"T. c #CED0D2",
"R. c #D1D6DD",
"E. c #DCDDDE",
"W. c #DADDE0",
"Q. c #DFE1E1",
"!. c #E6E6E6",
"~. c #E8E8E8",
/* pixels */
"!.!.!.!.!.!.!.!.!.!.S.Z 1 q q q q q < < m l.!.!.!.!.!.!.!.!.!.!.",
"!.!.!.!.!.!.!.!.!.!.N k.k.k.k.k.k.k.k.k.z. .!.!.!.!.!.!.!.!.!.!.",
"!.!.!.~.!.~.!.!.!.!.B ;.;.;.;.;.;.;.;.;.:.C !.!.!.!.!.!.!.!.!.!.",
"!.!.A.| B B B D F G G ( _ ( ( ( ( ( ( / ` J G F V B B B <.!.!.!.",
"!.!.C.| _ { { { { { { T ~ ^ / ^ / / / ^ T ( ` ` { ( ` &.M.W.!.!.",
"!.!.!.v b L L L L P I U ~ ~ ^ ) ) ^ ) ^ ~ U I L L L L / v ~.!.!.",
"!.!.!.x.* s d d n P P P ~ ) ) ) ) ) ) ! W W P L d Y 2.p h.!.!.!.",
"!.!.!.!.] & i a n K P P ! ) o.o.) o.) ) W ) 2.:.} I # l !.!.!.!.",
"!.!.!.!.Q.> 2 a b M R E  .o.O.<.4.4.8.8.<.` v u r = ; E.!.!.!.!.",
"!.!.!.!.!.P.+ y v R ! o.O.&.$.O.X.X. . .Q S m v y O b.!.!.!.!.!.",
"!.!.!.!.!.!.g.# v M Q Q +.+.$.%.%.%.$.+.X.| Q M # [ !.!.!.!.!.!.",
"!.!.!.!.!.!.!.h 3 Q  .+.%.%.5.6.0.0.-.-.$.X. .w 9 ~.~.!.!.!.!.!.",
"!.!.!.!.!.!.!.R.; R +.$.-.6.q.w.w.w.q.0.-.%.E $ Y.!.!.!.!.!.!.!.",
"!.!.!.!.!.!.!.!.c.& @.5.q.w.y.i.i.u.y.w.6.-.$ j.!.!.!.!.!.!.!.!.",
"!.!.!.!.!.!.!.!.~.' w q.w.y.s.m.M.p.p.y.r.e j !.!.!.!.!.!.!.!.!.",
"!.!.!.!.!.!.!.!.!.Q.> W y.p.M.B.D.D.M.p.) - E.!.!.!.!.!.!.!.!.!.",
"!.!.!.!.!.!.!.!.!.!.Z.@ 7.m.B.H.K.H.D.r.. v.!.!.!.!.!.!.!.!.!.!.",
"!.!.!.!.!.!.!.!.!.!.!.*.: s.B.H.L.K.B.4 x !.!.!.!.!.!.!.!.!.!.!.",
"!.!.!.!.!.!.!.!.!.!.!.!.7 k F.G.J.G.U o !.!.!.!.!.!.!.!.!.!.!.!.",
"!.!.!.!.!.!.!.!.!.!.!.!.T.  1.N.V.9.  U.!.!.!.!.!.!.!.!.!.!.!.!.",
"!.!.!.!.!.!.!.!.!.!.!.!.!.g.X t.a.X f.!.!.!.!.!.!.!.!.!.!.!.!.!.",
"!.!.!.!.!.!.!.!.!.!.!.!.!.!.f 6 6 8 !.!.!.!.!.!.!.!.!.!.!.!.!.!.",
"!.!.!.!.!.!.!.!.!.!.!.!.!.!.Q.o o E.!.!.!.!.!.!.!.!.!.!.!.!.!.!.",
"!.!.!.!.!.!.!.!.!.!.!.!.!.!.!.!.!.!.!.!.!.!.!.!.!.!.!.!.!.!.!.!.",
"!.!.!.!.!.!.!.!.!.!.!.!.!.R.7.H d.7.R.!.!.!.!.!.!.!.!.!.!.!.!.!.",
"!.!.!.!.!.!.!.!.!.!.!.!.R.A #.z.n.8.A R.!.!.!.!.!.!.!.!.!.!.!.!.",
"!.!.!.!.!.!.!.!.!.!.!.!.1.S >.3.>.>.W ,.!.!.!.!.!.!.!.!.!.!.!.!.",
"!.!.!.!.!.!.!.!.!.!.!.!.m P T { ,.;.W v !.!.!.!.!.!.!.!.!.!.!.!.",
"!.!.!.!.!.!.!.!.!.!.!.!.a , c @.q.=.v t !.!.!.!.!.!.!.!.!.!.!.!.",
"!.!.!.!.!.!.!.!.!.!.!.!.Y 0 ..t.F.e., z !.!.!.!.!.!.!.!.!.!.!.!.",
"!.!.!.!.!.!.!.!.!.!.!.!.Y.& 2 =.e.s @ Y.!.!.!.!.!.!.!.!.!.!.!.!.",
"!.!.!.!.!.!.!.!.!.!.!.!.!.I.9 % 5 g I.~.!.!.!.!.!.!.!.!.!.!.!.!."
};
