/* XPM */
static char *scin[]={
"32 32 5 1",
". c None",
"# c #000000",
"b c #00ffff",
"a c #808000",
"c c #808080",
"................................",
"................................",
".....#########################..",
"....#aaaaaaaaaaaaaaaaaabbbbbb#..",
"....#aaaaaaabbbbbbaabbbbaaaa##..",
"...#aaaaaaaabbbbbbaaaaaaaaa#....",
"...#aaaaaaaabbbbbbbbbbbbbb#.....",
"..#aaaaaaabbbbaaabbbaaabbb#.....",
"..#aaaaaaaabbbabaaaaaaaab#......",
"..#aaaaaaabbbbbbbbbbbbaab#......",
".#aaaaaaaaaaaabbbbbbbbbb#.......",
".########################.......",
".............####...............",
".............####...............",
".............####...............",
".............####...............",
"........##############..........",
".........############...........",
"..........##########............",
"...........########.............",
"............######..............",
".............####...............",
"..............##................",
"................................",
"................................",
".###..##..##..#...###..#.#.#....",
".#...#....##..#...#....#.#c#....",
".###.#...#..#.#...##...#.###....",
"...#.#...####.#...#....#.#c#....",
".###..##.#..#.###.###..#.#.#....",
"................................",
"................................"};
