/* XPM */
static const char *scout[] = {
/* columns rows colors chars-per-pixel */
"32 32 169 2",
"   c #060B10",
".  c #0C131D",
"X  c #0D1522",
"o  c #0E1B2D",
"O  c #0C1F3C",
"+  c #1A2434",
"@  c #14243C",
"#  c #182739",
"$  c #212732",
"%  c #0F2342",
"&  c #132644",
"*  c #112748",
"=  c #182F4F",
"-  c #1E314D",
";  c #173053",
":  c #17335C",
">  c #273246",
",  c #2F3744",
"<  c #23344B",
"1  c #343E4B",
"2  c #213859",
"3  c #283D5C",
"4  c #1B3B67",
"5  c #223D64",
"6  c #214154",
"7  c #3C495C",
"8  c #244369",
"9  c #354965",
"0  c #2A566A",
"q  c #2A4A77",
"w  c #29497B",
"e  c #324B72",
"r  c #2D5D7E",
"t  c #345379",
"y  c #3B587D",
"u  c #444A55",
"i  c #49515B",
"p  c #4C5664",
"a  c #40536E",
"s  c #4A586D",
"d  c #446273",
"f  c #536073",
"g  c #5F6771",
"h  c #51627D",
"j  c #626C7B",
"k  c #1F4C8F",
"l  c #1F4D91",
"z  c #2E5286",
"x  c #345482",
"c  c #335F81",
"v  c #3C5B81",
"b  c #36588B",
"n  c #3B5B8C",
"m  c #214F94",
"M  c #215197",
"N  c #2A5697",
"B  c #23539B",
"V  c #3C5F91",
"C  c #345F9E",
"Z  c #3F6296",
"A  c #36609F",
"S  c #2456A1",
"D  c #2C5CA6",
"F  c #285EAE",
"G  c #3165B3",
"H  c #415C84",
"J  c #415F88",
"K  c #456385",
"L  c #456388",
"P  c #4A678C",
"I  c #4C6A8E",
"U  c #506B8D",
"Y  c #436593",
"T  c #486796",
"R  c #4E6D95",
"E  c #466A9F",
"W  c #4A6C98",
"Q  c #506F93",
"!  c #596F93",
"~  c #547397",
"^  c #5B7595",
"/  c #54739B",
"(  c #58769B",
")  c #5D7B9C",
"_  c #697486",
"`  c #727A84",
"'  c #747D8B",
"]  c #617C9B",
"[  c #476BA0",
"{  c #486CA1",
"}  c #4D72A7",
"|  c #4F74AA",
" . c #5374A2",
".. c #5B7BA3",
"X. c #5277AD",
"o. c #5479AE",
"O. c #5B7DAA",
"+. c #416DB0",
"@. c #4F79B6",
"#. c #567CB3",
"$. c #587FB6",
"%. c #637DA1",
"&. c #4982A8",
"*. c #5085AE",
"=. c #5E82B7",
"-. c #5D83BA",
";. c #6582A0",
":. c #6480AA",
">. c #6A86AE",
",. c #7388A7",
"<. c #748DAB",
"1. c #6283B2",
"2. c #6286BC",
"3. c #6489BD",
"4. c #6C8DBC",
"5. c #778FB0",
"6. c #7692B4",
"7. c #7896B3",
"8. c #7693BC",
"9. c #7894BA",
"0. c #7C9BB9",
"q. c #519DCB",
"w. c #658AC0",
"e. c #688EC3",
"r. c #6C91C6",
"t. c #7193C4",
"y. c #7B9CC1",
"u. c #7296CA",
"i. c #7599CE",
"p. c #779CD0",
"a. c #7B9FD2",
"s. c #7EA2D6",
"d. c #878B92",
"f. c #89919E",
"g. c #939AA4",
"h. c #839CB4",
"j. c #87A2BD",
"k. c #A8AEB7",
"l. c #A9B0B5",
"z. c #B2B7BD",
"x. c #85A7CD",
"c. c #80A4D7",
"v. c #82A6D9",
"b. c #86A9DC",
"n. c #89ACDF",
"m. c #94ACD0",
"M. c #AFB8C5",
"N. c #B7BEC2",
"B. c #B3BDCC",
"V. c #8BAEE0",
"C. c #8FB2E4",
"Z. c #91B3E5",
"A. c #94B6E8",
"S. c #96B8EA",
"D. c #9DBFF0",
"F. c #A2BCE3",
"G. c #C1C5CA",
"H. c #C4C9CD",
"J. c #C8C9CC",
"K. c #CACCD0",
"L. c #CED0D2",
"P. c #D1D6DD",
"I. c #DBDCDD",
"U. c #DEDFE0",
"Y. c #DFE7E8",
"T. c #E6E6E6",
"R. c #E3E7E8",
"E. c #E4E8E8",
"W. c #E9E9E9",
/* pixels */
"T.T.T.T.T.T.T.T.T.T.T.T.T.H.d 0 6 7 J.W.T.T.T.T.T.T.T.T.T.T.T.T.",
"T.T.T.T.T.T.T.T.T.T.T.T.J.- r &.&.c - K.T.T.T.T.T.T.T.T.T.T.T.T.",
"T.T.T.T.T.T.T.T.T.T.T.T.h 8 Z e.v.e.t h T.T.T.T.T.T.T.T.T.T.T.T.",
"T.T.T.T.T.T.T.T.T.T.T.T.q 4 Z r.C.r.W q T.T.T.T.T.T.T.T.T.T.T.T.",
"T.T.T.T.T.T.T.T.T.T.T.T.z I :.y.x.y.) z T.T.T.T.T.T.T.T.T.T.T.T.",
"T.T.T.T.T.T.T.T.T.T.T.T.:.Y <.9.0.7.P =.T.T.T.T.T.T.T.T.T.T.T.T.",
"T.T.T.T.T.T.T.T.T.T.T.T.P.A >.h.j.O.C P.T.T.T.T.T.T.T.T.T.T.T.T.",
"T.T.T.T.T.T.T.T.T.T.T.T.T.P.8.@.q.4.P.E.T.T.T.T.T.T.T.T.T.T.T.T.",
"T.T.T.T.T.T.T.T.T.T.T.T.T.T.T.T.T.T.T.T.T.T.T.T.T.W.T.T.T.T.T.T.",
"T.T.T.T.T.T.T.T.T.T.T.T.T.T.T.1 , Y.T.T.T.T.T.T.T.T.T.T.T.T.T.T.",
"T.T.T.T.T.T.T.W.T.T.T.T.T.T.i # # u T.T.T.T.T.T.E.T.T.T.T.T.T.T.",
"T.T.T.T.T.T.T.T.W.T.T.T.T.f.. 4.r.. d.T.T.T.E.R.T.T.T.T.T.T.T.T.",
"T.T.T.T.T.T.T.T.T.R.T.T.L.. ~ c.c.%.  J.T.T.E.T.T.T.T.T.T.T.T.T.",
"T.T.T.T.T.T.T.T.T.R.R.T., 9 c.b.n.b.a $ T.Y.E.T.T.T.T.T.T.T.T.T.",
"T.T.T.T.T.T.T.T.T.R.Y.` @ a.b.Z.A.Z.v.$ g Y.W.T.T.T.T.T.T.T.T.T.",
"T.T.T.T.T.T.T.T.T.T.N.o 1.c.n.S.D.A.n.r.X l.T.T.T.T.T.T.T.T.T.T.",
"T.T.T.T.T.T.T.T.T.T.> H i.s.V.C.A.A.n.s.P + I.T.T.T.T.T.T.T.T.T.",
"T.T.T.T.T.T.T.T.T.j 2 w.u.a.v.V.V.n.c.a.u.3 p T.T.T.T.T.T.T.T.T.",
"T.T.T.T.T.T.T.T.k.% #.w.r.i.a.s.v.c.a.i.r.2.@ g.T.T.T.T.T.T.T.T.",
"T.T.T.T.T.T.T.P.= b @.-.w.r.u.p.a.i.u.r.w.$.Y & K.T.T.T.T.T.T.T.",
"T.T.T.T.T.T.T.s 5 E X.#.-.w.e.r.r.r.e.w.-.#.| 5 7 T.T.T.T.T.T.T.",
"T.T.T.T.T.T.f.& b Y [ | #.$.w.2.2.2.-.=.#.X.{ V * ' T.T.T.T.T.T.",
"T.T.T.T.T.G.& q n T  .O.1.4.3.1.$.$.#.o.} { Z V w O z.T.T.T.T.T.",
"T.T.T.T.T.3 5 x n T W W  .O.1.4.8.t.9.9.6.%.V z w : < I.T.T.T.T.",
"T.T.T.T._ ; t v K P W /  ...*.%.O.O.O... ...5.<.,.! = f T.T.T.T.",
"T.T.T.k.& t y H K I R ~  .....O.O.O...../ / R P J U ,.9 g.T.T.T.",
"T.T.T.9 t H K K P I ~ ~ ( ) ..........( ( ~ Q I L H K _ e T.T.T.",
"T.T.M.T ^ ] ] ] ^ ) ;.^ ( ) ..) %.) ] ) ) ] ] ] ] ] ] ] F.U.T.T.",
"T.T.B.E N k m M M B B ) ) ) ;.;.;.] ] ) ] D S B B m m m >.T.T.T.",
"T.T.T.T.T.T.T.T.T.T.F ;.;.;.;.;.;.;.;.;.,.G T.T.T.T.T.T.T.T.T.T.",
"T.T.T.T.T.T.T.T.T.T.D h.h.h.h.h.h.h.h.h.h.+.W.T.T.T.T.T.T.T.T.T.",
"T.T.T.T.T.T.T.T.T.W.m.A l k l l l l l k C 8.W.T.T.T.T.T.T.T.T.T."
};
