/* XPM */
static const char *settings[] = {
/* columns rows colors chars-per-pixel */
"32 32 53 1",
"  c #1C1D1C",
". c #232423",
"X c #292C2C",
"o c #333433",
"O c #373838",
"+ c #3B3C3B",
"@ c #434545",
"# c #4C4D4D",
"$ c #50504F",
"% c #4A4E50",
"& c #535452",
"* c #575857",
"= c #575B5B",
"- c #5B5C5B",
"; c #5F615F",
": c #5F6161",
"> c #646463",
", c #686967",
"< c #6C6D6C",
"1 c #6F706F",
"2 c #737472",
"3 c #787877",
"4 c #7B7C7A",
"5 c #81827E",
"6 c #7E7F80",
"7 c #838483",
"8 c #898A87",
"9 c #8C8D8B",
"0 c #8F908D",
"q c #91918F",
"w c #8D9090",
"e c #949493",
"r c #989897",
"t c #9B9D99",
"y c #9EA09C",
"u c #A5A6A4",
"i c #ABACAA",
"p c #AFB0AE",
"a c #B3B4B3",
"s c #B9BAB7",
"d c #B7B8B8",
"f c #BBBCBB",
"g c #C4C5C3",
"h c #C6C8C7",
"j c #CCCCCB",
"k c #CFD0CE",
"l c #D3D4D3",
"z c #DCDCDC",
"x c #E6E6E6",
"c c #E7E8E7",
"v c #EBECEB",
"b c #F5F5F4",
"n c #FAFAFA",
/* pixels */
"xxxcxxxcxxvxxxxxxxxxxxxffgjxxxxc",
"xxxxxxxxxxxxxxxxxxxxxslvclgylcxx",
"xxxxxxxxxxxxxxxxxxxxpzvnvs>#fxxx",
"xxxxxxcxxxxxxxxxxxxxqzvng@axxxxx",
"xcxxxxxxxxxxxxxxxxxl9zvbhzxxxxxx",
"xxxxcxcxxxxxxxxxxxxu8lxvzlxxxxxc",
"xxxcxcxxxxxxvxxxxxx9uixxvizxxkux",
"xxxxxxxxxxxxxxxxxxxep7zxxl8iis$x",
"xcxxxxxxxxxxxxxxxxlid6=7xzu7gf,x",
"xxxxxxcxxxxxxxxxxxrg>@w@kzhqg*kx",
"xxxxxxxcxxcxxxxxxzul9Xd#5zl5&4xx",
"cxxxxxxxxxxxxxxxxpjxl%&>glp<0zxx",
"xxxxxxxxcxxxxxxzi7+$vhj2,;6fxxxx",
"xxxxxxxxxxxcxczu3O#:v61uzxxxxxxx",
"xxxxxxxxxxxxxzr,.O#k6zzxxxxxxxxx",
"xxxcxcxxxcxxzq- .Op8lxxxxxxxxxxx",
"xxxxxxxxxxxl9$  .e9hxxxxxxxxxxxx",
"xxxxxxxxxxk7$.  69dxxxxxxxxxxxxx",
"xxxxxxxxxj5$OoX,9ixxxxxxxxxxxxxv",
"xxxxxxxxj8&#@+;8rzxxxxxxxxxxxxxx",
"xxxxxxxju-;*&-87zxxxxxxxxxxxxxxx",
"xxxxxxgi><<,:61xxxxxxxxxxxxvxxxx",
"xxxxxfe,363<6>xxxxxxxvccxxxxxxxx",
"xxxxd3-16934&zxxxxxxxxxxxxxxxxxx",
"xxxa2&><33t*lxxxxxxxxxxxxxxxvxxx",
"xxa5>*-,<u1jxxxxxxxxxxxxxxxxxxxx",
"vg5&$23*rwfxxxxxxxvxxxxxxxxxxxxx",
"x6>jz8q3waxxxxxxxxxxxxxxxxxxxxxx",
"x<2xxj72uxxxxxxxxxxxxxxxxxxxxxxx",
"z17sj8,exvxxxxxxxxxxxxxxxxxxxxxx",
"xl$34$7xxxxxxxxxxvxxvxxxxxxxxxxx",
"xxle2pxxxxxxxxxxxxxxxxxxxxxxxxvx"
};
