/* XPM */
static char *settings[]={
"32 32 123 2",
"Qt c None",
"#M c #393110",
"#m c #423110",
"#F c #423910",
".H c #423929",
"#H c #424231",
"#w c #424239",
"#Z c #4a3910",
".j c #4a4221",
"#I c #4a4239",
".D c #4a4a42",
".x c #4a4a4a",
"#1 c #524a29",
".s c #52524a",
"#4 c #5a5242",
".W c #5a5252",
"#J c #5a5a52",
"#r c #5a5a5a",
".J c #635229",
".r c #635a18",
".e c #635a42",
".y c #635a4a",
".2 c #63635a",
".N c #636363",
"#q c #6b5a10",
"#K c #6b6339",
"#W c #6b6342",
".3 c #6b6b5a",
".P c #6b6b63",
"#V c #6b6b6b",
".1 c #735a10",
"#a c #736310",
".C c #736321",
"#y c #736331",
".u c #736b31",
"#S c #736b42",
".I c #737363",
".S c #73736b",
"#R c #737373",
".m c #7b6b31",
".b c #7b7b73",
"#b c #7b7b7b",
"#N c #7b7b84",
".F c #847331",
"#c c #847339",
".c c #84847b",
".a c #848484",
"#E c #8c7318",
".l c #8c8c8c",
".M c #947b29",
".f c #947b31",
".d c #949494",
".# c #9c9c9c",
"#e c #a58418",
".i c #a58c21",
".5 c #a58c29",
".T c #a58c42",
".R c #a59439",
"#2 c #a59442",
".t c #a5a5a5",
".X c #ad9431",
".K c #ad9c42",
"#3 c #ada563",
".E c #adadad",
"#x c #adadb5",
".9 c #b59c29",
".O c #b59c42",
"#C c #b5a531",
".V c #b5a539",
".G c #b5a54a",
".k c #b5b5b5",
".Q c #bda54a",
"#G c #bdb573",
"#u c #c0c0c0",
".6 c #c6a529",
".g c #c6ad4a",
"#D c #c6bd42",
"#L c #c6bd7b",
"#X c #cead29",
"#T c #cead31",
"#P c #ceb54a",
"#O c #cebd4a",
"#B c #cec68c",
".h c #d6bd52",
"#l c #d6c64a",
"#f c #d6c65a",
"#U c #d6ce9c",
"#Y c #dec64a",
"#d c #dec663",
"#s c #dec66b",
"#v c #dece4a",
"#z c #dece63",
"#0 c #ded6a5",
"#n c #e7ce6b",
"#g c #e7d66b",
".z c #e7d67b",
"#h c #efde63",
".n c #efde84",
".8 c #efe76b",
".0 c #efe77b",
".q c #efe78c",
"#p c #f7e75a",
".7 c #f7ef7b",
".B c #f7ef9c",
"#. c #ffef73",
".v c #ffefad",
"## c #fff763",
"#k c #fff76b",
".4 c #ffff73",
"#o c #ffff7b",
"#j c #ffff84",
"#t c #ffff8c",
"#i c #ffff94",
".U c #ffff9c",
".Z c #ffffa5",
".Y c #ffffad",
".L c #ffffb5",
".p c #ffffbd",
".o c #ffffc6",
".w c #ffffce",
".A c #ffffd6",
"#Q c #ffffef",
"#A c #fffff7",
"QtQtQtQtQtQtQtQtQtQtQtQtQtQtQtQtQtQtQtQtQtQtQtQtQtQtQtQtQtQtQtQt",
"QtQtQtQtQtQtQtQtQtQtQtQtQtQtQtQtQtQtQtQtQtQtQtQtQtQtQtQtQtQtQtQt",
"QtQtQtQtQtQtQtQtQtQtQtQtQtQtQtQtQtQtQtQtQtQtQtQtQtQtQtQtQtQtQtQt",
"QtQtQtQtQtQtQtQtQtQtQtQtQtQtQtQtQtQtQtQtQtQtQtQtQtQtQtQtQtQtQtQt",
"QtQtQtQtQtQtQtQtQtQtQtQtQtQtQtQtQt.#.a.b.c.#QtQtQtQtQtQtQtQtQtQt",
"QtQtQtQtQtQtQtQtQtQtQtQtQtQtQt.d.e.f.g.h.i.j.kQtQtQtQtQtQtQtQtQt",
"QtQtQtQtQtQtQtQtQtQtQtQtQtQt.l.m.n.o.p.q.r.sQtQtQtQtQtQtQtQtQtQt",
"QtQtQtQtQtQtQtQtQtQtQtQtQt.t.u.v.w.p.q.r.x.kQtQtQtQtQtQtQtQtQtQt",
"QtQtQtQtQtQtQtQtQtQtQtQtQt.y.z.A.o.B.C.D.kQtQtQtQt.kQtQtQtQtQtQt",
"QtQtQtQtQtQtQtQtQtQtQtQt.E.F.o.o.p.G.H.EQtQtQtQt.I.J.dQtQtQtQtQt",
"QtQtQtQtQtQtQtQtQtQtQtQt.d.K.o.p.L.M.NQtQtQtQt.I.K.O.PQtQtQtQtQt",
"QtQtQtQtQtQtQtQtQtQtQtQt.c.Q.o.L.L.R.sQtQtQt.S.T.U.V.WQtQtQtQtQt",
"QtQtQtQtQtQtQtQtQtQtQtQt.l.X.p.Y.Z.0.1.2.d.3.T.U.4.5.2QtQtQtQtQt",
"QtQtQtQtQtQtQtQtQtQtQtQt.b.G.z.i.6.7.8.9.5.h.U#.###a#bQtQtQtQtQt",
"QtQtQtQtQtQtQtQtQtQtQt.l#c#d#e#f#g#h#i#j#j#j#k#k#l#m.tQtQtQtQtQt",
"QtQtQtQtQtQtQtQtQtQt.l.F#n.i#g.Z#i.A.Y#o#o#k.4#p#q#rQtQtQtQtQtQt",
"QtQtQtQtQtQtQtQtQt.d.m#s.i#g.Z#t.L#u.Z#o#o#k#v.1#w#xQtQtQtQtQtQt",
"QtQtQtQtQtQtQtQt.##y#n.i#z.U#t.Y#A#B#C#D.V#E#F.s.EQtQtQtQtQtQtQt",
"QtQtQtQtQtQtQt.##y#z.i#f.U#t.Z#A#G#m.D#H#I#J.lQtQtQtQtQtQtQtQtQt",
"QtQtQtQtQtQt.t#K#d.i#f.U#j.Z#A#L#M#NQtQtQtQtQtQtQtQtQtQtQtQtQtQt",
"QtQtQtQtQt.E#K#d.5#O#i#j.U#A#B#M#bQtQtQtQtQtQtQtQtQtQtQtQtQtQtQt",
"QtQtQtQtQt.I#P.5#O#t#j.U#Q#B#F#RQtQtQtQtQtQtQtQtQtQtQtQtQtQtQtQt",
"QtQtQtQt.k#S#T#C#t#o#t#A#U#F#VQtQtQtQtQtQtQtQtQtQtQtQtQtQtQtQtQt",
"QtQtQtQt.k#W#X#Y#j#t#Q#U#Z.PQtQtQtQtQtQtQtQtQtQtQtQtQtQtQtQtQtQt",
"QtQtQtQtQt.P.9#..A#A#0#Z.NQtQtQtQtQtQtQtQtQtQtQtQtQtQtQtQtQtQtQt",
"QtQtQtQtQt.t#1#2#B#3#Z.2QtQtQtQtQtQtQtQtQtQtQtQtQtQtQtQtQtQtQtQt",
"QtQtQtQtQtQt.t.P#4#J.aQtQtQtQtQtQtQtQtQtQtQtQtQtQtQtQtQtQtQtQtQt",
"QtQtQtQtQtQtQtQtQtQtQtQtQtQtQtQtQtQtQtQtQtQtQtQtQtQtQtQtQtQtQtQt",
"QtQtQtQtQtQtQtQtQtQtQtQtQtQtQtQtQtQtQtQtQtQtQtQtQtQtQtQtQtQtQtQt",
"QtQtQtQtQtQtQtQtQtQtQtQtQtQtQtQtQtQtQtQtQtQtQtQtQtQtQtQtQtQtQtQt",
"QtQtQtQtQtQtQtQtQtQtQtQtQtQtQtQtQtQtQtQtQtQtQtQtQtQtQtQtQtQtQtQt",
"QtQtQtQtQtQtQtQtQtQtQtQtQtQtQtQtQtQtQtQtQtQtQtQtQtQtQtQtQtQtQtQt"};
