/* XPM */
static char *text[]={
"32 32 16 1",
". c None",
"a c #000000",
"h c #4d4d4d",
"# c #686868",
"c c #7c7c7c",
"e c #8c8c8c",
"j c #9a9a9a",
"b c #a7a7a7",
"n c #b2b2b2",
"m c #bdbdbd",
"k c #c7c7c7",
"d c #d0d0d0",
"g c #d9d9d9",
"i c #e1e1e1",
"l c #e9e9e9",
"f c #ffffff",
"................................",
"................................",
"................................",
"................................",
"................................",
"................................",
"..........#aaaaaaaaaaaaaab......",
".........caaaaaaaaaaaaaaaad.....",
"........daaaaaaaaaaaaaaaaac.....",
"........caaaaeaaaaaaacaaaaa.....",
"........aaaaafaaaaaaagaaaaa.....",
"........haaabiaaaaaaa.jaaac.....",
"........kaac.iaaaaaaa.laaal.....",
".............iaaaaaac...........",
".............maaaaaae...........",
".............maaaaaab...........",
".............jaaaaaam...........",
".............eaaaaaam...........",
".............haaaaaag...........",
".............aaaaaaai...........",
"............iaaaaaaai...........",
"............maaaaaaai...........",
"...........naaaaaaaaal..........",
"..........eaaaaaaaaaah..........",
"................................",
"................................",
"................................",
"................................",
"................................",
"................................",
"................................",
"................................"};
