/* XPM */
static const char *text[] = {
/* columns rows colors chars-per-pixel */
"32 32 204 2",
"   c gray3",
".  c #0C0C0C",
"X  c #0E0E0E",
"o  c gray6",
"O  c gray9",
"+  c #232323",
"@  c gray18",
"#  c gray20",
"$  c #3C3C3C",
"%  c #3F3F3F",
"&  c #0F6A0F",
"*  c #13670F",
"=  c #10690F",
"-  c #097709",
";  c #0D7D0D",
":  c #146B11",
">  c #127412",
",  c #197F16",
"<  c #1F7E1E",
"1  c #236B18",
"2  c #337526",
"3  c gray25",
"4  c #414141",
"5  c gray26",
"6  c #434343",
"7  c #444444",
"8  c gray27",
"9  c #464646",
"0  c gray28",
"q  c #484848",
"w  c #494949",
"e  c gray29",
"r  c #4B4B4B",
"t  c #4C4C4C",
"y  c gray30",
"u  c #4E4E4E",
"i  c #505050",
"p  c #515151",
"a  c gray32",
"s  c #535353",
"d  c gray33",
"f  c #555555",
"g  c #565656",
"h  c gray34",
"j  c gray35",
"k  c #5B5B5B",
"l  c #5D5D5D",
"z  c #406E40",
"x  c #606060",
"c  c #626262",
"v  c gray39",
"b  c #646464",
"n  c #656565",
"m  c gray40",
"M  c #676767",
"N  c DimGray",
"B  c #6A6A6A",
"V  c gray42",
"C  c #6C6C6C",
"Z  c #6D6D6D",
"A  c gray44",
"S  c gray45",
"D  c #777777",
"F  c gray49",
"G  c #7E7E7E",
"H  c #118411",
"J  c #148412",
"K  c #188214",
"L  c #1E8316",
"P  c #1E8019",
"I  c #189215",
"U  c #278E1C",
"Y  c #2C8A1C",
"T  c #229C17",
"R  c #308725",
"E  c #318726",
"W  c #2D9821",
"Q  c #2C9E23",
"!  c #349521",
"~  c #3B9A24",
"^  c #32982E",
"/  c #3D8E30",
"(  c #3BA92A",
")  c #40A228",
"_  c #45A62B",
"`  c #40A82F",
"'  c #41B322",
"]  c #4CBA28",
"[  c #50BC2A",
"{  c #43AA30",
"}  c #47AB31",
"|  c #4FA53F",
" . c #47AB39",
".. c #50B032",
"X. c #51B53C",
"o. c #5AB53C",
"O. c #53B83A",
"+. c #4FA042",
"@. c #49A747",
"#. c #58AD46",
"$. c #5FB640",
"%. c #58AE58",
"&. c #5EA95E",
"*. c #62BE52",
"=. c #64BD54",
"-. c #69BA55",
";. c #66BF59",
":. c #65BA63",
">. c #6BBC64",
",. c #71B16E",
"<. c #7AC176",
"1. c #838383",
"2. c gray52",
"3. c gray53",
"4. c #888888",
"5. c #898989",
"6. c #8D8D8D",
"7. c #8E8E8E",
"8. c gray56",
"9. c #909090",
"0. c gray57",
"q. c #929292",
"w. c gray58",
"e. c gray59",
"r. c gray60",
"t. c #82B082",
"y. c #8EB789",
"u. c #A2A2A2",
"i. c #A4A4A4",
"p. c #A7A7A7",
"a. c #AAAAAA",
"s. c #ACACAC",
"d. c #AFAFAF",
"f. c #B2B2B2",
"g. c #B4B4B4",
"h. c gray72",
"j. c gray73",
"k. c #BBBBBB",
"l. c #BCBCBC",
"z. c gray",
"x. c gray75",
"c. c #89C189",
"v. c #93C983",
"b. c #93CE93",
"n. c #95CF93",
"m. c #95CA95",
"M. c #97D191",
"N. c #99D392",
"B. c #9CD395",
"V. c #9DD299",
"C. c #9FD19D",
"Z. c #A6D8A4",
"A. c #ADD7AC",
"S. c #B6DCA5",
"D. c #B2D7AC",
"F. c #B6DEB6",
"G. c #BEDCBE",
"H. c #BFDCBF",
"J. c #C4E4BA",
"K. c #C0C0C0",
"L. c #C3C3C3",
"P. c gray77",
"I. c #C8C8C8",
"U. c #CACACA",
"Y. c #CBCBCB",
"T. c gray80",
"R. c #CDCDCD",
"E. c #CECECE",
"W. c gray81",
"Q. c #D0DBCF",
"!. c #D0DCCE",
"~. c #D0D0D0",
"^. c gray82",
"/. c gray83",
"(. c #D5D5D5",
"). c #D7D7D7",
"_. c #D4DFD2",
"`. c gray86",
"'. c gainsboro",
"]. c #DDDDDD",
"[. c #DFDFDF",
"{. c #CBE6CB",
"}. c #D5E0D2",
"|. c #D2E6D2",
" X c #DAE1D9",
".X c #DDE3DB",
"XX c #DFE4DC",
"oX c #DFE4DD",
"OX c #E8E7DE",
"+X c #E8E8D9",
"@X c gray88",
"#X c #E2E2E2",
"$X c gray89",
"%X c #E7E6E1",
"&X c #E4E4E4",
"*X c gray90",
"=X c #E6E5E5",
"-X c #E6E6E4",
";X c #E6E6E5",
":X c #E6E6E6",
">X c #E7E7E7",
",X c #E9E9E9",
"<X c #EAEAEA",
"1X c gray92",
/* pixels */
":X:X:X:X:X:X:X:X:X:X:X:X:X:X:X:X:X:X:X:X:X:X:X:X:X:X:X:X:X:X:X:X",
":X:X:X:X:X:X:X:X:X:X:X:X:X:X:X:X:X:X:X:X:X:X:X:X:X:X:X:X:X:X:X:X",
":X:X:X:X:X:X:X:X:X:X:X:X:X:X:X:X:X:X:X:X:X:X:X:X:X:X:X:X:X:X:X:X",
":X:X:X:X:X:X:X:X:X:X:X:X:X:X:X:X(.3.:X:X:X:X:X:X:X:X:X:X:X:X:X:X",
":X:X:X:X:X:X:X:X:X:X:X:X:X:X:X:X1.N ].:X:X:X:X:X:X:X:X:X:X:X:X:X",
":X:X:X:X:X:X:X:X:X:X:X:X:X:X:Xz.M 5 j.:X:X:X:X:X:X:X:X:X:X:X:X:X",
":X:X:X:X:X:X:X:X:X:X:X:X:X:X*XC u o 0.:X:X:X:X:X:X:X:X:X:X:X:X:X",
":X:X:X:X:X:X:X:X:X:X:X:X:X:Xu.g O   V :X:X:X:X:X:X:X:X:X:X:X:X:X",
":X:X:X:X:X:X:X:X:X:X:X:X:X'.j 3 X X c :X:X:X:X:X:X:X:X:X:X:X:X:X",
":X:X:X:X:X:X:X:X:X:X:X:X:X5.t p.. @ i :X:X:X:X:X:X:X:X:X:X:X:X:X",
":X:X:X:X:X:X:X:X:X:X:X:XY.r i.W.. 8 w `.:X:X:X:X:X:X:X:X:X:X:X:X",
":X:X:X:X:X:X:X:X:X:X:X:XA k :X:X+ 8 i x.:X:X:X:X:X:X:X:X:X:X:X:X",
":X:X:X:X:X:X:X:X:X:X:Xf.0 l.:X:Xi 7 i p.:X:X:X:X:X:X:X:X:X:X:X:X",
":X:X:X:X:X:X:X:X:X:X#Xk S :X:X:XA 5 i 0.:X:X:X:X:X:X:X:X:X:X:X:X",
":X:X:X:X:X:X:X:X:X:Xr.0 W.:X:X:X6.5 i F :X:X:X:X:X:X:X:X:X:X:X:X",
":X:X:X:X:X:X:X:X:X).r 4.:X:X:X:Xs.4 p Z :X:X:X:X:X:X:X:X:X:X:X:X",
":X:X:X:X:X:X:X:X:XG t '.:X:X:X:XE.% p M `.:X:X:X:X:X:X:X:X:X:X:X",
":X:X:X:X:X:X:X:XL.4 0 s r q 9 9 s 3 s V K.:X>X>X:X:X:X:X:X:X:X:X",
":X:X:X:X:X:X:X*Xb f e.q.8.7.6.6.q.a d Z i.:X<X1X>X:X:X:X:X:X:X:X",
":X:X:X:X:X:X:Xa.$ g.:X:X:X:X:X:X:XD y m 2.:X,XD.X.O.J.:X:X:X:X:X",
":X:X:X:X:X:X].i B :X:X:X:X:X:X:X:Xw.e j v :X:X .H.|.-..X:X:X:X:X",
":X:X:X:X:X:X5.4 I.:X:X:X:X:X:X:X:Xg.g j 5 :X:XW G.{.#.}.:X:X:X:X",
":X:X:X:X:XP.9 G :X:X:X:X:X:X:X:X:X^.m x # ~.:XU A.F.| _.:X:X:X:X",
":X:X:X:X$Xn 7 k.:X:X:X:X:X:X:X:X:X#Xn z H J K L C.Z.+.~ _ o.S.:X",
":X:X:X$X9.e 6 U.:X:X:X:X:X:X:X:X:Xh.l ; c.m.b.n.M.N.B.V.<.@.$.XX",
":X:X~.Z i w 6 x 9.@X:X:X:X:X:Xd.1.x h - &.%.:.>.;.*.=.( T I ..oX",
":X:X[.W.E.R.T.T.Y.&X:X:X:X:X:X/.R.~.W.t.> & = : { ' / Y ! ) v.:X",
":X:X:X:X:X:X:X:X:X:X:X:X:X:X:X:X:X:X:X:X:X:X=X* } [ E Q.:X:X:X:X",
":X:X:X:X:X:X:X:X:X:X:X:X:X:X:X:X:X:X:X:X:X:XOX1 ` ] R !.:X:X:X:X",
":X:X:X:X:X:X:X:X:X:X:X:X:X:X:X:X:X:X:X:X:X-X+X2 ^ Q P  X:X:X:X:X",
":X:X:X:X:X:X:X:X:X:X:X:X:X:X:X:X:X:X:X:X:X;X%Xy.< , ,.:X:X:X:X:X",
":X:X:X:X:X:X:X:X:X:X:X:X:X:X:X:X:X:X:X:X:X:X:X:X:X:X:X:X:X:X:X:X"
};
