/* XPM */
static const char *tidesml[] = {
/* columns rows colors chars-per-pixel */
"16 16 99 2",
"   c gray19",
".  c gray21",
"X  c #393939",
"o  c #3C3C3C",
"O  c #535353",
"+  c gray47",
"@  c #52BC54",
"#  c #58BD57",
"$  c #5ABD5D",
"%  c #5BBE5F",
"&  c #6BBF76",
"*  c #5BD05E",
"=  c #62C06C",
"-  c #62D369",
";  c #63D36B",
":  c #6FC47C",
">  c #71C271",
",  c #73C371",
"<  c #6AD674",
"1  c #6BD675",
"2  c #70D67B",
"3  c #71D87E",
"4  c #77D686",
"5  c #73D980",
"6  c #76D389",
"7  c #7FD18F",
"8  c #79DB89",
"9  c #7ADC8B",
"0  c gray51",
"q  c #A2BDA2",
"w  c #A5BEA7",
"e  c gray69",
"r  c gray72",
"t  c #B9B9B9",
"y  c gray74",
"u  c #90CE97",
"i  c #81DE94",
"p  c #82DE95",
"a  c #83DF97",
"s  c #89D29B",
"d  c #8ED298",
"f  c #98D898",
"g  c #9BDA9F",
"h  c #88E19E",
"j  c #89DEA2",
"k  c #9FD5AE",
"l  c #AAC0AE",
"z  c #ADC7AD",
"x  c #A1DDA3",
"c  c #A6D7AF",
"v  c #A3DEAB",
"b  c #AEC1B2",
"n  c #B7C5B6",
"m  c #B0C8B2",
"M  c #B2C8B4",
"N  c #B5CAB9",
"B  c #B8CBBE",
"V  c #B0DABD",
"C  c #B4DFBD",
"Z  c #BEDBBE",
"A  c #BEDDBC",
"S  c #8AE1A0",
"D  c #8BE1A1",
"F  c #90E3A9",
"G  c #91E4AA",
"H  c #92E4AC",
"J  c #94E5AE",
"K  c #94E0B2",
"L  c #98E6B3",
"P  c #99E7B5",
"I  c #9AE7B7",
"U  c #9DE7B9",
"Y  c #A8E0B0",
"T  c #BEC9C2",
"R  c #B7DAC0",
"E  c #A0E9C0",
"W  c #A2EAC1",
"Q  c #B9EFD1",
"!  c #BCEED1",
"~  c #BAF0D3",
"^  c gray77",
"/  c gray79",
"(  c #C0DDC9",
")  c #D5D5D5",
"_  c gray85",
"`  c #C9E8D0",
"'  c #D1E1D4",
"]  c #D1E0D5",
"[  c #D9E3D9",
"{  c #DBE3DC",
"}  c #DFE4DF",
"|  c #C1F2DB",
" . c #D6F6E7",
".. c #DDF8EE",
"X. c #E2E2E2",
"o. c #E4E5E4",
"O. c #E5E6E5",
"+. c #E6E6E6",
"@. c #EAFBF5",
/* pixels */
"+.+.+.+.+.+.+.+.+.+.+.+.+.+.+.+.",
"X./ +.+.+.+.0 X .   X o +.+.+.+.",
"_ r +.+.+.+.+.+.e O +.+.+.+.+.+.",
"+.^ +.+.+.+.+.+.e O +.+.+.+.+.+.",
") t +.+.+.+.+.+.e O +.+.+.+.+.+.",
"+.^ +.+.+.+.+.+.e O +.+.+.+.+.+.",
"+.^ +.+.} Z o.+.e O +.O.( +.+.+.",
") t +.[ $ u = { y + +.] V +.+.+.",
"+.^ +.> ` @.! & o.+.+.R C +.+.+.",
") t +.% .. .~ j d +.+.k Y +.+.+.",
"+.^ A : | Q U J 6 c ' s v +.+.+.",
"+.^ , K W I H D a 4 7 2 x +.+.+.",
") t # E P G S p 9 5 1 ; g +.+.+.",
"+.^ @ L F h i 8 3 < - * f +.+.+.",
"+.t T B b N l M m w z q n r / +.",
"+.+.+.+.) +.) +.+.) +.) +._ X.+."
};
