/* XPM */
static char *tide[]={
"32 32 34 1",
". c None",
"c c #000000",
"v c #008000",
"# c #00ff00",
"b c #010101",
"d c #020202",
"E c #030303",
"h c #040404",
"x c #0b0b0b",
"D c #0c0c0c",
"r c #181818",
"m c #191919",
"o c #242424",
"n c #252525",
"A c #282828",
"t c #292929",
"a c #2f2f2f",
"F c #444444",
"k c #494949",
"u c #4f4f4f",
"z c #525252",
"q c #545454",
"C c #626262",
"g c #7d7d7d",
"i c #7f7f7f",
"f c #838383",
"y c #a0a0a0",
"p c #a1a1a1",
"l c #aaaaaa",
"w c #acacac",
"j c #c0c0c0",
"s c #c3c3c3",
"B c #c8c8c8",
"e c #d4d4d4",
"................................",
".......................######...",
".......................######...",
".......................#...##...",
".......................#...##...",
".......................#...##...",
".......................######...",
".......................######...",
".......abccccccccbd....#...##...",
"......eccccccccccccf...#...##...",
"......gbhijkbcc.lmbn...#..###...",
"......obpjjqbcc...rbs..#...##...",
"......tujvvqbcc...wxy..#...##...",
".......vvv.qcccv.......######...",
"......vv...qcccvv......######...",
".....vv....qbcc.vv.....#...##...",
"....vv.....qbcc..vv....#...##...",
"...vv......qbcc...v....#..###...",
"..vv.......qbcc....v...#...##...",
".vv........zbcc....vv..#...##..v",
"...........AbccB....vv.######.vv",
".........CDccccEn....vv######vv.",
".........Fbcccccc.....v#...##v..",
".......................#...##...",
".......................#...##...",
".......................#..###...",
".......................#...##...",
".......................#...##...",
".......................######...",
".......................######...",
"................................",
"................................"};
