/* XPM */
static const char *tide[] = {
/* columns rows colors chars-per-pixel */
"32 32 115 2",
"   c black",
".  c #0E0E0E",
"X  c #151515",
"o  c gray11",
"O  c #232323",
"+  c #565656",
"@  c #5B5B5B",
"#  c gray45",
"$  c #0FB209",
"%  c #1CB419",
"&  c #25B522",
"*  c #2CB626",
"=  c #37BB32",
"-  c #3BB63E",
";  c #37BB3D",
":  c #3CBB44",
">  c #41B947",
",  c #48BD44",
"<  c #44BB4E",
"1  c #4BB855",
"2  c #55C34F",
"3  c #56C353",
"4  c #53CD53",
"5  c #51C35F",
"6  c #57CF59",
"7  c #5BD05F",
"8  c #52C361",
"9  c #57C268",
"0  c #59C869",
"q  c #5BC371",
"w  c #65C46C",
"e  c #60D266",
"r  c #64D36C",
"t  c #65C877",
"y  c #67CB78",
"u  c #68CB7B",
"i  c #72C774",
"p  c #79CC75",
"a  c #79C67A",
"s  c #6AD674",
"d  c #6ED779",
"f  c #71D77F",
"g  c #71D87E",
"h  c #6EC88A",
"j  c #72CA8C",
"k  c #6DD281",
"l  c #74D783",
"z  c #76DA84",
"x  c #7DD58B",
"c  c #7BDC8C",
"v  c #72C990",
"b  c #79CB93",
"n  c #7FDC92",
"m  c #888888",
"M  c #A3A3A3",
"N  c #ACACAC",
"B  c #B4B4B4",
"V  c #80CE89",
"C  c #8ACF9D",
"Z  c #82DE95",
"A  c #84D299",
"S  c #88D49D",
"D  c #85DD99",
"F  c #A0D59D",
"G  c #86E09C",
"H  c #89E19F",
"J  c #9DCDA1",
"K  c #9FD4A9",
"L  c #A4DAA4",
"P  c #A2D5AE",
"I  c #A8D7AE",
"U  c #A7DBA8",
"Y  c #AADDAC",
"T  c #AEDFB2",
"R  c #A9D6B8",
"E  c #ABD8BB",
"W  c #B3DCB4",
"Q  c #BCDABC",
"!  c #8CE2A4",
"~  c #92E4AC",
"^  c #96E6B2",
"/  c #99E7B5",
"(  c #9AE7B8",
")  c #9DE8BB",
"_  c #A5E6B8",
"`  c #A1E9BF",
"'  c #B1E1B3",
"]  c #B5E1BC",
"[  c #A3EAC3",
"{  c #ACEDCB",
"}  c #BBE3C4",
"|  c #B3EECE",
" . c #B5EFD2",
".. c #B5F0D6",
"X. c #BDF1D6",
"o. c #C5C5C5",
"O. c gray81",
"+. c #C6DECD",
"@. c #C9DFCA",
"#. c gray84",
"$. c #C1E5CC",
"%. c #CCE2D2",
"&. c #D3E1D4",
"*. c #D6E5DA",
"=. c #D9E4DB",
"-. c #C3F2DD",
";. c #DFE5E1",
":. c #CDF5E3",
">. c #D1F6E6",
",. c #D8F7EA",
"<. c #DEF8EE",
"1. c #E6E6E6",
"2. c #E2F9F2",
"3. c #EAFBF6",
"4. c #F4FDFA",
/* pixels */
"1.1.1.1.1.1.1.1.1.1.1.1.1.1.1.1.1.1.1.1.1.1.1.1.1.1.1.1.1.1.1.1.",
"1.1.1.1.1.1.1.1.1.1.1.1.1.1.1.1.1.1.1.1.1.1.1.1.1.1.1.1.1.1.1.1.",
"1.1.o.1.1.1.1.1.1.1.1.1.O.+ + + + + + + + + + @ 1.1.1.1.1.1.1.1.",
"1.#.M #.1.1.1.1.1.1.1.1.o.o o o o .   X o o o O 1.1.1.1.1.1.1.1.",
"1.B M B 1.1.1.1.1.1.1.1.1.1.1.1.1.#   M 1.1.1.1.1.1.1.1.1.1.1.1.",
"1.1.M 1.1.1.1.1.1.1.1.1.1.1.1.1.1.#   N 1.1.1.1.1.1.1.1.1.1.1.1.",
"1.1.M 1.1.1.1.1.1.1.1.1.1.1.1.1.1.#   M 1.1.1.1.1.1.1.1.1.1.1.1.",
"1.1.M 1.1.1.1.1.1.1.1.1.1.1.1.1.1.#   N 1.1.1.1.1.1.1.1.1.1.1.1.",
"1.1.M 1.1.1.1.1.1.1.1.1.1.1.1.1.1.#   M 1.1.1.1.1.1.1.1.1.1.1.1.",
"1.M m 1.1.1.1.1.1.1.1.1.1.1.1.1.1.#   N 1.1.1.1.1.1.1.1.1.1.1.1.",
"1.1.M 1.1.1.1.1.1.1.1.1.1.1.1.1.1.#   M 1.1.1.1.1.1.1.1.1.1.1.1.",
"1.1.M 1.1.1.1.1.1.1.1.1.1.1.1.1.1.#   M 1.1.1.1.1.1.1.1.1.1.1.1.",
"1.1.M 1.1.1.1.1.1.1.1.1.1.1.1.1.1.#   N 1.1.1.1.E 1.1.1.1.1.1.1.",
"1.1.M 1.1.1.1.1.1.@.i a @.1.1.1.1.#   M 1.1.1.1.v %.1.1.1.1.1.1.",
"1.M m 1.1.1.1.1.J * w w ; J 1.1.1.#   M 1.1.1.=.v *.1.1.1.1.1.1.",
"1.1.M 1.1.1.1.W & ' 3.2._ : Q 1.1.N # o.1.1.1.+.b =.1.1.1.1.1.1.",
"1.1.M 1.1.1.1., i 4.3.<.:.D < &.1.1.1.1.1.1.1.R S =.1.1.1.1.1.1.",
"1.1.M 1.1.1.I & <.3.2.,.-...u 8 1.1.1.1.1.1.1.C S *.1.1.1.1.1.1.",
"1.1.M 1.1.1.3 w <.<.,.>.-.{ ) 0 V 1.1.1.1.1.;.h c =.1.1.1.1.1.1.",
"1.M m 1.1.1.% _ >.>.-.-.| ` ( ~ 5 R 1.1.1.1.@.b z =.1.1.1.1.1.1.",
"1.1.M 1.1.W % -.-.-.X.| [ ( / ~ n 8 %.1.1.1.C A g =.1.1.1.1.1.1.",
"1.1.M 1.1.p >  .X. .{ ` ( ^ ~ ~ ! k 9 K *.P j l s =.1.1.1.1.1.1.",
"1.1.M 1.1.= u { [ [ ) / ^ ~ ! ! G G l t q j x s s =.1.1.1.1.1.1.",
"1.;.M 1.&.$ ( [ [ ` ( ~ ~ ! ! G G c c z f d s s r =.1.1.1.1.1.1.",
"1.M m 1.J & [ ` ) / ~ ~ ! ! G n Z c z g g s r r e =.1.1.1.1.1.1.",
"1.1.M 1.p - ` ( / ^ ~ ! H D G c c z g d s r r e 7 =.1.1.1.1.1.1.",
"1.1.M 1.2 1 ( / ~ ~ ! D D Z c c z g g s r r e 7 6 =.1.1.1.1.1.1.",
"1.1.M 1.* y / ~ ! ! ! Z Z c c z g s s r e e 7 6 4 =.1.1.1.1.1.1.",
"1.1.M 1.F } $.$.} } } } } ] ] W W ' T Y Y U U L F 1.1.B #.1.1.1.",
"1.1.M M M M M M m M M M M m M M M M m M M M M m M M M M M o.1.1.",
"1.1.1.1.1.1.1.1.M 1.1.1.1.M 1.1.1.1.M 1.1.1.1.M 1.1.1.B #.1.1.1.",
"1.1.1.1.1.1.1.1.1.1.1.1.1.1.1.1.1.1.1.1.1.1.1.1.1.1.1.1.1.1.1.1."
};
