/* XPM */
static const char *track[] = {
/* columns rows colors chars-per-pixel */
"32 32 196 2",
"   c #11100B",
".  c #1B1914",
"X  c #34301F",
"o  c #3D3826",
"O  c #413D2C",
"+  c #464232",
"@  c #4A4533",
"#  c #4E4A3C",
"$  c #504A34",
"%  c #534E39",
"&  c #5D563B",
"*  c #5E5844",
"=  c #625C44",
"-  c #766E4C",
";  c #676151",
":  c #746C51",
">  c #777056",
",  c #7A7355",
"<  c #7C7661",
"1  c #807753",
"2  c #857C5B",
"3  c #837C63",
"4  c #978B5D",
"5  c #978E68",
"6  c #9E9678",
"7  c #AB9D6A",
"8  c #A69C74",
"9  c #A59C7E",
"0  c #B1A472",
"q  c #B5AA7E",
"w  c #CBBD7A",
"e  c #D6C06F",
"r  c #CEC07C",
"t  c #D4C173",
"y  c #DAC475",
"u  c #D5C47B",
"i  c #DDC97C",
"p  c #840A84",
"a  c #891489",
"s  c #921D94",
"d  c #932C93",
"f  c #942C9E",
"g  c #973697",
"h  c #983998",
"j  c #9C2FA3",
"k  c #B420B6",
"l  c #9D558B",
"z  c #A446A4",
"x  c #A85EA8",
"c  c #B456BF",
"v  c #B858B8",
"b  c #BC61A7",
"n  c #B065B0",
"m  c #BE62BE",
"M  c #AB72BD",
"N  c #B47BB4",
"B  c #B575BC",
"V  c #C860B2",
"C  c #CA16CA",
"Z  c #CE02D0",
"A  c #DE09DE",
"S  c #C623C6",
"D  c #C22ECC",
"F  c #CC2BD1",
"G  c #D62AD6",
"H  c #D427D8",
"J  c #EE1CEE",
"K  c #E62AE6",
"L  c #FA22FC",
"P  c #FD3AFE",
"I  c #B57FC1",
"U  c #B777C9",
"Y  c #C446CD",
"T  c #C956C9",
"R  c #D042D0",
"E  c #C76BC7",
"W  c #C572C5",
"Q  c #C87BC8",
"!  c #C870DA",
"~  c #D775D7",
"^  c #DF76DF",
"/  c #D578DB",
"(  c #EE69D7",
")  c #EF59EF",
"_  c #FB43FE",
"`  c #F055F0",
"'  c #F454FC",
"]  c #FB5DFC",
"[  c #EE65EE",
"{  c #E773E7",
"}  c #E279E2",
"|  c #F360F4",
" . c #F26AF3",
".. c #FC6AFD",
"X. c #F57CF6",
"o. c #F775F8",
"O. c #F87FF9",
"+. c #ADA385",
"@. c #B2A988",
"#. c #BFB399",
"$. c #CFBF81",
"%. c #C0B58F",
"&. c #C1B796",
"*. c #C8BD96",
"=. c #C8BE9C",
"-. c #C7C085",
";. c #DACA8A",
":. c #C6C293",
">. c #C7C59D",
",. c #CAC799",
"<. c #D1C597",
"1. c #D6CC91",
"2. c #D2C699",
"3. c #E1CD84",
"4. c #E4D28C",
"5. c #E0CF91",
"6. c #E6D592",
"7. c #E8D796",
"8. c #E0D59B",
"9. c #E4D89F",
"0. c #EADB9C",
"q. c #CCCAA4",
"w. c #CDCDAD",
"e. c #D1CEA3",
"r. c #D8D2A7",
"t. c #DDD1AB",
"y. c #C7CAB3",
"u. c #CCCDB1",
"i. c #CACEBE",
"p. c #D9C2BB",
"a. c #E0C4AC",
"s. c #E1D4A1",
"d. c #EEDFA3",
"f. c #E6D8AC",
"g. c #E4CCBB",
"h. c #E8C9BB",
"j. c #E8DCB5",
"k. c #E6D7B9",
"l. c #EEE0A6",
"z. c #EFE1AB",
"x. c #F0E2AF",
"c. c #EEE3B9",
"v. c #F0E3B3",
"b. c #F2E6BD",
"n. c #C08BC0",
"m. c #DD87C0",
"M. c #D894D8",
"N. c #F793D7",
"B. c #C7A6C7",
"V. c #C9ACC9",
"C. c #CCB3CC",
"Z. c #DCADDC",
"A. c #D0BCD0",
"S. c #D9B4D9",
"D. c #E49EE4",
"F. c #EC92EC",
"G. c #E99AE9",
"H. c #F883F9",
"J. c #F888F9",
"K. c #EF9CF0",
"L. c #F391F4",
"P. c #F59CF6",
"I. c #F993F9",
"U. c #E1A1E1",
"Y. c #EBACEB",
"T. c #E6B5E6",
"R. c #EAB7EA",
"E. c #EBBEEB",
"W. c #F6A7F7",
"Q. c #F4ACF5",
"!. c #F3B9F4",
"~. c #F9B5FA",
"^. c #CAD0C3",
"/. c #CBD1C9",
"(. c #D3C3D3",
"). c #D8CFD8",
"_. c #CDD6D4",
"`. c #CDD6D9",
"'. c #D4D7D4",
"]. c #D8D9D2",
"[. c #DDD6DD",
"{. c #DFDFDF",
"}. c #EECBC1",
"|. c #F2D2C6",
" X c #F3E7C1",
".X c #CED8E0",
"XX c #DCDFE3",
"oX c #D3DDEC",
"OX c #E7C1E7",
"+X c #E4CCE4",
"@X c #EDC5ED",
"#X c #E8C9E9",
"$X c #E2D4E2",
"%X c #E0D9E0",
"&X c #FFDBFF",
"*X c gray100",
/* pixels */
"{.{.{.{.{.{.{.{.{.{.{.{.{.{.{.{.{.{.{.{.{.{.[.C.V.V.V.B.B.B.).{.",
"{.{.{.{.{.{.{.{.{.{.{.{.{.{.{.{.{.{.{.{.{.{.B.d d g g h d p B.{.",
"{.{.{.{.{.{.{.{.{.{.{.{.{.{.{.{.{.{.{.{.{.{.{.{.{.{.{.B.a d B.{.",
"{.{.{.{.{.{.{.{.+XF.G.+X{.{.{.{.{.{.{.{.{.{.{.{.{.{.N a B.g B.{.",
"{.{.{.{.{.{.{.Y.P  .| L G.{.{.{.{.{.{.{.@XP.X.^ m z g ).{.h B.{.",
"{.{.{.{.{.{.$X_ T.{.{.T.L ` $X{.{.{.{.{.!.*X*X*Xm n [.{.{.g B.{.",
"{.{.{.+XP.J.[ T C.{.{.{.$X) J U.{.{.{.{.!.*X*X*XW {.{.{.{.g B.{.",
"{.{.{.#X&X*X*XE.B.{.{.{.{.{.D.K A G R S { *X*X*XQ {.{.{.{.h B.{.",
"{.{.{.#X&X*X*XOXB.{.{.{.{.{.{.{.[.Z.M.S.!.W.H.} v {.{.{.{.x A.{.",
"{.{.{.#X&X*X*XE.B.{.{.{.{.{.{.{.{.{.{.{.{.%XXX{.{.{.{.{.{.{.{.{.",
"{.{.{.$XI...{ E (.{.{.{.{.{.{.{.{.{.{.{.{.{.{.{.{.{.{.{.{.{.{.{.",
"{.{.{.{.O.T.{.{.{.{.{.{.{.{.{.XX{.{.{.{.{.{.{.{.{.{.{.{.{.XX{.XX",
"{.{.{.%X] %X{.{.{.{.{.{.{.{.XXXX{.{.{.{.{.{.{.{.{.{.{.{.XXXX{.{.",
"{.{.{.OXo.{.{.{.{.{.{.{.XXoXoXoXXXXX{.{.{.{.{.{.{.{.{.XXXXXXXX{.",
"{.{.{.Y.L.{.{.{.{.{.{.oXoXoXoXoXoXXX{.{.{.{.{.{.{.XXXXXXXX{.{.{.",
"{.{.{.I.Y.{.{.{.{.XXoXoXoX`.oXoXoXoXoX{.{.{.{.XXXXXXXXXXXX{.].q.",
"{.{.{.o.+X{.{.{.XXoXoXy.,.;.<.q./.oXoXoXXXXXoXXXoXXXXXXX[.u.r. X",
"{.{.%X..XX{.{.{.oXoX:.3.4.6.7.0.8.q.^.oXoXoXoXXXoXXX'.u.e.c. X X",
"{.{.OXH.XX%X{.XXoX&.w w $.$.5.0.0.d.9.e.w.w.u.w.w.e.&.s.b.b.b. X",
"{.{.Y.K.{.{.XXoXq.4 & X o & 0 d.0.d.d.l.l.l.x.x.v.v.3 @.b.b. X X",
"{.{.I.R.{.{.oX_.r ;.3.1 4 ;.1 = 7 5 * , 8.l.2.> * *.3 @.j.< j. X",
"{.{.H.+X{.{.oX:.i 3.i 1 4 ;.  $.9.1.l.q 2 l.+ 2.j.f.3 6 % =.b. X",
"Q.I.] ~ n.oXi.i i 3.3.1 4 ;.@ 0.0.2 = = O s.# x.v.v.3 . +.b. X X",
"~.*X*X*XB oX:.i i i i 1 4 ;.$ 7.d.O l.8 @ x.O f.v.v.3 9 # &.b. X",
"~.*X*X*XB `.r u i 3.3.4 7 ;.- 0.d.2 % > : z.%.= = %.6 #.k.; t.b.",
"~.*X*X*XB >.y i i 3.3.4.4.6.7.0.0.d.d.l.l.l.l.x.v.v.c.p.N g.b. X",
"W.I.o./ I -.y i i 3.3.4.4.6.7.7.0.d.d.l.z.z.z.x.v.v.l f D k V  X",
"{.{.oXoXy.t y y i 3.3.4.6.6.7.7.0.d.d.l.l.z.x.x.v.a.a Z _ P C |.",
"{.oXoXoX:.y y i i 3.3.4.4.6.7.0.d.d.d.d.z.z.z.x.l.N s F ' ' H N.",
"{.oXoX.Xr t y i i 3.3.4.6.6.7.0.0.d.d.d.z.z.z.x.x.t.j M ! ! G |.",
"XXoXoXy.e y y i i 3.3.4.4.6.7.7.d.d.d.l.l.z.x.x.x.v.b c U Y (  X",
"oXoXoX,.e y y y i 3.3.4.6.6.7.0.0.d.l.l.z.z.x.x.v.v.c.h.m.}. X X"
};
