/* XPM */
static const char *zoomout[] = {
/* columns rows colors chars-per-pixel */
"32 32 110 2",
"   c #17377C",
".  c #1A397E",
"X  c #535353",
"o  c #5D5D5D",
"O  c #646464",
"+  c #6D6D6D",
"@  c #757575",
"#  c #7D7D7D",
"$  c #1F4386",
"%  c #1D4894",
"&  c #2B4886",
"*  c #214488",
"=  c #27498C",
"-  c #2C4C8C",
";  c #384E81",
":  c #314E8C",
">  c #3B5284",
",  c #2D5191",
"<  c #3A5D97",
"1  c #365C9B",
"2  c #3363A5",
"3  c #3767A8",
"4  c #3A6BAA",
"5  c #586687",
"6  c #5E6D8E",
"7  c #546A9E",
"8  c #767D8E",
"9  c #747E98",
"0  c #446EA5",
"q  c #446CA8",
"w  c #526BA3",
"e  c #5B7EAC",
"r  c #4B78B0",
"t  c #7B818F",
"y  c #5482B4",
"u  c #5783BB",
"i  c #5987B9",
"p  c #7382A4",
"a  c #7D8AA5",
"s  c #7C8BAC",
"d  c #648AB4",
"f  c #6292C2",
"g  c #6698C5",
"h  c #679AC9",
"j  c #6A9DCA",
"k  c #70A7D1",
"l  c #73AAD2",
"z  c #7CB3D6",
"x  c #858585",
"c  c #8B8B8C",
"v  c #848A95",
"b  c #8E8F91",
"n  c #81899B",
"m  c #8F9090",
"M  c #939394",
"N  c #95979F",
"B  c #97999B",
"V  c #9B9B9C",
"C  c #9398A2",
"Z  c #9F9FA1",
"A  c #829FBC",
"S  c #A3A3A4",
"D  c #A6A8A8",
"F  c #ACACAD",
"G  c #A3A7B6",
"H  c #B2B3B3",
"J  c #B7B7B8",
"K  c #BBBBBB",
"L  c #83B4D6",
"P  c #82BDDD",
"I  c #A8B5CC",
"U  c #B5B9C2",
"Y  c #BEBFC0",
"T  c #84BEE1",
"R  c #86C1DE",
"E  c #B5C3CF",
"W  c #A3C7DF",
"Q  c #B7CBDC",
"!  c #85C2E0",
"~  c #89C4E2",
"^  c #8DCAE4",
"/  c #91CDE6",
"(  c #94D1E7",
")  c #93D1E9",
"_  c #99D5E9",
"`  c #9BD9EC",
"'  c #A6D6EA",
"]  c #A5DEEC",
"[  c #9FE0F1",
"{  c #AEE1ED",
"}  c #B3E2ED",
"|  c #BCE4EE",
" . c #A5E6F3",
".. c #C3C4C4",
"X. c #CCCDCD",
"o. c #C7CCD4",
"O. c #D3D3D3",
"+. c #D6D9D9",
"@. c #DADADA",
"#. c #C7D9E5",
"$. c #C2DFEF",
"%. c #DDDFE0",
"&. c #C3E6EE",
"*. c #CAE3EC",
"=. c #CAE8EE",
"-. c #E6E6E6",
";. c #EAECEC",
":. c #EFF1F2",
">. c #F3F3F3",
",. c #F9F9F9",
/* pixels */
"-.-.-.-.-.-.-.-.-.-.-.-.-.-.-.-.-.-.-.-.-.-.-.-.-.-.-.-.-.-.-.-.",
"-.-.-.-.-.-.X.....X.X.....O.-.-.-.-.-.-.-.-.-.-.-.-.-.-.-.-.-.-.",
"-.-.-.-.%.J J t 6 > ; 5 8 D Y %.-.-.-.-.-.-.-.-.-.-.-.-.-.-.-.-.",
"-.-.-...J N -   $ = , = $ & v J ..-.-.-.-.-.-.-.-.-.-.-.-.-.-.-.",
"-.-.+.D 9 . * 0 f k l j i 2 = 6 H @.-.-.-.-.-.-.-.-.-.-.-.-.-.-.",
"-.-.B C . , h P T ~ ~ T P l e , n S -.-.-.-.-.-.-.-.-.-.-.-.-.-.",
"-.F B : = k P ~ ^ / / / / ~ P y < Z H -.-.-.-.-.-.-.-.-.-.-.-.-.",
"-.m C . f T ~ / _ [ ` ` _ ( ~ z q a M -.-.-.-.-.-.-.-.-.-.-.-.-.",
"-.c 9 1 R ) `  . . . . . .[ / ! g p B -.-.-.-.-.-.-.-.-.-.-.-.-.",
"-.x w r ~ 4 4 4 4 4 4 3 2 2 2 ^ z e M %.-.-.-.-.-.-.;.-.-.-.-.-.",
"+.x 7 u P % % % % % % % % % % ( P d B +.;.-.-.-.-.-.-.-.-.-.-.-.",
"-.c s u P _ ] ] } } | | | { ] _ R A M -.-.-.-.-.-.-.-.-.-.-.-.-.",
"-.c G q L _ ] } | &.&.| | } ] _ P I c -.-.-.-.-.-.-.-.-.-.-.-.-.",
"-.m D w z / ] } | &.=.&.| } ] ( L H M -.-.-.-.-.-.-.-.-.-.-.-.-.",
"-.+.m U f ~ ] { | =.=.=.| } ] ^ E M @.-.-.-.-.-.-.-.-.-.-.-.-.-.",
"-.-.H Z I L ^ ] | &.=.&.} ] ( Q H J -.-.-.-.-.-.-.-.-.-.-.-.-.-.",
"-.-.;.m F o.W ^ ] { } { { ' O.J c :.X.H %.-.-.-.-.-.-.-.-.-.-.-.",
"-.-.-.-.F V ..#.#.$.| *.+.X.V F F J @.-.H @.-.-.-.-.-.-.-.-.-.-.",
"-.-.-.-.-.O.M m B H H B b m @.-...o @ @.:.J O.-.-.-.-.-.-.-.-.-.",
"-.-.-.-.-.-.-.-.%.K K %.-.-.-.-.%.@ o + X.:...X.-.-.-.-.-.-.-.-.",
"-.-.-.-.-.-.-.-.-.-.-.-.-.-.-.-.-.-.# O o ..;.O.X.-.-.-.-.-.-.-.",
"-.-.-.-.-.-.-.-.-.-.-.-.-.-.-.-.-.-.-.c + X H -.-...-.-.-.-.-.-.",
"-.-.-.-.-.-.-.-.-.-.-.-.-.-.-.-.-.-.-.-.M @ X D %.,.K -.-.-.-.-.",
"-.-.-.-.-.-.-.-.-.-.-.-.-.-.-.-.-.-.-.-.-.S # o M +.,.H -.-.-.-.",
"-.-.-.-.-.-.-.-.-.-.-.-.-.-.-.-.-.-.-.-.-.-.D x + x X.,.H %.-.-.",
"-.-.-.-.-.-.-.-.-.-.-.-.-.-.-.-.-.-.-.-.-.-.-.H c x # ..>.J @.-.",
"-.-.-.-.-.-.-.-.-.-.-.-.-.-.-.-.-.-.-.-.-.-.-.-.K M M @ K ;...O.",
"-.-.-.-.-.-.-.-.-.-.-.-.-.-.-.-.-.-.-.-.-.-.-.-.-...B V @ F -...",
"-.-.-.-.-.-.-.-.-.-.-.-.-.-.-.-.-.-.-.-.-.-.-.-.-.-.X.V F x V O.",
"-.-.-.-.-.-.-.-.-.-.-.-.-.-.-.-.-.-.-.-.-.-.-.-.-.-.-.O.V V F -.",
"-.-.-.-.-.-.-.-.-.-.-.-.-.-.-.-.-.-.-.-.-.-.-.-.-.-.-.-.@.H -.-.",
"-.-.-.-.-.-.-.-.-.-.-.-.-.-.-.-.-.-.-.-.-.-.-.-.-.-.-.-.-.-.-.-."
};
