/* XPM */
static const char *zoomin[] = {
/* columns rows colors chars-per-pixel */
"32 32 130 2",
"   c #193A7D",
".  c #535353",
"X  c #5D5D5D",
"o  c #646464",
"O  c #6D6D6D",
"+  c #757575",
"@  c #7D7D7D",
"#  c #2B4886",
"$  c #214488",
"%  c #27498C",
"&  c #2C4D8B",
"*  c #384E81",
"=  c #314E8C",
"-  c #2B538C",
";  c #3B5284",
":  c #2C4E90",
">  c #265697",
",  c #2D5191",
"<  c #3A5D97",
"1  c #365C9B",
"2  c #39619C",
"3  c #2B5FA0",
"4  c #3769A3",
"5  c #3C70A9",
"6  c #336EB0",
"7  c #586687",
"8  c #5E6D8E",
"9  c #767D8E",
"0  c #747E98",
"q  c #446EA5",
"w  c #426BA8",
"e  c #526BA3",
"r  c #4A75AF",
"t  c #5B7EAC",
"y  c #437DB6",
"u  c #4B78B0",
"i  c #7B818F",
"p  c #4681B9",
"a  c #5482B4",
"s  c #5783BB",
"d  c #5987B9",
"f  c #6A84A9",
"g  c #7D8AA5",
"h  c #7C8BAC",
"j  c #648AB4",
"k  c #6097BE",
"l  c #478FCE",
"z  c #4D8FC8",
"x  c #4990C4",
"c  c #4A92C9",
"v  c #5593C6",
"b  c #5D99C5",
"n  c #5B9AC9",
"m  c #4894D7",
"M  c #5296D0",
"N  c #5199D1",
"B  c #6291C1",
"V  c #6698C5",
"C  c #679AC9",
"Z  c #6A9DCA",
"A  c #52A2DD",
"S  c #66A1C8",
"D  c #71A7D2",
"F  c #76AED5",
"G  c #7CB4D8",
"H  c #53A5E5",
"J  c #858585",
"K  c #8B8B8C",
"L  c #848A95",
"P  c #8E8F91",
"I  c #8F9090",
"U  c #939394",
"Y  c #95979F",
"T  c #97999B",
"R  c #9B9B9C",
"E  c #9398A2",
"W  c #9F9FA1",
"Q  c #829FBC",
"!  c #99ABBF",
"~  c #A3A3A4",
"^  c #A6A8A8",
"/  c #ACACAD",
"(  c #A3A7B6",
")  c #B2B3B3",
"_  c #B7B7B8",
"`  c #BBBBBB",
"'  c #83B4D6",
"]  c #82BCDE",
"[  c #A8B5CC",
"{  c #B5B9C2",
"}  c #BEBFC0",
"|  c #86C1DE",
" . c #B5C3CF",
".. c #A3C7DF",
"X. c #B7CBDC",
"o. c #85C2E0",
"O. c #89C5E2",
"+. c #8EC9E3",
"@. c #91CDE5",
"#. c #94D1E7",
"$. c #94D2EA",
"%. c #99D5E9",
"&. c #9BD9ED",
"*. c #9DDCF0",
"=. c #A6D6EA",
"-. c #A5DEEC",
";. c #9FE0F1",
":. c #AEE1ED",
">. c #B3E2ED",
",. c #BCE5EE",
"<. c #A4E5F3",
"1. c #B1E7F3",
"2. c #B5E8F2",
"3. c #C3C4C4",
"4. c #CCCDCD",
"5. c #C7CCD4",
"6. c #D3D3D3",
"7. c #D6D9D9",
"8. c #DADADA",
"9. c #C7D9E5",
"0. c #C2DFEF",
"q. c #DDDFE0",
"w. c #C4E6EE",
"e. c #CBE0EA",
"r. c #CAE8EE",
"t. c #E6E6E6",
"y. c #EAECEC",
"u. c #EFF1F2",
"i. c #F3F3F3",
"p. c #F9F9F9",
/* pixels */
"t.t.t.t.t.t.t.t.t.t.t.t.t.t.t.t.t.t.t.t.t.t.t.t.t.t.t.t.t.t.t.t.",
"t.t.t.t.t.t.4.3.3.4.4.3. .6.t.t.t.t.t.t.t.t.t.t.t.t.t.t.t.t.t.t.",
"t.t.t.t.q._ _ i 8 ; * 7 9 / ` q.t.t.t.t.t.t.t.t.t.t.t.t.t.t.t.t.",
"t.t.t.3._ Y &   - , : % $ # L _ 3.t.t.t.t.t.t.t.t.t.t.t.t.t.t.t.",
"t.t.8.^ 0   $ r F G F Z d 2 % 8 ) 8.t.t.t.t.t.t.t.t.t.t.t.t.t.t.",
"t.t.T E   , C ] #.k V o.] F a - L ~ t.t.t.t.t.t.t.t.t.t.t.t.t.t.",
"t./ R = % D ] O.&.S S @.+.O.] d < W ) t.t.t.t.t.y.t.t.t.t.t.t.t.",
"t.P E   B ] O.$.*.n b &.%.#.O.' q g U t.t.t.t.t.t.t.t.t.t.t.t.t.",
"t.K 0 1 o.$.&.;.<.M v <.<.<.#.| V f U t.t.t.t.t.t.t.t.t.t.t.t.t.",
"t.J e u O.5 p x M N z y 4 - - | ' t U t.t.t.t.t.t.t.t.t.t.t.t.t.",
"7.J e s ] 3 6 l m m l 6 >     #.] j T 8.t.t.t.t.t.t.t.t.t.t.t.t.",
"t.K h t ] #.=.:.1.H z >.>.>.-.%.] Q U t.t.t.t.t.t.t.t.t.t.t.t.t.",
"t.K ( w ] #.-.>.1.A c ,.,.:.-.%.| ! I t.t.t.t.t.t.t.t.t.t.t.t.t.",
"t.U ^ e G @.-.1.2.N z w.,.>.-.@.' ) T t.t.t.t.t.t.t.t.t.t.t.t.t.",
"t.7.P { B | -.:.,.c x r.,.>.-.@. .U 8.t.t.t.t.t.t.t.t.t.t.t.t.t.",
"t.t.) W [ ' @.=.>.w.r.r.>.-.@.X.) _ t.t.t.y.t.t.t.t.t.t.t.t.t.t.",
"t.t.t.U / 5...+.-.:.:.:.:.=.6.) K i.4.) q.t.t.t.t.t.t.t.t.t.t.t.",
"t.t.t.t./ T 3.9.9.0.,.e.7.4.R ) / ) 8.t.) 8.t.t.t.t.t.t.t.t.t.t.",
"t.t.t.t.t.6.U P R ) ) T K I 8.t.3.X + 8.u._ 6.t.t.t.t.t.t.t.t.t.",
"t.t.t.t.t.t.t.t.q.` } q.t.t.t.t.q.+ X O 4.y.3.6.t.t.t.t.t.t.t.t.",
"t.t.t.t.t.t.t.t.t.t.t.t.t.t.t.t.t.t.@ o X } y.6.3.t.t.t.t.t.t.t.",
"t.t.t.t.t.t.t.t.t.t.t.t.t.t.t.t.t.t.t.K O . ) t.t.3.t.t.t.t.t.t.",
"t.t.t.t.t.t.t.t.t.t.t.t.t.t.t.t.t.t.t.t.T + . ~ q.p.` t.t.t.t.t.",
"t.t.t.t.t.t.t.t.t.t.t.t.t.t.t.t.t.t.t.t.t.~ @ X U 8.p._ t.t.t.t.",
"t.t.t.t.t.t.t.t.t.t.t.t.t.t.t.t.t.t.t.t.t.t.^ J + J 4.i.) q.t.t.",
"t.t.t.t.t.t.t.t.t.t.t.t.t.t.t.t.t.t.t.t.t.t.t.) K J @ 3.i.` 8.t.",
"t.t.t.t.t.t.t.t.t.t.t.t.t.t.t.t.t.t.t.t.t.t.t.t.` I U + ` y.3.6.",
"t.t.t.t.t.t.t.t.t.t.t.t.t.t.t.t.t.t.t.t.t.t.t.t.t.3.U ~ + / t.3.",
"t.t.t.t.t.y.t.t.t.t.t.t.t.t.t.t.t.t.t.t.t.t.t.t.t.t.4.R / J R 6.",
"t.t.t.t.t.t.t.t.t.t.t.t.t.t.t.t.t.t.t.t.t.t.t.t.t.t.t.6.R R / t.",
"t.t.t.t.t.t.t.t.t.t.t.t.t.t.t.t.t.t.t.t.t.t.t.t.t.t.t.t.8.) t.t.",
"t.t.t.t.t.t.t.t.t.t.t.t.t.t.t.t.t.t.t.t.t.t.t.t.t.t.t.t.t.t.t.t."
};
